M48
; DRILL file {KiCad 7.0.9-7.0.9~ubuntu22.04.1} date Friday 29 December 2023 04:16:34 PM
; FORMAT={-:-/ absolute / inch / decimal}
; #@! TF.CreationDate,2023-12-29T16:16:34+05:30
; #@! TF.GenerationSoftware,Kicad,Pcbnew,7.0.9-7.0.9~ubuntu22.04.1
; #@! TF.FileFunction,Plated,1,2,PTH
FMAT,2
INCH
; #@! TA.AperFunction,Plated,PTH,ComponentDrill
T1C0.0118
; #@! TA.AperFunction,Plated,PTH,ViaDrill
T2C0.0157
; #@! TA.AperFunction,Plated,PTH,ComponentDrill
T3C0.0394
%
G90
G05
T1
X5.7204Y-2.9737
X5.7204Y-3.0328
X5.7401Y-3.0032
X5.7598Y-2.9737
X5.7598Y-3.0328
T2
X5.31Y-4.3392
X5.325Y-3.8442
X5.5428Y-3.8565
X5.5452Y-4.3543
X5.5733Y-4.0483
X5.5788Y-3.7971
X5.58Y-3.7166
X5.605Y-3.8592
X5.625Y-3.0318
X5.6271Y-3.7452
X5.65Y-2.8342
X5.705Y-3.7992
X5.83Y-3.1042
X5.84Y-2.8642
X5.8731Y-4.0797
X5.88Y-4.1942
X5.885Y-2.6992
X5.96Y-3.7842
X6.0Y-4.3842
X6.05Y-4.3642
X6.07Y-4.2142
T3
X5.1997Y-4.4857
X5.2146Y-2.6593
X5.2146Y-2.7593
X5.2146Y-2.8593
X5.2146Y-2.9593
X5.2146Y-3.0593
X5.2146Y-3.1593
X5.2146Y-3.2593
X5.2146Y-3.3593
X5.2146Y-3.4593
X5.2146Y-3.5593
X5.2146Y-3.6593
X5.2146Y-3.7593
X5.2177Y-3.9568
X5.2177Y-4.0568
X5.2177Y-4.1568
X5.2177Y-4.2568
X5.2198Y-2.4242
X5.2997Y-4.4857
X5.3198Y-2.4242
X5.3997Y-4.4857
X5.4566Y-2.6593
X5.4566Y-2.7593
X5.4566Y-2.8593
X5.4566Y-2.9593
X5.4566Y-3.0593
X5.4566Y-3.1593
X5.4566Y-3.2593
X5.4566Y-3.3593
X5.4566Y-3.4593
X5.4566Y-3.5593
X5.4566Y-3.6593
X5.4566Y-3.7593
X5.4593Y-3.9571
X5.4593Y-4.0571
X5.4593Y-4.1571
X5.4593Y-4.2571
X5.5534Y-2.4234
X5.5981Y-4.4886
X5.6534Y-2.4234
X5.6981Y-4.4886
X5.7981Y-4.4886
X5.8582Y-2.4226
X5.9582Y-2.4226
X5.9749Y-3.9241
X5.9749Y-4.0241
X5.9749Y-4.1241
X6.0Y-4.4842
X6.0499Y-2.6616
X6.0499Y-2.7616
X6.0499Y-2.8616
X6.0499Y-2.9616
X6.0499Y-3.0616
X6.0499Y-3.1616
X6.0499Y-3.2616
X6.0499Y-3.3616
X6.0499Y-3.4616
X6.0499Y-3.5616
X6.0499Y-3.6616
X6.0499Y-3.7616
X6.0749Y-3.9241
X6.0749Y-4.0241
X6.0749Y-4.1241
X6.1Y-4.4842
X6.176Y-2.4226
X6.2Y-4.4842
X6.276Y-2.4226
X6.2996Y-3.9244
X6.2996Y-4.0244
X6.2996Y-4.1244
X6.3044Y-2.6587
X6.3044Y-2.7587
X6.3044Y-2.8587
X6.3044Y-2.9587
X6.3044Y-3.0587
X6.3044Y-3.1587
X6.3044Y-3.2587
X6.3044Y-3.3587
X6.3044Y-3.4587
X6.3044Y-3.5587
X6.3044Y-3.6587
X6.3044Y-3.7587
X6.3996Y-3.9244
X6.3996Y-4.0244
X6.3996Y-4.1244
X6.4Y-4.2942
X6.4Y-4.3942
X6.4Y-4.4942
T0
M30
