%TF.GenerationSoftware,KiCad,Pcbnew,7.0.9-7.0.9~ubuntu22.04.1*%
%TF.CreationDate,2023-12-29T16:16:38+05:30*%
%TF.ProjectId,ulpLoRa_charge controller HAT,756c704c-6f52-4615-9f63-686172676520,rev?*%
%TF.SameCoordinates,Original*%
%TF.FileFunction,Soldermask,Bot*%
%TF.FilePolarity,Negative*%
%FSLAX46Y46*%
G04 Gerber Fmt 4.6, Leading zero omitted, Abs format (unit mm)*
G04 Created by KiCad (PCBNEW 7.0.9-7.0.9~ubuntu22.04.1) date 2023-12-29 16:16:38*
%MOMM*%
%LPD*%
G01*
G04 APERTURE LIST*
%ADD10R,1.700000X1.700000*%
%ADD11O,1.700000X1.700000*%
%ADD12C,0.600000*%
G04 APERTURE END LIST*
D10*
%TO.C,J5*%
X147270534Y-114009339D03*
D11*
X144730534Y-114009339D03*
X142190534Y-114009339D03*
%TD*%
D10*
%TO.C,CON1*%
X151762929Y-99671787D03*
D11*
X154302929Y-99671787D03*
X151762929Y-102211787D03*
X154302929Y-102211787D03*
X151762929Y-104751787D03*
X154302929Y-104751787D03*
%TD*%
D10*
%TO.C,J6*%
X132530232Y-108123377D03*
D11*
X132530232Y-105583377D03*
X132530232Y-103043377D03*
X132530232Y-100503377D03*
%TD*%
D10*
%TO.C,CON2*%
X160011064Y-99679755D03*
D11*
X162551064Y-99679755D03*
X160011064Y-102219755D03*
X162551064Y-102219755D03*
X160011064Y-104759755D03*
X162551064Y-104759755D03*
%TD*%
D10*
%TO.C,J15*%
X152400000Y-113898000D03*
D11*
X154940000Y-113898000D03*
X157480000Y-113898000D03*
%TD*%
D10*
%TO.C,J3*%
X132583000Y-61574000D03*
D11*
X135123000Y-61574000D03*
%TD*%
D10*
%TO.C,J2*%
X153667297Y-67605788D03*
D11*
X153667297Y-70145788D03*
X153667297Y-72685788D03*
X153667297Y-75225788D03*
X153667297Y-77765788D03*
X153667297Y-80305788D03*
X153667297Y-82845788D03*
X153667297Y-85385788D03*
X153667297Y-87925788D03*
X153667297Y-90465788D03*
X153667297Y-93005788D03*
X153667297Y-95545788D03*
%TD*%
D10*
%TO.C,J11*%
X148797981Y-61533420D03*
D11*
X151337981Y-61533420D03*
%TD*%
D10*
%TO.C,J8*%
X132450904Y-67546774D03*
D11*
X132450904Y-70086774D03*
X132450904Y-72626774D03*
X132450904Y-75166774D03*
X132450904Y-77706774D03*
X132450904Y-80246774D03*
X132450904Y-82786774D03*
X132450904Y-85326774D03*
X132450904Y-87866774D03*
X132450904Y-90406774D03*
X132450904Y-92946774D03*
X132450904Y-95486774D03*
%TD*%
D10*
%TO.C,J7*%
X160131044Y-67529767D03*
D11*
X160131044Y-70069767D03*
X160131044Y-72609767D03*
X160131044Y-75149767D03*
X160131044Y-77689767D03*
X160131044Y-80229767D03*
X160131044Y-82769767D03*
X160131044Y-85309767D03*
X160131044Y-87849767D03*
X160131044Y-90389767D03*
X160131044Y-92929767D03*
X160131044Y-95469767D03*
%TD*%
D10*
%TO.C,J4*%
X138666745Y-108130844D03*
D11*
X138666745Y-105590844D03*
X138666745Y-103050844D03*
X138666745Y-100510844D03*
%TD*%
D10*
%TO.C,J9*%
X156869645Y-61533479D03*
D11*
X159409645Y-61533479D03*
%TD*%
D10*
%TO.C,J14*%
X132072747Y-113936329D03*
D11*
X134612747Y-113936329D03*
X137152747Y-113936329D03*
%TD*%
D10*
%TO.C,J12*%
X141056507Y-61553739D03*
D11*
X143596507Y-61553739D03*
%TD*%
D10*
%TO.C,J1*%
X138598418Y-67545362D03*
D11*
X138598418Y-70085362D03*
X138598418Y-72625362D03*
X138598418Y-75165362D03*
X138598418Y-77705362D03*
X138598418Y-80245362D03*
X138598418Y-82785362D03*
X138598418Y-85325362D03*
X138598418Y-87865362D03*
X138598418Y-90405362D03*
X138598418Y-92945362D03*
X138598418Y-95485362D03*
%TD*%
D12*
%TO.C,U1*%
X145298913Y-75532213D03*
X145298913Y-77032213D03*
X145798913Y-76282213D03*
X146298913Y-75532213D03*
X146298913Y-77032213D03*
%TD*%
D10*
%TO.C,J13*%
X162560000Y-109072000D03*
D11*
X162560000Y-111612000D03*
X162560000Y-114152000D03*
%TD*%
M02*
