%TF.GenerationSoftware,KiCad,Pcbnew,7.0.9-7.0.9~ubuntu22.04.1*%
%TF.CreationDate,2023-12-29T16:16:38+05:30*%
%TF.ProjectId,ulpLoRa_charge controller HAT,756c704c-6f52-4615-9f63-686172676520,rev?*%
%TF.SameCoordinates,Original*%
%TF.FileFunction,Soldermask,Top*%
%TF.FilePolarity,Negative*%
%FSLAX46Y46*%
G04 Gerber Fmt 4.6, Leading zero omitted, Abs format (unit mm)*
G04 Created by KiCad (PCBNEW 7.0.9-7.0.9~ubuntu22.04.1) date 2023-12-29 16:16:38*
%MOMM*%
%LPD*%
G01*
G04 APERTURE LIST*
G04 Aperture macros list*
%AMRoundRect*
0 Rectangle with rounded corners*
0 $1 Rounding radius*
0 $2 $3 $4 $5 $6 $7 $8 $9 X,Y pos of 4 corners*
0 Add a 4 corners polygon primitive as box body*
4,1,4,$2,$3,$4,$5,$6,$7,$8,$9,$2,$3,0*
0 Add four circle primitives for the rounded corners*
1,1,$1+$1,$2,$3*
1,1,$1+$1,$4,$5*
1,1,$1+$1,$6,$7*
1,1,$1+$1,$8,$9*
0 Add four rect primitives between the rounded corners*
20,1,$1+$1,$2,$3,$4,$5,0*
20,1,$1+$1,$4,$5,$6,$7,0*
20,1,$1+$1,$6,$7,$8,$9,0*
20,1,$1+$1,$8,$9,$2,$3,0*%
G04 Aperture macros list end*
%ADD10R,1.700000X1.700000*%
%ADD11O,1.700000X1.700000*%
%ADD12RoundRect,0.250000X0.450000X-0.262500X0.450000X0.262500X-0.450000X0.262500X-0.450000X-0.262500X0*%
%ADD13RoundRect,0.218750X0.381250X-0.218750X0.381250X0.218750X-0.381250X0.218750X-0.381250X-0.218750X0*%
%ADD14RoundRect,0.250000X0.475000X-0.250000X0.475000X0.250000X-0.475000X0.250000X-0.475000X-0.250000X0*%
%ADD15R,0.650000X0.400000*%
%ADD16RoundRect,0.250000X-0.475000X0.250000X-0.475000X-0.250000X0.475000X-0.250000X0.475000X0.250000X0*%
%ADD17RoundRect,0.250000X-0.450000X0.262500X-0.450000X-0.262500X0.450000X-0.262500X0.450000X0.262500X0*%
%ADD18RoundRect,0.140000X-0.170000X0.140000X-0.170000X-0.140000X0.170000X-0.140000X0.170000X0.140000X0*%
%ADD19RoundRect,0.140000X-0.140000X-0.170000X0.140000X-0.170000X0.140000X0.170000X-0.140000X0.170000X0*%
%ADD20RoundRect,0.250000X-0.262500X-0.450000X0.262500X-0.450000X0.262500X0.450000X-0.262500X0.450000X0*%
%ADD21RoundRect,0.070000X-0.140000X-0.140000X0.140000X-0.140000X0.140000X0.140000X-0.140000X0.140000X0*%
%ADD22O,0.990000X0.420000*%
%ADD23C,0.600000*%
%ADD24R,0.680000X1.050000*%
%ADD25R,0.260000X0.500000*%
%ADD26R,0.280000X0.700000*%
%ADD27R,1.650000X2.400000*%
G04 APERTURE END LIST*
D10*
%TO.C,J5*%
X147270534Y-114009339D03*
D11*
X144730534Y-114009339D03*
X142190534Y-114009339D03*
%TD*%
D10*
%TO.C,CON1*%
X151762929Y-99671787D03*
D11*
X154302929Y-99671787D03*
X151762929Y-102211787D03*
X154302929Y-102211787D03*
X151762929Y-104751787D03*
X154302929Y-104751787D03*
%TD*%
D12*
%TO.C,R3*%
X149604913Y-80014713D03*
X149604913Y-78189713D03*
%TD*%
D10*
%TO.C,J6*%
X132530232Y-108123377D03*
D11*
X132530232Y-105583377D03*
X132530232Y-103043377D03*
X132530232Y-100503377D03*
%TD*%
D10*
%TO.C,CON2*%
X160011064Y-99679755D03*
D11*
X162551064Y-99679755D03*
X160011064Y-102219755D03*
X162551064Y-102219755D03*
X160011064Y-104759755D03*
X162551064Y-104759755D03*
%TD*%
D13*
%TO.C,L1*%
X142113000Y-80797500D03*
X142113000Y-78672500D03*
%TD*%
D14*
%TO.C,C10*%
X141817050Y-106928314D03*
X141817050Y-105028314D03*
%TD*%
D10*
%TO.C,J15*%
X152400000Y-113898000D03*
D11*
X154940000Y-113898000D03*
X157480000Y-113898000D03*
%TD*%
D10*
%TO.C,J3*%
X132583000Y-61574000D03*
D11*
X135123000Y-61574000D03*
%TD*%
D10*
%TO.C,J2*%
X153667297Y-67605788D03*
D11*
X153667297Y-70145788D03*
X153667297Y-72685788D03*
X153667297Y-75225788D03*
X153667297Y-77765788D03*
X153667297Y-80305788D03*
X153667297Y-82845788D03*
X153667297Y-85385788D03*
X153667297Y-87925788D03*
X153667297Y-90465788D03*
X153667297Y-93005788D03*
X153667297Y-95545788D03*
%TD*%
D15*
%TO.C,U4*%
X141724106Y-100316507D03*
X141724106Y-100966507D03*
X141724106Y-101616507D03*
X143624106Y-101616507D03*
X143624106Y-100316507D03*
%TD*%
D16*
%TO.C,C9*%
X155527242Y-108570174D03*
X155527242Y-110470174D03*
%TD*%
D17*
%TO.C,R2*%
X149604913Y-73871713D03*
X149604913Y-75696713D03*
%TD*%
D18*
%TO.C,C3*%
X142464645Y-70243989D03*
X142464645Y-71203989D03*
%TD*%
D14*
%TO.C,C7*%
X144203402Y-106928314D03*
X144203402Y-105028314D03*
%TD*%
D19*
%TO.C,C1*%
X145314913Y-79864213D03*
X146274913Y-79864213D03*
%TD*%
D10*
%TO.C,J11*%
X148797981Y-61533420D03*
D11*
X151337981Y-61533420D03*
%TD*%
D16*
%TO.C,C6*%
X149022578Y-108820353D03*
X149022578Y-110720353D03*
%TD*%
D20*
%TO.C,R4*%
X148946413Y-71228213D03*
X150771413Y-71228213D03*
%TD*%
%TO.C,R1*%
X145136413Y-71228213D03*
X146961413Y-71228213D03*
%TD*%
D16*
%TO.C,C11*%
X146495766Y-108845371D03*
X146495766Y-110745371D03*
%TD*%
D10*
%TO.C,J8*%
X132450904Y-67546774D03*
D11*
X132450904Y-70086774D03*
X132450904Y-72626774D03*
X132450904Y-75166774D03*
X132450904Y-77706774D03*
X132450904Y-80246774D03*
X132450904Y-82786774D03*
X132450904Y-85326774D03*
X132450904Y-87866774D03*
X132450904Y-90406774D03*
X132450904Y-92946774D03*
X132450904Y-95486774D03*
%TD*%
D10*
%TO.C,J7*%
X160131044Y-67529767D03*
D11*
X160131044Y-70069767D03*
X160131044Y-72609767D03*
X160131044Y-75149767D03*
X160131044Y-77689767D03*
X160131044Y-80229767D03*
X160131044Y-82769767D03*
X160131044Y-85309767D03*
X160131044Y-87849767D03*
X160131044Y-90389767D03*
X160131044Y-92929767D03*
X160131044Y-95469767D03*
%TD*%
D10*
%TO.C,J4*%
X138666745Y-108130844D03*
D11*
X138666745Y-105590844D03*
X138666745Y-103050844D03*
X138666745Y-100510844D03*
%TD*%
D15*
%TO.C,U3*%
X142344151Y-109245227D03*
X142344151Y-109895227D03*
X142344151Y-110545227D03*
X144244151Y-110545227D03*
X144244151Y-109245227D03*
%TD*%
D16*
%TO.C,C8*%
X147853915Y-100081401D03*
X147853915Y-101981401D03*
%TD*%
%TO.C,C5*%
X157828893Y-108595191D03*
X157828893Y-110495191D03*
%TD*%
D15*
%TO.C,U5*%
X148070727Y-106174512D03*
X148070727Y-105524512D03*
X148070727Y-104874512D03*
X146170727Y-104874512D03*
X146170727Y-106174512D03*
%TD*%
D10*
%TO.C,J9*%
X156869645Y-61533479D03*
D11*
X159409645Y-61533479D03*
%TD*%
D16*
%TO.C,C4*%
X145612732Y-100100352D03*
X145612732Y-102000352D03*
%TD*%
D10*
%TO.C,J14*%
X132072747Y-113936329D03*
D11*
X134612747Y-113936329D03*
X137152747Y-113936329D03*
%TD*%
D10*
%TO.C,J12*%
X141056507Y-61553739D03*
D11*
X143596507Y-61553739D03*
%TD*%
D10*
%TO.C,J1*%
X138598418Y-67545362D03*
D11*
X138598418Y-70085362D03*
X138598418Y-72625362D03*
X138598418Y-75165362D03*
X138598418Y-77705362D03*
X138598418Y-80245362D03*
X138598418Y-82785362D03*
X138598418Y-85325362D03*
X138598418Y-87865362D03*
X138598418Y-90405362D03*
X138598418Y-92945362D03*
X138598418Y-95485362D03*
%TD*%
D21*
%TO.C,U1*%
X144038913Y-75282213D03*
D22*
X144323913Y-75282213D03*
D21*
X144038913Y-75782213D03*
D22*
X144323913Y-75782213D03*
D21*
X144038913Y-76282213D03*
D22*
X144323913Y-76282213D03*
D21*
X144038913Y-76782213D03*
D22*
X144323913Y-76782213D03*
D21*
X144038913Y-77282213D03*
D22*
X144323913Y-77282213D03*
X147273913Y-77282213D03*
D21*
X147558913Y-77282213D03*
D22*
X147273913Y-76782213D03*
D21*
X147558913Y-76782213D03*
D22*
X147273913Y-76282213D03*
D21*
X147558913Y-76282213D03*
D22*
X147273913Y-75782213D03*
D21*
X147558913Y-75782213D03*
D22*
X147273913Y-75282213D03*
D21*
X147558913Y-75282213D03*
D23*
X145298913Y-75532213D03*
X145298913Y-77032213D03*
D24*
X145348913Y-75647213D03*
X145348913Y-76917213D03*
D25*
X145548913Y-74652213D03*
D26*
X145548913Y-74732213D03*
X145548913Y-77832213D03*
D25*
X145548913Y-77912213D03*
D23*
X145798913Y-76282213D03*
D27*
X145798913Y-76282213D03*
D25*
X146048913Y-74652213D03*
D26*
X146048913Y-74732213D03*
X146048913Y-77832213D03*
D25*
X146048913Y-77912213D03*
D24*
X146248913Y-75647213D03*
X146248913Y-76917213D03*
D23*
X146298913Y-75532213D03*
X146298913Y-77032213D03*
%TD*%
D14*
%TO.C,C2*%
X141942500Y-74829682D03*
X141942500Y-72929682D03*
%TD*%
D15*
%TO.C,U2*%
X151524372Y-108444653D03*
X151524372Y-109094653D03*
X151524372Y-109744653D03*
X153424372Y-109744653D03*
X153424372Y-108444653D03*
%TD*%
D10*
%TO.C,J13*%
X162560000Y-109072000D03*
D11*
X162560000Y-111612000D03*
X162560000Y-114152000D03*
%TD*%
M02*
