%TF.GenerationSoftware,KiCad,Pcbnew,7.0.9-7.0.9~ubuntu22.04.1*%
%TF.CreationDate,2023-12-29T16:16:33+05:30*%
%TF.ProjectId,ulpLoRa_charge controller HAT,756c704c-6f52-4615-9f63-686172676520,rev?*%
%TF.SameCoordinates,Original*%
%TF.FileFunction,Drillmap*%
%TF.FilePolarity,Positive*%
%FSLAX45Y45*%
G04 Gerber Fmt 4.5, Leading zero omitted, Abs format (unit mm)*
G04 Created by KiCad (PCBNEW 7.0.9-7.0.9~ubuntu22.04.1) date 2023-12-29 16:16:33*
%MOMM*%
%LPD*%
G01*
G04 APERTURE LIST*
%ADD10C,0.100000*%
%ADD11C,0.200000*%
G04 APERTURE END LIST*
D10*
X12877800Y-5801800D02*
X16484600Y-5801800D01*
X16484600Y-11770800D02*
G75*
G03*
X16611600Y-11643800I0J127000D01*
G01*
X12750800Y-11643800D02*
G75*
G03*
X12877800Y-11770800I127000J0D01*
G01*
X16611600Y-5928800D02*
G75*
G03*
X16484600Y-5801800I-127000J0D01*
G01*
X16611600Y-5928800D02*
X16611600Y-11643800D01*
X12877800Y-5801800D02*
G75*
G03*
X12750800Y-5928800I0J-127000D01*
G01*
X16484600Y-11770800D02*
X12877800Y-11770800D01*
X16516775Y-5998225D02*
G75*
G03*
X16516775Y-5998225I-127000J0D01*
G01*
X12750800Y-11643800D02*
X12750800Y-5928800D01*
X12990500Y-11604100D02*
G75*
G03*
X12990500Y-11604100I-100000J0D01*
G01*
D11*
X13006577Y-12087284D02*
X13006577Y-11887284D01*
X13006577Y-11887284D02*
X13054196Y-11887284D01*
X13054196Y-11887284D02*
X13082767Y-11896808D01*
X13082767Y-11896808D02*
X13101815Y-11915855D01*
X13101815Y-11915855D02*
X13111339Y-11934903D01*
X13111339Y-11934903D02*
X13120862Y-11972998D01*
X13120862Y-11972998D02*
X13120862Y-12001569D01*
X13120862Y-12001569D02*
X13111339Y-12039665D01*
X13111339Y-12039665D02*
X13101815Y-12058712D01*
X13101815Y-12058712D02*
X13082767Y-12077760D01*
X13082767Y-12077760D02*
X13054196Y-12087284D01*
X13054196Y-12087284D02*
X13006577Y-12087284D01*
X13206577Y-12087284D02*
X13206577Y-11953950D01*
X13206577Y-11992046D02*
X13216101Y-11972998D01*
X13216101Y-11972998D02*
X13225624Y-11963474D01*
X13225624Y-11963474D02*
X13244672Y-11953950D01*
X13244672Y-11953950D02*
X13263720Y-11953950D01*
X13330386Y-12087284D02*
X13330386Y-11953950D01*
X13330386Y-11887284D02*
X13320862Y-11896808D01*
X13320862Y-11896808D02*
X13330386Y-11906331D01*
X13330386Y-11906331D02*
X13339910Y-11896808D01*
X13339910Y-11896808D02*
X13330386Y-11887284D01*
X13330386Y-11887284D02*
X13330386Y-11906331D01*
X13454196Y-12087284D02*
X13435148Y-12077760D01*
X13435148Y-12077760D02*
X13425624Y-12058712D01*
X13425624Y-12058712D02*
X13425624Y-11887284D01*
X13558958Y-12087284D02*
X13539910Y-12077760D01*
X13539910Y-12077760D02*
X13530386Y-12058712D01*
X13530386Y-12058712D02*
X13530386Y-11887284D01*
X13787529Y-12087284D02*
X13787529Y-11887284D01*
X13787529Y-11887284D02*
X13854196Y-12030141D01*
X13854196Y-12030141D02*
X13920862Y-11887284D01*
X13920862Y-11887284D02*
X13920862Y-12087284D01*
X14101815Y-12087284D02*
X14101815Y-11982522D01*
X14101815Y-11982522D02*
X14092291Y-11963474D01*
X14092291Y-11963474D02*
X14073243Y-11953950D01*
X14073243Y-11953950D02*
X14035148Y-11953950D01*
X14035148Y-11953950D02*
X14016101Y-11963474D01*
X14101815Y-12077760D02*
X14082767Y-12087284D01*
X14082767Y-12087284D02*
X14035148Y-12087284D01*
X14035148Y-12087284D02*
X14016101Y-12077760D01*
X14016101Y-12077760D02*
X14006577Y-12058712D01*
X14006577Y-12058712D02*
X14006577Y-12039665D01*
X14006577Y-12039665D02*
X14016101Y-12020617D01*
X14016101Y-12020617D02*
X14035148Y-12011093D01*
X14035148Y-12011093D02*
X14082767Y-12011093D01*
X14082767Y-12011093D02*
X14101815Y-12001569D01*
X14197053Y-11953950D02*
X14197053Y-12153950D01*
X14197053Y-11963474D02*
X14216101Y-11953950D01*
X14216101Y-11953950D02*
X14254196Y-11953950D01*
X14254196Y-11953950D02*
X14273243Y-11963474D01*
X14273243Y-11963474D02*
X14282767Y-11972998D01*
X14282767Y-11972998D02*
X14292291Y-11992046D01*
X14292291Y-11992046D02*
X14292291Y-12049188D01*
X14292291Y-12049188D02*
X14282767Y-12068236D01*
X14282767Y-12068236D02*
X14273243Y-12077760D01*
X14273243Y-12077760D02*
X14254196Y-12087284D01*
X14254196Y-12087284D02*
X14216101Y-12087284D01*
X14216101Y-12087284D02*
X14197053Y-12077760D01*
X14378005Y-12068236D02*
X14387529Y-12077760D01*
X14387529Y-12077760D02*
X14378005Y-12087284D01*
X14378005Y-12087284D02*
X14368482Y-12077760D01*
X14368482Y-12077760D02*
X14378005Y-12068236D01*
X14378005Y-12068236D02*
X14378005Y-12087284D01*
X14378005Y-11963474D02*
X14387529Y-11972998D01*
X14387529Y-11972998D02*
X14378005Y-11982522D01*
X14378005Y-11982522D02*
X14368482Y-11972998D01*
X14368482Y-11972998D02*
X14378005Y-11963474D01*
X14378005Y-11963474D02*
X14378005Y-11982522D01*
M02*
