%TF.GenerationSoftware,KiCad,Pcbnew,7.0.9-7.0.9~ubuntu22.04.1*%
%TF.CreationDate,2023-12-29T16:16:38+05:30*%
%TF.ProjectId,ulpLoRa_charge controller HAT,756c704c-6f52-4615-9f63-686172676520,rev?*%
%TF.SameCoordinates,Original*%
%TF.FileFunction,Legend,Top*%
%TF.FilePolarity,Positive*%
%FSLAX46Y46*%
G04 Gerber Fmt 4.6, Leading zero omitted, Abs format (unit mm)*
G04 Created by KiCad (PCBNEW 7.0.9-7.0.9~ubuntu22.04.1) date 2023-12-29 16:16:38*
%MOMM*%
%LPD*%
G01*
G04 APERTURE LIST*
%ADD10C,0.150000*%
%ADD11C,0.125000*%
%ADD12C,0.180000*%
%ADD13C,0.175000*%
%ADD14C,0.010000*%
%ADD15C,0.120000*%
G04 APERTURE END LIST*
D10*
X131789684Y-115913295D02*
X131456350Y-115913295D01*
X131456350Y-115913295D02*
X131423017Y-116294247D01*
X131423017Y-116294247D02*
X131456350Y-116256152D01*
X131456350Y-116256152D02*
X131523017Y-116218057D01*
X131523017Y-116218057D02*
X131689684Y-116218057D01*
X131689684Y-116218057D02*
X131756350Y-116256152D01*
X131756350Y-116256152D02*
X131789684Y-116294247D01*
X131789684Y-116294247D02*
X131823017Y-116370438D01*
X131823017Y-116370438D02*
X131823017Y-116560914D01*
X131823017Y-116560914D02*
X131789684Y-116637104D01*
X131789684Y-116637104D02*
X131756350Y-116675200D01*
X131756350Y-116675200D02*
X131689684Y-116713295D01*
X131689684Y-116713295D02*
X131523017Y-116713295D01*
X131523017Y-116713295D02*
X131456350Y-116675200D01*
X131456350Y-116675200D02*
X131423017Y-116637104D01*
X132023017Y-115913295D02*
X132256351Y-116713295D01*
X132256351Y-116713295D02*
X132489684Y-115913295D01*
X156271472Y-82834036D02*
X156747662Y-82834036D01*
X156176234Y-83119751D02*
X156509567Y-82119751D01*
X156509567Y-82119751D02*
X156842900Y-83119751D01*
X157700043Y-83119751D02*
X157128615Y-83119751D01*
X157414329Y-83119751D02*
X157414329Y-82119751D01*
X157414329Y-82119751D02*
X157319091Y-82262608D01*
X157319091Y-82262608D02*
X157223853Y-82357846D01*
X157223853Y-82357846D02*
X157128615Y-82405465D01*
X158028099Y-103018999D02*
X158066194Y-102926142D01*
X158066194Y-102926142D02*
X158066194Y-102771380D01*
X158066194Y-102771380D02*
X158028099Y-102709475D01*
X158028099Y-102709475D02*
X157990003Y-102678523D01*
X157990003Y-102678523D02*
X157913813Y-102647570D01*
X157913813Y-102647570D02*
X157837622Y-102647570D01*
X157837622Y-102647570D02*
X157761432Y-102678523D01*
X157761432Y-102678523D02*
X157723337Y-102709475D01*
X157723337Y-102709475D02*
X157685241Y-102771380D01*
X157685241Y-102771380D02*
X157647146Y-102895189D01*
X157647146Y-102895189D02*
X157609051Y-102957094D01*
X157609051Y-102957094D02*
X157570956Y-102988047D01*
X157570956Y-102988047D02*
X157494765Y-103018999D01*
X157494765Y-103018999D02*
X157418575Y-103018999D01*
X157418575Y-103018999D02*
X157342384Y-102988047D01*
X157342384Y-102988047D02*
X157304289Y-102957094D01*
X157304289Y-102957094D02*
X157266194Y-102895189D01*
X157266194Y-102895189D02*
X157266194Y-102740428D01*
X157266194Y-102740428D02*
X157304289Y-102647570D01*
X157990003Y-101997570D02*
X158028099Y-102028522D01*
X158028099Y-102028522D02*
X158066194Y-102121380D01*
X158066194Y-102121380D02*
X158066194Y-102183284D01*
X158066194Y-102183284D02*
X158028099Y-102276141D01*
X158028099Y-102276141D02*
X157951908Y-102338046D01*
X157951908Y-102338046D02*
X157875718Y-102368999D01*
X157875718Y-102368999D02*
X157723337Y-102399951D01*
X157723337Y-102399951D02*
X157609051Y-102399951D01*
X157609051Y-102399951D02*
X157456670Y-102368999D01*
X157456670Y-102368999D02*
X157380479Y-102338046D01*
X157380479Y-102338046D02*
X157304289Y-102276141D01*
X157304289Y-102276141D02*
X157266194Y-102183284D01*
X157266194Y-102183284D02*
X157266194Y-102121380D01*
X157266194Y-102121380D02*
X157304289Y-102028522D01*
X157304289Y-102028522D02*
X157342384Y-101997570D01*
X158066194Y-101718999D02*
X157266194Y-101718999D01*
X158066194Y-101347570D02*
X157609051Y-101626141D01*
X157266194Y-101347570D02*
X157723337Y-101718999D01*
X158090320Y-104963501D02*
X157709367Y-105180168D01*
X158090320Y-105334930D02*
X157290320Y-105334930D01*
X157290320Y-105334930D02*
X157290320Y-105087311D01*
X157290320Y-105087311D02*
X157328415Y-105025406D01*
X157328415Y-105025406D02*
X157366510Y-104994453D01*
X157366510Y-104994453D02*
X157442701Y-104963501D01*
X157442701Y-104963501D02*
X157556986Y-104963501D01*
X157556986Y-104963501D02*
X157633177Y-104994453D01*
X157633177Y-104994453D02*
X157671272Y-105025406D01*
X157671272Y-105025406D02*
X157709367Y-105087311D01*
X157709367Y-105087311D02*
X157709367Y-105334930D01*
X158052225Y-104715882D02*
X158090320Y-104623025D01*
X158090320Y-104623025D02*
X158090320Y-104468263D01*
X158090320Y-104468263D02*
X158052225Y-104406358D01*
X158052225Y-104406358D02*
X158014129Y-104375406D01*
X158014129Y-104375406D02*
X157937939Y-104344453D01*
X157937939Y-104344453D02*
X157861748Y-104344453D01*
X157861748Y-104344453D02*
X157785558Y-104375406D01*
X157785558Y-104375406D02*
X157747463Y-104406358D01*
X157747463Y-104406358D02*
X157709367Y-104468263D01*
X157709367Y-104468263D02*
X157671272Y-104592072D01*
X157671272Y-104592072D02*
X157633177Y-104653977D01*
X157633177Y-104653977D02*
X157595082Y-104684930D01*
X157595082Y-104684930D02*
X157518891Y-104715882D01*
X157518891Y-104715882D02*
X157442701Y-104715882D01*
X157442701Y-104715882D02*
X157366510Y-104684930D01*
X157366510Y-104684930D02*
X157328415Y-104653977D01*
X157328415Y-104653977D02*
X157290320Y-104592072D01*
X157290320Y-104592072D02*
X157290320Y-104437311D01*
X157290320Y-104437311D02*
X157328415Y-104344453D01*
X157290320Y-104158739D02*
X157290320Y-103787310D01*
X158090320Y-103973024D02*
X157290320Y-103973024D01*
X164498896Y-101384758D02*
X165298896Y-101384758D01*
X165298896Y-101384758D02*
X164727468Y-101601425D01*
X164727468Y-101601425D02*
X165298896Y-101818092D01*
X165298896Y-101818092D02*
X164498896Y-101818092D01*
X165298896Y-102251425D02*
X165298896Y-102375234D01*
X165298896Y-102375234D02*
X165260801Y-102437139D01*
X165260801Y-102437139D02*
X165184611Y-102499044D01*
X165184611Y-102499044D02*
X165032230Y-102529996D01*
X165032230Y-102529996D02*
X164765563Y-102529996D01*
X164765563Y-102529996D02*
X164613182Y-102499044D01*
X164613182Y-102499044D02*
X164536992Y-102437139D01*
X164536992Y-102437139D02*
X164498896Y-102375234D01*
X164498896Y-102375234D02*
X164498896Y-102251425D01*
X164498896Y-102251425D02*
X164536992Y-102189520D01*
X164536992Y-102189520D02*
X164613182Y-102127615D01*
X164613182Y-102127615D02*
X164765563Y-102096663D01*
X164765563Y-102096663D02*
X165032230Y-102096663D01*
X165032230Y-102096663D02*
X165184611Y-102127615D01*
X165184611Y-102127615D02*
X165260801Y-102189520D01*
X165260801Y-102189520D02*
X165298896Y-102251425D01*
X164536992Y-102777615D02*
X164498896Y-102870472D01*
X164498896Y-102870472D02*
X164498896Y-103025234D01*
X164498896Y-103025234D02*
X164536992Y-103087139D01*
X164536992Y-103087139D02*
X164575087Y-103118091D01*
X164575087Y-103118091D02*
X164651277Y-103149044D01*
X164651277Y-103149044D02*
X164727468Y-103149044D01*
X164727468Y-103149044D02*
X164803658Y-103118091D01*
X164803658Y-103118091D02*
X164841753Y-103087139D01*
X164841753Y-103087139D02*
X164879849Y-103025234D01*
X164879849Y-103025234D02*
X164917944Y-102901425D01*
X164917944Y-102901425D02*
X164956039Y-102839520D01*
X164956039Y-102839520D02*
X164994134Y-102808567D01*
X164994134Y-102808567D02*
X165070325Y-102777615D01*
X165070325Y-102777615D02*
X165146515Y-102777615D01*
X165146515Y-102777615D02*
X165222706Y-102808567D01*
X165222706Y-102808567D02*
X165260801Y-102839520D01*
X165260801Y-102839520D02*
X165298896Y-102901425D01*
X165298896Y-102901425D02*
X165298896Y-103056186D01*
X165298896Y-103056186D02*
X165260801Y-103149044D01*
X164498896Y-103427615D02*
X165298896Y-103427615D01*
X157040864Y-98628861D02*
X157040864Y-99062194D01*
X157040864Y-99062194D02*
X156736102Y-98828861D01*
X156736102Y-98828861D02*
X156736102Y-98928861D01*
X156736102Y-98928861D02*
X156698007Y-98995527D01*
X156698007Y-98995527D02*
X156659912Y-99028861D01*
X156659912Y-99028861D02*
X156583721Y-99062194D01*
X156583721Y-99062194D02*
X156393245Y-99062194D01*
X156393245Y-99062194D02*
X156317055Y-99028861D01*
X156317055Y-99028861D02*
X156278960Y-98995527D01*
X156278960Y-98995527D02*
X156240864Y-98928861D01*
X156240864Y-98928861D02*
X156240864Y-98728861D01*
X156240864Y-98728861D02*
X156278960Y-98662194D01*
X156278960Y-98662194D02*
X156317055Y-98628861D01*
X156774198Y-99295528D02*
X156240864Y-99462194D01*
X156240864Y-99462194D02*
X156774198Y-99628861D01*
X157040864Y-99828861D02*
X157040864Y-100262194D01*
X157040864Y-100262194D02*
X156736102Y-100028861D01*
X156736102Y-100028861D02*
X156736102Y-100128861D01*
X156736102Y-100128861D02*
X156698007Y-100195527D01*
X156698007Y-100195527D02*
X156659912Y-100228861D01*
X156659912Y-100228861D02*
X156583721Y-100262194D01*
X156583721Y-100262194D02*
X156393245Y-100262194D01*
X156393245Y-100262194D02*
X156317055Y-100228861D01*
X156317055Y-100228861D02*
X156278960Y-100195527D01*
X156278960Y-100195527D02*
X156240864Y-100128861D01*
X156240864Y-100128861D02*
X156240864Y-99928861D01*
X156240864Y-99928861D02*
X156278960Y-99862194D01*
X156278960Y-99862194D02*
X156317055Y-99828861D01*
X135750234Y-103932136D02*
X135788329Y-103817850D01*
X135788329Y-103817850D02*
X135788329Y-103627374D01*
X135788329Y-103627374D02*
X135750234Y-103551183D01*
X135750234Y-103551183D02*
X135712138Y-103513088D01*
X135712138Y-103513088D02*
X135635948Y-103474993D01*
X135635948Y-103474993D02*
X135559757Y-103474993D01*
X135559757Y-103474993D02*
X135483567Y-103513088D01*
X135483567Y-103513088D02*
X135445472Y-103551183D01*
X135445472Y-103551183D02*
X135407376Y-103627374D01*
X135407376Y-103627374D02*
X135369281Y-103779755D01*
X135369281Y-103779755D02*
X135331186Y-103855945D01*
X135331186Y-103855945D02*
X135293091Y-103894040D01*
X135293091Y-103894040D02*
X135216900Y-103932136D01*
X135216900Y-103932136D02*
X135140710Y-103932136D01*
X135140710Y-103932136D02*
X135064519Y-103894040D01*
X135064519Y-103894040D02*
X135026424Y-103855945D01*
X135026424Y-103855945D02*
X134988329Y-103779755D01*
X134988329Y-103779755D02*
X134988329Y-103589278D01*
X134988329Y-103589278D02*
X135026424Y-103474993D01*
X135712138Y-102674992D02*
X135750234Y-102713088D01*
X135750234Y-102713088D02*
X135788329Y-102827373D01*
X135788329Y-102827373D02*
X135788329Y-102903564D01*
X135788329Y-102903564D02*
X135750234Y-103017850D01*
X135750234Y-103017850D02*
X135674043Y-103094040D01*
X135674043Y-103094040D02*
X135597853Y-103132135D01*
X135597853Y-103132135D02*
X135445472Y-103170231D01*
X135445472Y-103170231D02*
X135331186Y-103170231D01*
X135331186Y-103170231D02*
X135178805Y-103132135D01*
X135178805Y-103132135D02*
X135102614Y-103094040D01*
X135102614Y-103094040D02*
X135026424Y-103017850D01*
X135026424Y-103017850D02*
X134988329Y-102903564D01*
X134988329Y-102903564D02*
X134988329Y-102827373D01*
X134988329Y-102827373D02*
X135026424Y-102713088D01*
X135026424Y-102713088D02*
X135064519Y-102674992D01*
X135788329Y-101951183D02*
X135788329Y-102332135D01*
X135788329Y-102332135D02*
X134988329Y-102332135D01*
X155883542Y-74050936D02*
X156121637Y-74717603D01*
X156121637Y-74717603D02*
X156359732Y-74050936D01*
X157169256Y-74669984D02*
X157074018Y-74717603D01*
X157074018Y-74717603D02*
X156883542Y-74717603D01*
X156883542Y-74717603D02*
X156788304Y-74669984D01*
X156788304Y-74669984D02*
X156740685Y-74622364D01*
X156740685Y-74622364D02*
X156693066Y-74527126D01*
X156693066Y-74527126D02*
X156693066Y-74241412D01*
X156693066Y-74241412D02*
X156740685Y-74146174D01*
X156740685Y-74146174D02*
X156788304Y-74098555D01*
X156788304Y-74098555D02*
X156883542Y-74050936D01*
X156883542Y-74050936D02*
X157074018Y-74050936D01*
X157074018Y-74050936D02*
X157169256Y-74098555D01*
X158026399Y-74669984D02*
X157931161Y-74717603D01*
X157931161Y-74717603D02*
X157740685Y-74717603D01*
X157740685Y-74717603D02*
X157645447Y-74669984D01*
X157645447Y-74669984D02*
X157597828Y-74622364D01*
X157597828Y-74622364D02*
X157550209Y-74527126D01*
X157550209Y-74527126D02*
X157550209Y-74241412D01*
X157550209Y-74241412D02*
X157597828Y-74146174D01*
X157597828Y-74146174D02*
X157645447Y-74098555D01*
X157645447Y-74098555D02*
X157740685Y-74050936D01*
X157740685Y-74050936D02*
X157931161Y-74050936D01*
X157931161Y-74050936D02*
X158026399Y-74098555D01*
X155788304Y-75327603D02*
X156407351Y-75327603D01*
X156407351Y-75327603D02*
X156074018Y-75708555D01*
X156074018Y-75708555D02*
X156216875Y-75708555D01*
X156216875Y-75708555D02*
X156312113Y-75756174D01*
X156312113Y-75756174D02*
X156359732Y-75803793D01*
X156359732Y-75803793D02*
X156407351Y-75899031D01*
X156407351Y-75899031D02*
X156407351Y-76137126D01*
X156407351Y-76137126D02*
X156359732Y-76232364D01*
X156359732Y-76232364D02*
X156312113Y-76279984D01*
X156312113Y-76279984D02*
X156216875Y-76327603D01*
X156216875Y-76327603D02*
X155931161Y-76327603D01*
X155931161Y-76327603D02*
X155835923Y-76279984D01*
X155835923Y-76279984D02*
X155788304Y-76232364D01*
X156740685Y-75660936D02*
X156978780Y-76327603D01*
X156978780Y-76327603D02*
X157216875Y-75660936D01*
X157502590Y-75327603D02*
X158121637Y-75327603D01*
X158121637Y-75327603D02*
X157788304Y-75708555D01*
X157788304Y-75708555D02*
X157931161Y-75708555D01*
X157931161Y-75708555D02*
X158026399Y-75756174D01*
X158026399Y-75756174D02*
X158074018Y-75803793D01*
X158074018Y-75803793D02*
X158121637Y-75899031D01*
X158121637Y-75899031D02*
X158121637Y-76137126D01*
X158121637Y-76137126D02*
X158074018Y-76232364D01*
X158074018Y-76232364D02*
X158026399Y-76279984D01*
X158026399Y-76279984D02*
X157931161Y-76327603D01*
X157931161Y-76327603D02*
X157645447Y-76327603D01*
X157645447Y-76327603D02*
X157550209Y-76279984D01*
X157550209Y-76279984D02*
X157502590Y-76232364D01*
X156374734Y-73121097D02*
X156041401Y-72644906D01*
X155803306Y-73121097D02*
X155803306Y-72121097D01*
X155803306Y-72121097D02*
X156184258Y-72121097D01*
X156184258Y-72121097D02*
X156279496Y-72168716D01*
X156279496Y-72168716D02*
X156327115Y-72216335D01*
X156327115Y-72216335D02*
X156374734Y-72311573D01*
X156374734Y-72311573D02*
X156374734Y-72454430D01*
X156374734Y-72454430D02*
X156327115Y-72549668D01*
X156327115Y-72549668D02*
X156279496Y-72597287D01*
X156279496Y-72597287D02*
X156184258Y-72644906D01*
X156184258Y-72644906D02*
X155803306Y-72644906D01*
X156755687Y-73073478D02*
X156898544Y-73121097D01*
X156898544Y-73121097D02*
X157136639Y-73121097D01*
X157136639Y-73121097D02*
X157231877Y-73073478D01*
X157231877Y-73073478D02*
X157279496Y-73025858D01*
X157279496Y-73025858D02*
X157327115Y-72930620D01*
X157327115Y-72930620D02*
X157327115Y-72835382D01*
X157327115Y-72835382D02*
X157279496Y-72740144D01*
X157279496Y-72740144D02*
X157231877Y-72692525D01*
X157231877Y-72692525D02*
X157136639Y-72644906D01*
X157136639Y-72644906D02*
X156946163Y-72597287D01*
X156946163Y-72597287D02*
X156850925Y-72549668D01*
X156850925Y-72549668D02*
X156803306Y-72502049D01*
X156803306Y-72502049D02*
X156755687Y-72406811D01*
X156755687Y-72406811D02*
X156755687Y-72311573D01*
X156755687Y-72311573D02*
X156803306Y-72216335D01*
X156803306Y-72216335D02*
X156850925Y-72168716D01*
X156850925Y-72168716D02*
X156946163Y-72121097D01*
X156946163Y-72121097D02*
X157184258Y-72121097D01*
X157184258Y-72121097D02*
X157327115Y-72168716D01*
X157612830Y-72121097D02*
X158184258Y-72121097D01*
X157898544Y-73121097D02*
X157898544Y-72121097D01*
X143964980Y-88677476D02*
X144764980Y-88410809D01*
X144764980Y-88410809D02*
X143964980Y-88144143D01*
X144764980Y-86848905D02*
X144764980Y-87306048D01*
X144764980Y-87077476D02*
X143964980Y-87077476D01*
X143964980Y-87077476D02*
X144079265Y-87153667D01*
X144079265Y-87153667D02*
X144155456Y-87229857D01*
X144155456Y-87229857D02*
X144193551Y-87306048D01*
X144688789Y-86506047D02*
X144726885Y-86467952D01*
X144726885Y-86467952D02*
X144764980Y-86506047D01*
X144764980Y-86506047D02*
X144726885Y-86544143D01*
X144726885Y-86544143D02*
X144688789Y-86506047D01*
X144688789Y-86506047D02*
X144764980Y-86506047D01*
X143964980Y-85972714D02*
X143964980Y-85896524D01*
X143964980Y-85896524D02*
X144003075Y-85820333D01*
X144003075Y-85820333D02*
X144041170Y-85782238D01*
X144041170Y-85782238D02*
X144117361Y-85744143D01*
X144117361Y-85744143D02*
X144269742Y-85706048D01*
X144269742Y-85706048D02*
X144460218Y-85706048D01*
X144460218Y-85706048D02*
X144612599Y-85744143D01*
X144612599Y-85744143D02*
X144688789Y-85782238D01*
X144688789Y-85782238D02*
X144726885Y-85820333D01*
X144726885Y-85820333D02*
X144764980Y-85896524D01*
X144764980Y-85896524D02*
X144764980Y-85972714D01*
X144764980Y-85972714D02*
X144726885Y-86048905D01*
X144726885Y-86048905D02*
X144688789Y-86087000D01*
X144688789Y-86087000D02*
X144612599Y-86125095D01*
X144612599Y-86125095D02*
X144460218Y-86163191D01*
X144460218Y-86163191D02*
X144269742Y-86163191D01*
X144269742Y-86163191D02*
X144117361Y-86125095D01*
X144117361Y-86125095D02*
X144041170Y-86087000D01*
X144041170Y-86087000D02*
X144003075Y-86048905D01*
X144003075Y-86048905D02*
X143964980Y-85972714D01*
X144688789Y-85363190D02*
X144726885Y-85325095D01*
X144726885Y-85325095D02*
X144764980Y-85363190D01*
X144764980Y-85363190D02*
X144726885Y-85401286D01*
X144726885Y-85401286D02*
X144688789Y-85363190D01*
X144688789Y-85363190D02*
X144764980Y-85363190D01*
X144764980Y-84563191D02*
X144764980Y-85020334D01*
X144764980Y-84791762D02*
X143964980Y-84791762D01*
X143964980Y-84791762D02*
X144079265Y-84867953D01*
X144079265Y-84867953D02*
X144155456Y-84944143D01*
X144155456Y-84944143D02*
X144193551Y-85020334D01*
X157125837Y-116773237D02*
X157125837Y-115973237D01*
X157125837Y-115973237D02*
X157292504Y-115973237D01*
X157292504Y-115973237D02*
X157392504Y-116011332D01*
X157392504Y-116011332D02*
X157459171Y-116087522D01*
X157459171Y-116087522D02*
X157492504Y-116163713D01*
X157492504Y-116163713D02*
X157525837Y-116316094D01*
X157525837Y-116316094D02*
X157525837Y-116430380D01*
X157525837Y-116430380D02*
X157492504Y-116582761D01*
X157492504Y-116582761D02*
X157459171Y-116658951D01*
X157459171Y-116658951D02*
X157392504Y-116735142D01*
X157392504Y-116735142D02*
X157292504Y-116773237D01*
X157292504Y-116773237D02*
X157125837Y-116773237D01*
X157759171Y-115973237D02*
X158192504Y-115973237D01*
X158192504Y-115973237D02*
X157959171Y-116277999D01*
X157959171Y-116277999D02*
X158059171Y-116277999D01*
X158059171Y-116277999D02*
X158125837Y-116316094D01*
X158125837Y-116316094D02*
X158159171Y-116354189D01*
X158159171Y-116354189D02*
X158192504Y-116430380D01*
X158192504Y-116430380D02*
X158192504Y-116620856D01*
X158192504Y-116620856D02*
X158159171Y-116697046D01*
X158159171Y-116697046D02*
X158125837Y-116735142D01*
X158125837Y-116735142D02*
X158059171Y-116773237D01*
X158059171Y-116773237D02*
X157859171Y-116773237D01*
X157859171Y-116773237D02*
X157792504Y-116735142D01*
X157792504Y-116735142D02*
X157759171Y-116697046D01*
X135134625Y-109383167D02*
X135134625Y-108887929D01*
X135134625Y-108887929D02*
X135439387Y-109154595D01*
X135439387Y-109154595D02*
X135439387Y-109040310D01*
X135439387Y-109040310D02*
X135477482Y-108964119D01*
X135477482Y-108964119D02*
X135515577Y-108926024D01*
X135515577Y-108926024D02*
X135591768Y-108887929D01*
X135591768Y-108887929D02*
X135782244Y-108887929D01*
X135782244Y-108887929D02*
X135858434Y-108926024D01*
X135858434Y-108926024D02*
X135896530Y-108964119D01*
X135896530Y-108964119D02*
X135934625Y-109040310D01*
X135934625Y-109040310D02*
X135934625Y-109268881D01*
X135934625Y-109268881D02*
X135896530Y-109345072D01*
X135896530Y-109345072D02*
X135858434Y-109383167D01*
X135401291Y-108621262D02*
X135934625Y-108430786D01*
X135934625Y-108430786D02*
X135401291Y-108240309D01*
X135134625Y-108011738D02*
X135134625Y-107516500D01*
X135134625Y-107516500D02*
X135439387Y-107783166D01*
X135439387Y-107783166D02*
X135439387Y-107668881D01*
X135439387Y-107668881D02*
X135477482Y-107592690D01*
X135477482Y-107592690D02*
X135515577Y-107554595D01*
X135515577Y-107554595D02*
X135591768Y-107516500D01*
X135591768Y-107516500D02*
X135782244Y-107516500D01*
X135782244Y-107516500D02*
X135858434Y-107554595D01*
X135858434Y-107554595D02*
X135896530Y-107592690D01*
X135896530Y-107592690D02*
X135934625Y-107668881D01*
X135934625Y-107668881D02*
X135934625Y-107897452D01*
X135934625Y-107897452D02*
X135896530Y-107973643D01*
X135896530Y-107973643D02*
X135858434Y-108011738D01*
X156652477Y-88257769D02*
X156081049Y-88257769D01*
X156366763Y-88257769D02*
X156366763Y-87257769D01*
X156366763Y-87257769D02*
X156271525Y-87400626D01*
X156271525Y-87400626D02*
X156176287Y-87495864D01*
X156176287Y-87495864D02*
X156081049Y-87543483D01*
X156985811Y-87257769D02*
X157604858Y-87257769D01*
X157604858Y-87257769D02*
X157271525Y-87638721D01*
X157271525Y-87638721D02*
X157414382Y-87638721D01*
X157414382Y-87638721D02*
X157509620Y-87686340D01*
X157509620Y-87686340D02*
X157557239Y-87733959D01*
X157557239Y-87733959D02*
X157604858Y-87829197D01*
X157604858Y-87829197D02*
X157604858Y-88067292D01*
X157604858Y-88067292D02*
X157557239Y-88162530D01*
X157557239Y-88162530D02*
X157509620Y-88210150D01*
X157509620Y-88210150D02*
X157414382Y-88257769D01*
X157414382Y-88257769D02*
X157128668Y-88257769D01*
X157128668Y-88257769D02*
X157033430Y-88210150D01*
X157033430Y-88210150D02*
X156985811Y-88162530D01*
X134740747Y-79753791D02*
X135359794Y-79753791D01*
X135359794Y-79753791D02*
X135026461Y-80134743D01*
X135026461Y-80134743D02*
X135169318Y-80134743D01*
X135169318Y-80134743D02*
X135264556Y-80182362D01*
X135264556Y-80182362D02*
X135312175Y-80229981D01*
X135312175Y-80229981D02*
X135359794Y-80325219D01*
X135359794Y-80325219D02*
X135359794Y-80563314D01*
X135359794Y-80563314D02*
X135312175Y-80658552D01*
X135312175Y-80658552D02*
X135264556Y-80706172D01*
X135264556Y-80706172D02*
X135169318Y-80753791D01*
X135169318Y-80753791D02*
X134883604Y-80753791D01*
X134883604Y-80753791D02*
X134788366Y-80706172D01*
X134788366Y-80706172D02*
X134740747Y-80658552D01*
X134984288Y-73084306D02*
X134650955Y-72608115D01*
X134412860Y-73084306D02*
X134412860Y-72084306D01*
X134412860Y-72084306D02*
X134793812Y-72084306D01*
X134793812Y-72084306D02*
X134889050Y-72131925D01*
X134889050Y-72131925D02*
X134936669Y-72179544D01*
X134936669Y-72179544D02*
X134984288Y-72274782D01*
X134984288Y-72274782D02*
X134984288Y-72417639D01*
X134984288Y-72417639D02*
X134936669Y-72512877D01*
X134936669Y-72512877D02*
X134889050Y-72560496D01*
X134889050Y-72560496D02*
X134793812Y-72608115D01*
X134793812Y-72608115D02*
X134412860Y-72608115D01*
X135365241Y-73036687D02*
X135508098Y-73084306D01*
X135508098Y-73084306D02*
X135746193Y-73084306D01*
X135746193Y-73084306D02*
X135841431Y-73036687D01*
X135841431Y-73036687D02*
X135889050Y-72989067D01*
X135889050Y-72989067D02*
X135936669Y-72893829D01*
X135936669Y-72893829D02*
X135936669Y-72798591D01*
X135936669Y-72798591D02*
X135889050Y-72703353D01*
X135889050Y-72703353D02*
X135841431Y-72655734D01*
X135841431Y-72655734D02*
X135746193Y-72608115D01*
X135746193Y-72608115D02*
X135555717Y-72560496D01*
X135555717Y-72560496D02*
X135460479Y-72512877D01*
X135460479Y-72512877D02*
X135412860Y-72465258D01*
X135412860Y-72465258D02*
X135365241Y-72370020D01*
X135365241Y-72370020D02*
X135365241Y-72274782D01*
X135365241Y-72274782D02*
X135412860Y-72179544D01*
X135412860Y-72179544D02*
X135460479Y-72131925D01*
X135460479Y-72131925D02*
X135555717Y-72084306D01*
X135555717Y-72084306D02*
X135793812Y-72084306D01*
X135793812Y-72084306D02*
X135936669Y-72131925D01*
X136222384Y-72084306D02*
X136793812Y-72084306D01*
X136508098Y-73084306D02*
X136508098Y-72084306D01*
X156234109Y-101183258D02*
X157034109Y-101183258D01*
X157034109Y-101183258D02*
X156462681Y-101399925D01*
X156462681Y-101399925D02*
X157034109Y-101616592D01*
X157034109Y-101616592D02*
X156234109Y-101616592D01*
X157034109Y-102049925D02*
X157034109Y-102173734D01*
X157034109Y-102173734D02*
X156996014Y-102235639D01*
X156996014Y-102235639D02*
X156919824Y-102297544D01*
X156919824Y-102297544D02*
X156767443Y-102328496D01*
X156767443Y-102328496D02*
X156500776Y-102328496D01*
X156500776Y-102328496D02*
X156348395Y-102297544D01*
X156348395Y-102297544D02*
X156272205Y-102235639D01*
X156272205Y-102235639D02*
X156234109Y-102173734D01*
X156234109Y-102173734D02*
X156234109Y-102049925D01*
X156234109Y-102049925D02*
X156272205Y-101988020D01*
X156272205Y-101988020D02*
X156348395Y-101926115D01*
X156348395Y-101926115D02*
X156500776Y-101895163D01*
X156500776Y-101895163D02*
X156767443Y-101895163D01*
X156767443Y-101895163D02*
X156919824Y-101926115D01*
X156919824Y-101926115D02*
X156996014Y-101988020D01*
X156996014Y-101988020D02*
X157034109Y-102049925D01*
X156272205Y-102576115D02*
X156234109Y-102668972D01*
X156234109Y-102668972D02*
X156234109Y-102823734D01*
X156234109Y-102823734D02*
X156272205Y-102885639D01*
X156272205Y-102885639D02*
X156310300Y-102916591D01*
X156310300Y-102916591D02*
X156386490Y-102947544D01*
X156386490Y-102947544D02*
X156462681Y-102947544D01*
X156462681Y-102947544D02*
X156538871Y-102916591D01*
X156538871Y-102916591D02*
X156576966Y-102885639D01*
X156576966Y-102885639D02*
X156615062Y-102823734D01*
X156615062Y-102823734D02*
X156653157Y-102699925D01*
X156653157Y-102699925D02*
X156691252Y-102638020D01*
X156691252Y-102638020D02*
X156729347Y-102607067D01*
X156729347Y-102607067D02*
X156805538Y-102576115D01*
X156805538Y-102576115D02*
X156881728Y-102576115D01*
X156881728Y-102576115D02*
X156957919Y-102607067D01*
X156957919Y-102607067D02*
X156996014Y-102638020D01*
X156996014Y-102638020D02*
X157034109Y-102699925D01*
X157034109Y-102699925D02*
X157034109Y-102854686D01*
X157034109Y-102854686D02*
X156996014Y-102947544D01*
X156234109Y-103226115D02*
X157034109Y-103226115D01*
D11*
X141490762Y-116039690D02*
X141428857Y-116001595D01*
X141428857Y-116001595D02*
X141336000Y-116001595D01*
X141336000Y-116001595D02*
X141243143Y-116039690D01*
X141243143Y-116039690D02*
X141181238Y-116115880D01*
X141181238Y-116115880D02*
X141150285Y-116192071D01*
X141150285Y-116192071D02*
X141119333Y-116344452D01*
X141119333Y-116344452D02*
X141119333Y-116458738D01*
X141119333Y-116458738D02*
X141150285Y-116611119D01*
X141150285Y-116611119D02*
X141181238Y-116687309D01*
X141181238Y-116687309D02*
X141243143Y-116763500D01*
X141243143Y-116763500D02*
X141336000Y-116801595D01*
X141336000Y-116801595D02*
X141397904Y-116801595D01*
X141397904Y-116801595D02*
X141490762Y-116763500D01*
X141490762Y-116763500D02*
X141521714Y-116725404D01*
X141521714Y-116725404D02*
X141521714Y-116458738D01*
X141521714Y-116458738D02*
X141397904Y-116458738D01*
X141800285Y-116801595D02*
X141800285Y-116001595D01*
X141800285Y-116001595D02*
X142171714Y-116801595D01*
X142171714Y-116801595D02*
X142171714Y-116001595D01*
X142481237Y-116801595D02*
X142481237Y-116001595D01*
X142481237Y-116001595D02*
X142635999Y-116001595D01*
X142635999Y-116001595D02*
X142728856Y-116039690D01*
X142728856Y-116039690D02*
X142790761Y-116115880D01*
X142790761Y-116115880D02*
X142821714Y-116192071D01*
X142821714Y-116192071D02*
X142852666Y-116344452D01*
X142852666Y-116344452D02*
X142852666Y-116458738D01*
X142852666Y-116458738D02*
X142821714Y-116611119D01*
X142821714Y-116611119D02*
X142790761Y-116687309D01*
X142790761Y-116687309D02*
X142728856Y-116763500D01*
X142728856Y-116763500D02*
X142635999Y-116801595D01*
X142635999Y-116801595D02*
X142481237Y-116801595D01*
D10*
X135010671Y-70479121D02*
X134677338Y-70002930D01*
X134439243Y-70479121D02*
X134439243Y-69479121D01*
X134439243Y-69479121D02*
X134820195Y-69479121D01*
X134820195Y-69479121D02*
X134915433Y-69526740D01*
X134915433Y-69526740D02*
X134963052Y-69574359D01*
X134963052Y-69574359D02*
X135010671Y-69669597D01*
X135010671Y-69669597D02*
X135010671Y-69812454D01*
X135010671Y-69812454D02*
X134963052Y-69907692D01*
X134963052Y-69907692D02*
X134915433Y-69955311D01*
X134915433Y-69955311D02*
X134820195Y-70002930D01*
X134820195Y-70002930D02*
X134439243Y-70002930D01*
X135344005Y-69479121D02*
X136010671Y-70479121D01*
X136010671Y-69479121D02*
X135344005Y-70479121D01*
X135002041Y-106352140D02*
X134963946Y-106428330D01*
X134963946Y-106428330D02*
X134963946Y-106542616D01*
X134963946Y-106542616D02*
X135002041Y-106656902D01*
X135002041Y-106656902D02*
X135078231Y-106733092D01*
X135078231Y-106733092D02*
X135154422Y-106771187D01*
X135154422Y-106771187D02*
X135306803Y-106809283D01*
X135306803Y-106809283D02*
X135421089Y-106809283D01*
X135421089Y-106809283D02*
X135573470Y-106771187D01*
X135573470Y-106771187D02*
X135649660Y-106733092D01*
X135649660Y-106733092D02*
X135725851Y-106656902D01*
X135725851Y-106656902D02*
X135763946Y-106542616D01*
X135763946Y-106542616D02*
X135763946Y-106466425D01*
X135763946Y-106466425D02*
X135725851Y-106352140D01*
X135725851Y-106352140D02*
X135687755Y-106314044D01*
X135687755Y-106314044D02*
X135421089Y-106314044D01*
X135421089Y-106314044D02*
X135421089Y-106466425D01*
X135763946Y-105971187D02*
X134963946Y-105971187D01*
X134963946Y-105971187D02*
X135763946Y-105514044D01*
X135763946Y-105514044D02*
X134963946Y-105514044D01*
X135763946Y-105133092D02*
X134963946Y-105133092D01*
X134963946Y-105133092D02*
X134963946Y-104942616D01*
X134963946Y-104942616D02*
X135002041Y-104828330D01*
X135002041Y-104828330D02*
X135078231Y-104752140D01*
X135078231Y-104752140D02*
X135154422Y-104714045D01*
X135154422Y-104714045D02*
X135306803Y-104675949D01*
X135306803Y-104675949D02*
X135421089Y-104675949D01*
X135421089Y-104675949D02*
X135573470Y-104714045D01*
X135573470Y-104714045D02*
X135649660Y-104752140D01*
X135649660Y-104752140D02*
X135725851Y-104828330D01*
X135725851Y-104828330D02*
X135763946Y-104942616D01*
X135763946Y-104942616D02*
X135763946Y-105133092D01*
D11*
X146890629Y-116393317D02*
X146983486Y-116431412D01*
X146983486Y-116431412D02*
X147014439Y-116469508D01*
X147014439Y-116469508D02*
X147045391Y-116545698D01*
X147045391Y-116545698D02*
X147045391Y-116659984D01*
X147045391Y-116659984D02*
X147014439Y-116736174D01*
X147014439Y-116736174D02*
X146983486Y-116774270D01*
X146983486Y-116774270D02*
X146921581Y-116812365D01*
X146921581Y-116812365D02*
X146673962Y-116812365D01*
X146673962Y-116812365D02*
X146673962Y-116012365D01*
X146673962Y-116012365D02*
X146890629Y-116012365D01*
X146890629Y-116012365D02*
X146952534Y-116050460D01*
X146952534Y-116050460D02*
X146983486Y-116088555D01*
X146983486Y-116088555D02*
X147014439Y-116164746D01*
X147014439Y-116164746D02*
X147014439Y-116240936D01*
X147014439Y-116240936D02*
X146983486Y-116317127D01*
X146983486Y-116317127D02*
X146952534Y-116355222D01*
X146952534Y-116355222D02*
X146890629Y-116393317D01*
X146890629Y-116393317D02*
X146673962Y-116393317D01*
X147293010Y-116583793D02*
X147602534Y-116583793D01*
X147231105Y-116812365D02*
X147447772Y-116012365D01*
X147447772Y-116012365D02*
X147664439Y-116812365D01*
X147788248Y-116012365D02*
X148159677Y-116012365D01*
X147973963Y-116812365D02*
X147973963Y-116012365D01*
D10*
X165323021Y-98640579D02*
X165323021Y-99073912D01*
X165323021Y-99073912D02*
X165018259Y-98840579D01*
X165018259Y-98840579D02*
X165018259Y-98940579D01*
X165018259Y-98940579D02*
X164980164Y-99007245D01*
X164980164Y-99007245D02*
X164942069Y-99040579D01*
X164942069Y-99040579D02*
X164865878Y-99073912D01*
X164865878Y-99073912D02*
X164675402Y-99073912D01*
X164675402Y-99073912D02*
X164599212Y-99040579D01*
X164599212Y-99040579D02*
X164561117Y-99007245D01*
X164561117Y-99007245D02*
X164523021Y-98940579D01*
X164523021Y-98940579D02*
X164523021Y-98740579D01*
X164523021Y-98740579D02*
X164561117Y-98673912D01*
X164561117Y-98673912D02*
X164599212Y-98640579D01*
X165056355Y-99307246D02*
X164523021Y-99473912D01*
X164523021Y-99473912D02*
X165056355Y-99640579D01*
X165323021Y-99840579D02*
X165323021Y-100273912D01*
X165323021Y-100273912D02*
X165018259Y-100040579D01*
X165018259Y-100040579D02*
X165018259Y-100140579D01*
X165018259Y-100140579D02*
X164980164Y-100207245D01*
X164980164Y-100207245D02*
X164942069Y-100240579D01*
X164942069Y-100240579D02*
X164865878Y-100273912D01*
X164865878Y-100273912D02*
X164675402Y-100273912D01*
X164675402Y-100273912D02*
X164599212Y-100240579D01*
X164599212Y-100240579D02*
X164561117Y-100207245D01*
X164561117Y-100207245D02*
X164523021Y-100140579D01*
X164523021Y-100140579D02*
X164523021Y-99940579D01*
X164523021Y-99940579D02*
X164561117Y-99873912D01*
X164561117Y-99873912D02*
X164599212Y-99840579D01*
X158083074Y-100315565D02*
X157283074Y-100315565D01*
X157283074Y-100315565D02*
X157854502Y-100098898D01*
X157854502Y-100098898D02*
X157283074Y-99882231D01*
X157283074Y-99882231D02*
X158083074Y-99882231D01*
X158083074Y-99572708D02*
X157283074Y-99572708D01*
X158044979Y-99294136D02*
X158083074Y-99201279D01*
X158083074Y-99201279D02*
X158083074Y-99046517D01*
X158083074Y-99046517D02*
X158044979Y-98984612D01*
X158044979Y-98984612D02*
X158006883Y-98953660D01*
X158006883Y-98953660D02*
X157930693Y-98922707D01*
X157930693Y-98922707D02*
X157854502Y-98922707D01*
X157854502Y-98922707D02*
X157778312Y-98953660D01*
X157778312Y-98953660D02*
X157740217Y-98984612D01*
X157740217Y-98984612D02*
X157702121Y-99046517D01*
X157702121Y-99046517D02*
X157664026Y-99170326D01*
X157664026Y-99170326D02*
X157625931Y-99232231D01*
X157625931Y-99232231D02*
X157587836Y-99263184D01*
X157587836Y-99263184D02*
X157511645Y-99294136D01*
X157511645Y-99294136D02*
X157435455Y-99294136D01*
X157435455Y-99294136D02*
X157359264Y-99263184D01*
X157359264Y-99263184D02*
X157321169Y-99232231D01*
X157321169Y-99232231D02*
X157283074Y-99170326D01*
X157283074Y-99170326D02*
X157283074Y-99015565D01*
X157283074Y-99015565D02*
X157321169Y-98922707D01*
X157283074Y-98520326D02*
X157283074Y-98396517D01*
X157283074Y-98396517D02*
X157321169Y-98334612D01*
X157321169Y-98334612D02*
X157397359Y-98272707D01*
X157397359Y-98272707D02*
X157549740Y-98241755D01*
X157549740Y-98241755D02*
X157816407Y-98241755D01*
X157816407Y-98241755D02*
X157968788Y-98272707D01*
X157968788Y-98272707D02*
X158044979Y-98334612D01*
X158044979Y-98334612D02*
X158083074Y-98396517D01*
X158083074Y-98396517D02*
X158083074Y-98520326D01*
X158083074Y-98520326D02*
X158044979Y-98582231D01*
X158044979Y-98582231D02*
X157968788Y-98644136D01*
X157968788Y-98644136D02*
X157816407Y-98675088D01*
X157816407Y-98675088D02*
X157549740Y-98675088D01*
X157549740Y-98675088D02*
X157397359Y-98644136D01*
X157397359Y-98644136D02*
X157321169Y-98582231D01*
X157321169Y-98582231D02*
X157283074Y-98520326D01*
X159907435Y-109152217D02*
X159907435Y-109533169D01*
X159907435Y-109533169D02*
X160288387Y-109571265D01*
X160288387Y-109571265D02*
X160250292Y-109533169D01*
X160250292Y-109533169D02*
X160212197Y-109456979D01*
X160212197Y-109456979D02*
X160212197Y-109266503D01*
X160212197Y-109266503D02*
X160250292Y-109190312D01*
X160250292Y-109190312D02*
X160288387Y-109152217D01*
X160288387Y-109152217D02*
X160364578Y-109114122D01*
X160364578Y-109114122D02*
X160555054Y-109114122D01*
X160555054Y-109114122D02*
X160631244Y-109152217D01*
X160631244Y-109152217D02*
X160669340Y-109190312D01*
X160669340Y-109190312D02*
X160707435Y-109266503D01*
X160707435Y-109266503D02*
X160707435Y-109456979D01*
X160707435Y-109456979D02*
X160669340Y-109533169D01*
X160669340Y-109533169D02*
X160631244Y-109571265D01*
X159907435Y-108885550D02*
X160707435Y-108618883D01*
X160707435Y-108618883D02*
X159907435Y-108352217D01*
X156256597Y-80455433D02*
X156732787Y-80455433D01*
X156161359Y-80741148D02*
X156494692Y-79741148D01*
X156494692Y-79741148D02*
X156828025Y-80741148D01*
X157113740Y-79836386D02*
X157161359Y-79788767D01*
X157161359Y-79788767D02*
X157256597Y-79741148D01*
X157256597Y-79741148D02*
X157494692Y-79741148D01*
X157494692Y-79741148D02*
X157589930Y-79788767D01*
X157589930Y-79788767D02*
X157637549Y-79836386D01*
X157637549Y-79836386D02*
X157685168Y-79931624D01*
X157685168Y-79931624D02*
X157685168Y-80026862D01*
X157685168Y-80026862D02*
X157637549Y-80169719D01*
X157637549Y-80169719D02*
X157066121Y-80741148D01*
X157066121Y-80741148D02*
X157685168Y-80741148D01*
X156097033Y-78271060D02*
X156097033Y-77271060D01*
X156097033Y-77271060D02*
X156668461Y-78271060D01*
X156668461Y-78271060D02*
X156668461Y-77271060D01*
X157716080Y-78175821D02*
X157668461Y-78223441D01*
X157668461Y-78223441D02*
X157525604Y-78271060D01*
X157525604Y-78271060D02*
X157430366Y-78271060D01*
X157430366Y-78271060D02*
X157287509Y-78223441D01*
X157287509Y-78223441D02*
X157192271Y-78128202D01*
X157192271Y-78128202D02*
X157144652Y-78032964D01*
X157144652Y-78032964D02*
X157097033Y-77842488D01*
X157097033Y-77842488D02*
X157097033Y-77699631D01*
X157097033Y-77699631D02*
X157144652Y-77509155D01*
X157144652Y-77509155D02*
X157192271Y-77413917D01*
X157192271Y-77413917D02*
X157287509Y-77318679D01*
X157287509Y-77318679D02*
X157430366Y-77271060D01*
X157430366Y-77271060D02*
X157525604Y-77271060D01*
X157525604Y-77271060D02*
X157668461Y-77318679D01*
X157668461Y-77318679D02*
X157716080Y-77366298D01*
X149741594Y-100348181D02*
X148941594Y-100348181D01*
X148941594Y-100348181D02*
X149513022Y-100131514D01*
X149513022Y-100131514D02*
X148941594Y-99914847D01*
X148941594Y-99914847D02*
X149741594Y-99914847D01*
X149741594Y-99605324D02*
X148941594Y-99605324D01*
X149703499Y-99326752D02*
X149741594Y-99233895D01*
X149741594Y-99233895D02*
X149741594Y-99079133D01*
X149741594Y-99079133D02*
X149703499Y-99017228D01*
X149703499Y-99017228D02*
X149665403Y-98986276D01*
X149665403Y-98986276D02*
X149589213Y-98955323D01*
X149589213Y-98955323D02*
X149513022Y-98955323D01*
X149513022Y-98955323D02*
X149436832Y-98986276D01*
X149436832Y-98986276D02*
X149398737Y-99017228D01*
X149398737Y-99017228D02*
X149360641Y-99079133D01*
X149360641Y-99079133D02*
X149322546Y-99202942D01*
X149322546Y-99202942D02*
X149284451Y-99264847D01*
X149284451Y-99264847D02*
X149246356Y-99295800D01*
X149246356Y-99295800D02*
X149170165Y-99326752D01*
X149170165Y-99326752D02*
X149093975Y-99326752D01*
X149093975Y-99326752D02*
X149017784Y-99295800D01*
X149017784Y-99295800D02*
X148979689Y-99264847D01*
X148979689Y-99264847D02*
X148941594Y-99202942D01*
X148941594Y-99202942D02*
X148941594Y-99048181D01*
X148941594Y-99048181D02*
X148979689Y-98955323D01*
X148941594Y-98552942D02*
X148941594Y-98429133D01*
X148941594Y-98429133D02*
X148979689Y-98367228D01*
X148979689Y-98367228D02*
X149055879Y-98305323D01*
X149055879Y-98305323D02*
X149208260Y-98274371D01*
X149208260Y-98274371D02*
X149474927Y-98274371D01*
X149474927Y-98274371D02*
X149627308Y-98305323D01*
X149627308Y-98305323D02*
X149703499Y-98367228D01*
X149703499Y-98367228D02*
X149741594Y-98429133D01*
X149741594Y-98429133D02*
X149741594Y-98552942D01*
X149741594Y-98552942D02*
X149703499Y-98614847D01*
X149703499Y-98614847D02*
X149627308Y-98676752D01*
X149627308Y-98676752D02*
X149474927Y-98707704D01*
X149474927Y-98707704D02*
X149208260Y-98707704D01*
X149208260Y-98707704D02*
X149055879Y-98676752D01*
X149055879Y-98676752D02*
X148979689Y-98614847D01*
X148979689Y-98614847D02*
X148941594Y-98552942D01*
X160692190Y-114591081D02*
X159892190Y-114591081D01*
X159892190Y-114591081D02*
X159892190Y-114400605D01*
X159892190Y-114400605D02*
X159930285Y-114286319D01*
X159930285Y-114286319D02*
X160006475Y-114210129D01*
X160006475Y-114210129D02*
X160082666Y-114172034D01*
X160082666Y-114172034D02*
X160235047Y-114133938D01*
X160235047Y-114133938D02*
X160349333Y-114133938D01*
X160349333Y-114133938D02*
X160501714Y-114172034D01*
X160501714Y-114172034D02*
X160577904Y-114210129D01*
X160577904Y-114210129D02*
X160654095Y-114286319D01*
X160654095Y-114286319D02*
X160692190Y-114400605D01*
X160692190Y-114400605D02*
X160692190Y-114591081D01*
X160692190Y-113372034D02*
X160692190Y-113829177D01*
X160692190Y-113600605D02*
X159892190Y-113600605D01*
X159892190Y-113600605D02*
X160006475Y-113676796D01*
X160006475Y-113676796D02*
X160082666Y-113752986D01*
X160082666Y-113752986D02*
X160120761Y-113829177D01*
X135318476Y-87190819D02*
X135128000Y-87190819D01*
X135128000Y-87190819D02*
X135032762Y-87238438D01*
X135032762Y-87238438D02*
X134985143Y-87286057D01*
X134985143Y-87286057D02*
X134889905Y-87428914D01*
X134889905Y-87428914D02*
X134842286Y-87619390D01*
X134842286Y-87619390D02*
X134842286Y-88000342D01*
X134842286Y-88000342D02*
X134889905Y-88095580D01*
X134889905Y-88095580D02*
X134937524Y-88143200D01*
X134937524Y-88143200D02*
X135032762Y-88190819D01*
X135032762Y-88190819D02*
X135223238Y-88190819D01*
X135223238Y-88190819D02*
X135318476Y-88143200D01*
X135318476Y-88143200D02*
X135366095Y-88095580D01*
X135366095Y-88095580D02*
X135413714Y-88000342D01*
X135413714Y-88000342D02*
X135413714Y-87762247D01*
X135413714Y-87762247D02*
X135366095Y-87667009D01*
X135366095Y-87667009D02*
X135318476Y-87619390D01*
X135318476Y-87619390D02*
X135223238Y-87571771D01*
X135223238Y-87571771D02*
X135032762Y-87571771D01*
X135032762Y-87571771D02*
X134937524Y-87619390D01*
X134937524Y-87619390D02*
X134889905Y-87667009D01*
X134889905Y-87667009D02*
X134842286Y-87762247D01*
X156984352Y-104224662D02*
X157022447Y-104162757D01*
X157022447Y-104162757D02*
X157022447Y-104069900D01*
X157022447Y-104069900D02*
X156984352Y-103977043D01*
X156984352Y-103977043D02*
X156908162Y-103915138D01*
X156908162Y-103915138D02*
X156831971Y-103884185D01*
X156831971Y-103884185D02*
X156679590Y-103853233D01*
X156679590Y-103853233D02*
X156565304Y-103853233D01*
X156565304Y-103853233D02*
X156412923Y-103884185D01*
X156412923Y-103884185D02*
X156336733Y-103915138D01*
X156336733Y-103915138D02*
X156260543Y-103977043D01*
X156260543Y-103977043D02*
X156222447Y-104069900D01*
X156222447Y-104069900D02*
X156222447Y-104131804D01*
X156222447Y-104131804D02*
X156260543Y-104224662D01*
X156260543Y-104224662D02*
X156298638Y-104255614D01*
X156298638Y-104255614D02*
X156565304Y-104255614D01*
X156565304Y-104255614D02*
X156565304Y-104131804D01*
X156222447Y-104534185D02*
X157022447Y-104534185D01*
X157022447Y-104534185D02*
X156222447Y-104905614D01*
X156222447Y-104905614D02*
X157022447Y-104905614D01*
X156222447Y-105215137D02*
X157022447Y-105215137D01*
X157022447Y-105215137D02*
X157022447Y-105369899D01*
X157022447Y-105369899D02*
X156984352Y-105462756D01*
X156984352Y-105462756D02*
X156908162Y-105524661D01*
X156908162Y-105524661D02*
X156831971Y-105555614D01*
X156831971Y-105555614D02*
X156679590Y-105586566D01*
X156679590Y-105586566D02*
X156565304Y-105586566D01*
X156565304Y-105586566D02*
X156412923Y-105555614D01*
X156412923Y-105555614D02*
X156336733Y-105524661D01*
X156336733Y-105524661D02*
X156260543Y-105462756D01*
X156260543Y-105462756D02*
X156222447Y-105369899D01*
X156222447Y-105369899D02*
X156222447Y-105215137D01*
X134873980Y-74832358D02*
X134778742Y-74784739D01*
X134778742Y-74784739D02*
X134635885Y-74784739D01*
X134635885Y-74784739D02*
X134493028Y-74832358D01*
X134493028Y-74832358D02*
X134397790Y-74927596D01*
X134397790Y-74927596D02*
X134350171Y-75022834D01*
X134350171Y-75022834D02*
X134302552Y-75213310D01*
X134302552Y-75213310D02*
X134302552Y-75356167D01*
X134302552Y-75356167D02*
X134350171Y-75546643D01*
X134350171Y-75546643D02*
X134397790Y-75641881D01*
X134397790Y-75641881D02*
X134493028Y-75737120D01*
X134493028Y-75737120D02*
X134635885Y-75784739D01*
X134635885Y-75784739D02*
X134731123Y-75784739D01*
X134731123Y-75784739D02*
X134873980Y-75737120D01*
X134873980Y-75737120D02*
X134921599Y-75689500D01*
X134921599Y-75689500D02*
X134921599Y-75356167D01*
X134921599Y-75356167D02*
X134731123Y-75356167D01*
X135350171Y-75784739D02*
X135350171Y-74784739D01*
X135350171Y-74784739D02*
X135921599Y-75784739D01*
X135921599Y-75784739D02*
X135921599Y-74784739D01*
X136397790Y-75784739D02*
X136397790Y-74784739D01*
X136397790Y-74784739D02*
X136635885Y-74784739D01*
X136635885Y-74784739D02*
X136778742Y-74832358D01*
X136778742Y-74832358D02*
X136873980Y-74927596D01*
X136873980Y-74927596D02*
X136921599Y-75022834D01*
X136921599Y-75022834D02*
X136969218Y-75213310D01*
X136969218Y-75213310D02*
X136969218Y-75356167D01*
X136969218Y-75356167D02*
X136921599Y-75546643D01*
X136921599Y-75546643D02*
X136873980Y-75641881D01*
X136873980Y-75641881D02*
X136778742Y-75737120D01*
X136778742Y-75737120D02*
X136635885Y-75784739D01*
X136635885Y-75784739D02*
X136397790Y-75784739D01*
X156211970Y-85318244D02*
X156688160Y-85318244D01*
X156116732Y-85603959D02*
X156450065Y-84603959D01*
X156450065Y-84603959D02*
X156783398Y-85603959D01*
X157307208Y-84603959D02*
X157402446Y-84603959D01*
X157402446Y-84603959D02*
X157497684Y-84651578D01*
X157497684Y-84651578D02*
X157545303Y-84699197D01*
X157545303Y-84699197D02*
X157592922Y-84794435D01*
X157592922Y-84794435D02*
X157640541Y-84984911D01*
X157640541Y-84984911D02*
X157640541Y-85223006D01*
X157640541Y-85223006D02*
X157592922Y-85413482D01*
X157592922Y-85413482D02*
X157545303Y-85508720D01*
X157545303Y-85508720D02*
X157497684Y-85556340D01*
X157497684Y-85556340D02*
X157402446Y-85603959D01*
X157402446Y-85603959D02*
X157307208Y-85603959D01*
X157307208Y-85603959D02*
X157211970Y-85556340D01*
X157211970Y-85556340D02*
X157164351Y-85508720D01*
X157164351Y-85508720D02*
X157116732Y-85413482D01*
X157116732Y-85413482D02*
X157069113Y-85223006D01*
X157069113Y-85223006D02*
X157069113Y-84984911D01*
X157069113Y-84984911D02*
X157116732Y-84794435D01*
X157116732Y-84794435D02*
X157164351Y-84699197D01*
X157164351Y-84699197D02*
X157211970Y-84651578D01*
X157211970Y-84651578D02*
X157307208Y-84603959D01*
X135292074Y-82552746D02*
X135292074Y-83219413D01*
X135053979Y-82171794D02*
X134815884Y-82886079D01*
X134815884Y-82886079D02*
X135434931Y-82886079D01*
X151812760Y-116002193D02*
X151479426Y-116002193D01*
X151479426Y-116002193D02*
X151446093Y-116383145D01*
X151446093Y-116383145D02*
X151479426Y-116345050D01*
X151479426Y-116345050D02*
X151546093Y-116306955D01*
X151546093Y-116306955D02*
X151712760Y-116306955D01*
X151712760Y-116306955D02*
X151779426Y-116345050D01*
X151779426Y-116345050D02*
X151812760Y-116383145D01*
X151812760Y-116383145D02*
X151846093Y-116459336D01*
X151846093Y-116459336D02*
X151846093Y-116649812D01*
X151846093Y-116649812D02*
X151812760Y-116726002D01*
X151812760Y-116726002D02*
X151779426Y-116764098D01*
X151779426Y-116764098D02*
X151712760Y-116802193D01*
X151712760Y-116802193D02*
X151546093Y-116802193D01*
X151546093Y-116802193D02*
X151479426Y-116764098D01*
X151479426Y-116764098D02*
X151446093Y-116726002D01*
X152046093Y-116002193D02*
X152279427Y-116802193D01*
X152279427Y-116802193D02*
X152512760Y-116002193D01*
X134365848Y-67074249D02*
X134937276Y-67074249D01*
X134651562Y-68074249D02*
X134651562Y-67074249D01*
X135175372Y-67074249D02*
X135842038Y-68074249D01*
X135842038Y-67074249D02*
X135175372Y-68074249D01*
X135804326Y-101485398D02*
X135842421Y-101371112D01*
X135842421Y-101371112D02*
X135842421Y-101180636D01*
X135842421Y-101180636D02*
X135804326Y-101104445D01*
X135804326Y-101104445D02*
X135766230Y-101066350D01*
X135766230Y-101066350D02*
X135690040Y-101028255D01*
X135690040Y-101028255D02*
X135613849Y-101028255D01*
X135613849Y-101028255D02*
X135537659Y-101066350D01*
X135537659Y-101066350D02*
X135499564Y-101104445D01*
X135499564Y-101104445D02*
X135461468Y-101180636D01*
X135461468Y-101180636D02*
X135423373Y-101333017D01*
X135423373Y-101333017D02*
X135385278Y-101409207D01*
X135385278Y-101409207D02*
X135347183Y-101447302D01*
X135347183Y-101447302D02*
X135270992Y-101485398D01*
X135270992Y-101485398D02*
X135194802Y-101485398D01*
X135194802Y-101485398D02*
X135118611Y-101447302D01*
X135118611Y-101447302D02*
X135080516Y-101409207D01*
X135080516Y-101409207D02*
X135042421Y-101333017D01*
X135042421Y-101333017D02*
X135042421Y-101142540D01*
X135042421Y-101142540D02*
X135080516Y-101028255D01*
X135842421Y-100685397D02*
X135042421Y-100685397D01*
X135042421Y-100685397D02*
X135042421Y-100494921D01*
X135042421Y-100494921D02*
X135080516Y-100380635D01*
X135080516Y-100380635D02*
X135156706Y-100304445D01*
X135156706Y-100304445D02*
X135232897Y-100266350D01*
X135232897Y-100266350D02*
X135385278Y-100228254D01*
X135385278Y-100228254D02*
X135499564Y-100228254D01*
X135499564Y-100228254D02*
X135651945Y-100266350D01*
X135651945Y-100266350D02*
X135728135Y-100304445D01*
X135728135Y-100304445D02*
X135804326Y-100380635D01*
X135804326Y-100380635D02*
X135842421Y-100494921D01*
X135842421Y-100494921D02*
X135842421Y-100685397D01*
X135613849Y-99923493D02*
X135613849Y-99542540D01*
X135842421Y-99999683D02*
X135042421Y-99733016D01*
X135042421Y-99733016D02*
X135842421Y-99466350D01*
X156259608Y-67623665D02*
X156402465Y-67671284D01*
X156402465Y-67671284D02*
X156450084Y-67718903D01*
X156450084Y-67718903D02*
X156497703Y-67814141D01*
X156497703Y-67814141D02*
X156497703Y-67956998D01*
X156497703Y-67956998D02*
X156450084Y-68052236D01*
X156450084Y-68052236D02*
X156402465Y-68099856D01*
X156402465Y-68099856D02*
X156307227Y-68147475D01*
X156307227Y-68147475D02*
X155926275Y-68147475D01*
X155926275Y-68147475D02*
X155926275Y-67147475D01*
X155926275Y-67147475D02*
X156259608Y-67147475D01*
X156259608Y-67147475D02*
X156354846Y-67195094D01*
X156354846Y-67195094D02*
X156402465Y-67242713D01*
X156402465Y-67242713D02*
X156450084Y-67337951D01*
X156450084Y-67337951D02*
X156450084Y-67433189D01*
X156450084Y-67433189D02*
X156402465Y-67528427D01*
X156402465Y-67528427D02*
X156354846Y-67576046D01*
X156354846Y-67576046D02*
X156259608Y-67623665D01*
X156259608Y-67623665D02*
X155926275Y-67623665D01*
X156878656Y-67861760D02*
X157354846Y-67861760D01*
X156783418Y-68147475D02*
X157116751Y-67147475D01*
X157116751Y-67147475D02*
X157450084Y-68147475D01*
X157640561Y-67147475D02*
X158211989Y-67147475D01*
X157926275Y-68147475D02*
X157926275Y-67147475D01*
X135409604Y-84711569D02*
X134933414Y-84711569D01*
X134933414Y-84711569D02*
X134885795Y-85187759D01*
X134885795Y-85187759D02*
X134933414Y-85140140D01*
X134933414Y-85140140D02*
X135028652Y-85092521D01*
X135028652Y-85092521D02*
X135266747Y-85092521D01*
X135266747Y-85092521D02*
X135361985Y-85140140D01*
X135361985Y-85140140D02*
X135409604Y-85187759D01*
X135409604Y-85187759D02*
X135457223Y-85282997D01*
X135457223Y-85282997D02*
X135457223Y-85521092D01*
X135457223Y-85521092D02*
X135409604Y-85616330D01*
X135409604Y-85616330D02*
X135361985Y-85663950D01*
X135361985Y-85663950D02*
X135266747Y-85711569D01*
X135266747Y-85711569D02*
X135028652Y-85711569D01*
X135028652Y-85711569D02*
X134933414Y-85663950D01*
X134933414Y-85663950D02*
X134885795Y-85616330D01*
X156496655Y-95882963D02*
X155925227Y-95882963D01*
X156210941Y-95882963D02*
X156210941Y-94882963D01*
X156210941Y-94882963D02*
X156115703Y-95025820D01*
X156115703Y-95025820D02*
X156020465Y-95121058D01*
X156020465Y-95121058D02*
X155925227Y-95168677D01*
X157115703Y-94882963D02*
X157210941Y-94882963D01*
X157210941Y-94882963D02*
X157306179Y-94930582D01*
X157306179Y-94930582D02*
X157353798Y-94978201D01*
X157353798Y-94978201D02*
X157401417Y-95073439D01*
X157401417Y-95073439D02*
X157449036Y-95263915D01*
X157449036Y-95263915D02*
X157449036Y-95502010D01*
X157449036Y-95502010D02*
X157401417Y-95692486D01*
X157401417Y-95692486D02*
X157353798Y-95787724D01*
X157353798Y-95787724D02*
X157306179Y-95835344D01*
X157306179Y-95835344D02*
X157210941Y-95882963D01*
X157210941Y-95882963D02*
X157115703Y-95882963D01*
X157115703Y-95882963D02*
X157020465Y-95835344D01*
X157020465Y-95835344D02*
X156972846Y-95787724D01*
X156972846Y-95787724D02*
X156925227Y-95692486D01*
X156925227Y-95692486D02*
X156877608Y-95502010D01*
X156877608Y-95502010D02*
X156877608Y-95263915D01*
X156877608Y-95263915D02*
X156925227Y-95073439D01*
X156925227Y-95073439D02*
X156972846Y-94978201D01*
X156972846Y-94978201D02*
X157020465Y-94930582D01*
X157020465Y-94930582D02*
X157115703Y-94882963D01*
X136409350Y-116713295D02*
X136409350Y-115913295D01*
X136409350Y-115913295D02*
X136576017Y-115913295D01*
X136576017Y-115913295D02*
X136676017Y-115951390D01*
X136676017Y-115951390D02*
X136742684Y-116027580D01*
X136742684Y-116027580D02*
X136776017Y-116103771D01*
X136776017Y-116103771D02*
X136809350Y-116256152D01*
X136809350Y-116256152D02*
X136809350Y-116370438D01*
X136809350Y-116370438D02*
X136776017Y-116522819D01*
X136776017Y-116522819D02*
X136742684Y-116599009D01*
X136742684Y-116599009D02*
X136676017Y-116675200D01*
X136676017Y-116675200D02*
X136576017Y-116713295D01*
X136576017Y-116713295D02*
X136409350Y-116713295D01*
X137076017Y-115989485D02*
X137109350Y-115951390D01*
X137109350Y-115951390D02*
X137176017Y-115913295D01*
X137176017Y-115913295D02*
X137342684Y-115913295D01*
X137342684Y-115913295D02*
X137409350Y-115951390D01*
X137409350Y-115951390D02*
X137442684Y-115989485D01*
X137442684Y-115989485D02*
X137476017Y-116065676D01*
X137476017Y-116065676D02*
X137476017Y-116141866D01*
X137476017Y-116141866D02*
X137442684Y-116256152D01*
X137442684Y-116256152D02*
X137042684Y-116713295D01*
X137042684Y-116713295D02*
X137476017Y-116713295D01*
X156634626Y-90756852D02*
X156063198Y-90756852D01*
X156348912Y-90756852D02*
X156348912Y-89756852D01*
X156348912Y-89756852D02*
X156253674Y-89899709D01*
X156253674Y-89899709D02*
X156158436Y-89994947D01*
X156158436Y-89994947D02*
X156063198Y-90042566D01*
X157015579Y-89852090D02*
X157063198Y-89804471D01*
X157063198Y-89804471D02*
X157158436Y-89756852D01*
X157158436Y-89756852D02*
X157396531Y-89756852D01*
X157396531Y-89756852D02*
X157491769Y-89804471D01*
X157491769Y-89804471D02*
X157539388Y-89852090D01*
X157539388Y-89852090D02*
X157587007Y-89947328D01*
X157587007Y-89947328D02*
X157587007Y-90042566D01*
X157587007Y-90042566D02*
X157539388Y-90185423D01*
X157539388Y-90185423D02*
X156967960Y-90756852D01*
X156967960Y-90756852D02*
X157587007Y-90756852D01*
X149716200Y-103005293D02*
X149754295Y-102912436D01*
X149754295Y-102912436D02*
X149754295Y-102757674D01*
X149754295Y-102757674D02*
X149716200Y-102695769D01*
X149716200Y-102695769D02*
X149678104Y-102664817D01*
X149678104Y-102664817D02*
X149601914Y-102633864D01*
X149601914Y-102633864D02*
X149525723Y-102633864D01*
X149525723Y-102633864D02*
X149449533Y-102664817D01*
X149449533Y-102664817D02*
X149411438Y-102695769D01*
X149411438Y-102695769D02*
X149373342Y-102757674D01*
X149373342Y-102757674D02*
X149335247Y-102881483D01*
X149335247Y-102881483D02*
X149297152Y-102943388D01*
X149297152Y-102943388D02*
X149259057Y-102974341D01*
X149259057Y-102974341D02*
X149182866Y-103005293D01*
X149182866Y-103005293D02*
X149106676Y-103005293D01*
X149106676Y-103005293D02*
X149030485Y-102974341D01*
X149030485Y-102974341D02*
X148992390Y-102943388D01*
X148992390Y-102943388D02*
X148954295Y-102881483D01*
X148954295Y-102881483D02*
X148954295Y-102726722D01*
X148954295Y-102726722D02*
X148992390Y-102633864D01*
X149678104Y-101983864D02*
X149716200Y-102014816D01*
X149716200Y-102014816D02*
X149754295Y-102107674D01*
X149754295Y-102107674D02*
X149754295Y-102169578D01*
X149754295Y-102169578D02*
X149716200Y-102262435D01*
X149716200Y-102262435D02*
X149640009Y-102324340D01*
X149640009Y-102324340D02*
X149563819Y-102355293D01*
X149563819Y-102355293D02*
X149411438Y-102386245D01*
X149411438Y-102386245D02*
X149297152Y-102386245D01*
X149297152Y-102386245D02*
X149144771Y-102355293D01*
X149144771Y-102355293D02*
X149068580Y-102324340D01*
X149068580Y-102324340D02*
X148992390Y-102262435D01*
X148992390Y-102262435D02*
X148954295Y-102169578D01*
X148954295Y-102169578D02*
X148954295Y-102107674D01*
X148954295Y-102107674D02*
X148992390Y-102014816D01*
X148992390Y-102014816D02*
X149030485Y-101983864D01*
X149754295Y-101705293D02*
X148954295Y-101705293D01*
X149754295Y-101333864D02*
X149297152Y-101612435D01*
X148954295Y-101333864D02*
X149411438Y-101705293D01*
X134724307Y-89868650D02*
X135390973Y-89868650D01*
X135390973Y-89868650D02*
X134962402Y-90868650D01*
X134760061Y-96031042D02*
X134950537Y-96031042D01*
X134950537Y-96031042D02*
X135045775Y-95983423D01*
X135045775Y-95983423D02*
X135093394Y-95935803D01*
X135093394Y-95935803D02*
X135188632Y-95792946D01*
X135188632Y-95792946D02*
X135236251Y-95602470D01*
X135236251Y-95602470D02*
X135236251Y-95221518D01*
X135236251Y-95221518D02*
X135188632Y-95126280D01*
X135188632Y-95126280D02*
X135141013Y-95078661D01*
X135141013Y-95078661D02*
X135045775Y-95031042D01*
X135045775Y-95031042D02*
X134855299Y-95031042D01*
X134855299Y-95031042D02*
X134760061Y-95078661D01*
X134760061Y-95078661D02*
X134712442Y-95126280D01*
X134712442Y-95126280D02*
X134664823Y-95221518D01*
X134664823Y-95221518D02*
X134664823Y-95459613D01*
X134664823Y-95459613D02*
X134712442Y-95554851D01*
X134712442Y-95554851D02*
X134760061Y-95602470D01*
X134760061Y-95602470D02*
X134855299Y-95650089D01*
X134855299Y-95650089D02*
X135045775Y-95650089D01*
X135045775Y-95650089D02*
X135141013Y-95602470D01*
X135141013Y-95602470D02*
X135188632Y-95554851D01*
X135188632Y-95554851D02*
X135236251Y-95459613D01*
X149754295Y-105396912D02*
X149373342Y-105613579D01*
X149754295Y-105768341D02*
X148954295Y-105768341D01*
X148954295Y-105768341D02*
X148954295Y-105520722D01*
X148954295Y-105520722D02*
X148992390Y-105458817D01*
X148992390Y-105458817D02*
X149030485Y-105427864D01*
X149030485Y-105427864D02*
X149106676Y-105396912D01*
X149106676Y-105396912D02*
X149220961Y-105396912D01*
X149220961Y-105396912D02*
X149297152Y-105427864D01*
X149297152Y-105427864D02*
X149335247Y-105458817D01*
X149335247Y-105458817D02*
X149373342Y-105520722D01*
X149373342Y-105520722D02*
X149373342Y-105768341D01*
X149716200Y-105149293D02*
X149754295Y-105056436D01*
X149754295Y-105056436D02*
X149754295Y-104901674D01*
X149754295Y-104901674D02*
X149716200Y-104839769D01*
X149716200Y-104839769D02*
X149678104Y-104808817D01*
X149678104Y-104808817D02*
X149601914Y-104777864D01*
X149601914Y-104777864D02*
X149525723Y-104777864D01*
X149525723Y-104777864D02*
X149449533Y-104808817D01*
X149449533Y-104808817D02*
X149411438Y-104839769D01*
X149411438Y-104839769D02*
X149373342Y-104901674D01*
X149373342Y-104901674D02*
X149335247Y-105025483D01*
X149335247Y-105025483D02*
X149297152Y-105087388D01*
X149297152Y-105087388D02*
X149259057Y-105118341D01*
X149259057Y-105118341D02*
X149182866Y-105149293D01*
X149182866Y-105149293D02*
X149106676Y-105149293D01*
X149106676Y-105149293D02*
X149030485Y-105118341D01*
X149030485Y-105118341D02*
X148992390Y-105087388D01*
X148992390Y-105087388D02*
X148954295Y-105025483D01*
X148954295Y-105025483D02*
X148954295Y-104870722D01*
X148954295Y-104870722D02*
X148992390Y-104777864D01*
X148954295Y-104592150D02*
X148954295Y-104220721D01*
X149754295Y-104406435D02*
X148954295Y-104406435D01*
X154481085Y-115967898D02*
X154414418Y-115929803D01*
X154414418Y-115929803D02*
X154314418Y-115929803D01*
X154314418Y-115929803D02*
X154214418Y-115967898D01*
X154214418Y-115967898D02*
X154147752Y-116044088D01*
X154147752Y-116044088D02*
X154114418Y-116120279D01*
X154114418Y-116120279D02*
X154081085Y-116272660D01*
X154081085Y-116272660D02*
X154081085Y-116386946D01*
X154081085Y-116386946D02*
X154114418Y-116539327D01*
X154114418Y-116539327D02*
X154147752Y-116615517D01*
X154147752Y-116615517D02*
X154214418Y-116691708D01*
X154214418Y-116691708D02*
X154314418Y-116729803D01*
X154314418Y-116729803D02*
X154381085Y-116729803D01*
X154381085Y-116729803D02*
X154481085Y-116691708D01*
X154481085Y-116691708D02*
X154514418Y-116653612D01*
X154514418Y-116653612D02*
X154514418Y-116386946D01*
X154514418Y-116386946D02*
X154381085Y-116386946D01*
X154814418Y-116729803D02*
X154814418Y-115929803D01*
X154814418Y-115929803D02*
X155214418Y-116729803D01*
X155214418Y-116729803D02*
X155214418Y-115929803D01*
X155547751Y-116729803D02*
X155547751Y-115929803D01*
X155547751Y-115929803D02*
X155714418Y-115929803D01*
X155714418Y-115929803D02*
X155814418Y-115967898D01*
X155814418Y-115967898D02*
X155881085Y-116044088D01*
X155881085Y-116044088D02*
X155914418Y-116120279D01*
X155914418Y-116120279D02*
X155947751Y-116272660D01*
X155947751Y-116272660D02*
X155947751Y-116386946D01*
X155947751Y-116386946D02*
X155914418Y-116539327D01*
X155914418Y-116539327D02*
X155881085Y-116615517D01*
X155881085Y-116615517D02*
X155814418Y-116691708D01*
X155814418Y-116691708D02*
X155714418Y-116729803D01*
X155714418Y-116729803D02*
X155547751Y-116729803D01*
X156675161Y-93175623D02*
X156103733Y-93175623D01*
X156389447Y-93175623D02*
X156389447Y-92175623D01*
X156389447Y-92175623D02*
X156294209Y-92318480D01*
X156294209Y-92318480D02*
X156198971Y-92413718D01*
X156198971Y-92413718D02*
X156103733Y-92461337D01*
X157627542Y-93175623D02*
X157056114Y-93175623D01*
X157341828Y-93175623D02*
X157341828Y-92175623D01*
X157341828Y-92175623D02*
X157246590Y-92318480D01*
X157246590Y-92318480D02*
X157151352Y-92413718D01*
X157151352Y-92413718D02*
X157056114Y-92461337D01*
X165282628Y-104646390D02*
X165320723Y-104584485D01*
X165320723Y-104584485D02*
X165320723Y-104491628D01*
X165320723Y-104491628D02*
X165282628Y-104398771D01*
X165282628Y-104398771D02*
X165206438Y-104336866D01*
X165206438Y-104336866D02*
X165130247Y-104305913D01*
X165130247Y-104305913D02*
X164977866Y-104274961D01*
X164977866Y-104274961D02*
X164863580Y-104274961D01*
X164863580Y-104274961D02*
X164711199Y-104305913D01*
X164711199Y-104305913D02*
X164635009Y-104336866D01*
X164635009Y-104336866D02*
X164558819Y-104398771D01*
X164558819Y-104398771D02*
X164520723Y-104491628D01*
X164520723Y-104491628D02*
X164520723Y-104553532D01*
X164520723Y-104553532D02*
X164558819Y-104646390D01*
X164558819Y-104646390D02*
X164596914Y-104677342D01*
X164596914Y-104677342D02*
X164863580Y-104677342D01*
X164863580Y-104677342D02*
X164863580Y-104553532D01*
X164520723Y-104955913D02*
X165320723Y-104955913D01*
X165320723Y-104955913D02*
X164520723Y-105327342D01*
X164520723Y-105327342D02*
X165320723Y-105327342D01*
X164520723Y-105636865D02*
X165320723Y-105636865D01*
X165320723Y-105636865D02*
X165320723Y-105791627D01*
X165320723Y-105791627D02*
X165282628Y-105884484D01*
X165282628Y-105884484D02*
X165206438Y-105946389D01*
X165206438Y-105946389D02*
X165130247Y-105977342D01*
X165130247Y-105977342D02*
X164977866Y-106008294D01*
X164977866Y-106008294D02*
X164863580Y-106008294D01*
X164863580Y-106008294D02*
X164711199Y-105977342D01*
X164711199Y-105977342D02*
X164635009Y-105946389D01*
X164635009Y-105946389D02*
X164558819Y-105884484D01*
X164558819Y-105884484D02*
X164520723Y-105791627D01*
X164520723Y-105791627D02*
X164520723Y-105636865D01*
D11*
X143320626Y-116819242D02*
X143320626Y-116019242D01*
X143320626Y-116019242D02*
X143487293Y-116590670D01*
X143487293Y-116590670D02*
X143653959Y-116019242D01*
X143653959Y-116019242D02*
X143653959Y-116819242D01*
X143892055Y-116819242D02*
X143892055Y-116019242D01*
X143892055Y-116019242D02*
X144082531Y-116019242D01*
X144082531Y-116019242D02*
X144130150Y-116057337D01*
X144130150Y-116057337D02*
X144153960Y-116095432D01*
X144153960Y-116095432D02*
X144177769Y-116171623D01*
X144177769Y-116171623D02*
X144177769Y-116285908D01*
X144177769Y-116285908D02*
X144153960Y-116362099D01*
X144153960Y-116362099D02*
X144130150Y-116400194D01*
X144130150Y-116400194D02*
X144082531Y-116438289D01*
X144082531Y-116438289D02*
X143892055Y-116438289D01*
X144392055Y-116819242D02*
X144392055Y-116019242D01*
X144392055Y-116019242D02*
X144582531Y-116019242D01*
X144582531Y-116019242D02*
X144630150Y-116057337D01*
X144630150Y-116057337D02*
X144653960Y-116095432D01*
X144653960Y-116095432D02*
X144677769Y-116171623D01*
X144677769Y-116171623D02*
X144677769Y-116285908D01*
X144677769Y-116285908D02*
X144653960Y-116362099D01*
X144653960Y-116362099D02*
X144630150Y-116400194D01*
X144630150Y-116400194D02*
X144582531Y-116438289D01*
X144582531Y-116438289D02*
X144392055Y-116438289D01*
X144820627Y-116019242D02*
X145106341Y-116019242D01*
X144963484Y-116819242D02*
X144963484Y-116019242D01*
X145153960Y-116895432D02*
X145534912Y-116895432D01*
X145582531Y-116019242D02*
X145868245Y-116019242D01*
X145725388Y-116819242D02*
X145725388Y-116019242D01*
X145987292Y-116019242D02*
X146320625Y-116819242D01*
X146320625Y-116019242D02*
X145987292Y-116819242D01*
D10*
X134801338Y-77174418D02*
X134848957Y-77126799D01*
X134848957Y-77126799D02*
X134944195Y-77079180D01*
X134944195Y-77079180D02*
X135182290Y-77079180D01*
X135182290Y-77079180D02*
X135277528Y-77126799D01*
X135277528Y-77126799D02*
X135325147Y-77174418D01*
X135325147Y-77174418D02*
X135372766Y-77269656D01*
X135372766Y-77269656D02*
X135372766Y-77364894D01*
X135372766Y-77364894D02*
X135325147Y-77507751D01*
X135325147Y-77507751D02*
X134753719Y-78079180D01*
X134753719Y-78079180D02*
X135372766Y-78079180D01*
X134155752Y-115928631D02*
X134089085Y-115890536D01*
X134089085Y-115890536D02*
X133989085Y-115890536D01*
X133989085Y-115890536D02*
X133889085Y-115928631D01*
X133889085Y-115928631D02*
X133822419Y-116004821D01*
X133822419Y-116004821D02*
X133789085Y-116081012D01*
X133789085Y-116081012D02*
X133755752Y-116233393D01*
X133755752Y-116233393D02*
X133755752Y-116347679D01*
X133755752Y-116347679D02*
X133789085Y-116500060D01*
X133789085Y-116500060D02*
X133822419Y-116576250D01*
X133822419Y-116576250D02*
X133889085Y-116652441D01*
X133889085Y-116652441D02*
X133989085Y-116690536D01*
X133989085Y-116690536D02*
X134055752Y-116690536D01*
X134055752Y-116690536D02*
X134155752Y-116652441D01*
X134155752Y-116652441D02*
X134189085Y-116614345D01*
X134189085Y-116614345D02*
X134189085Y-116347679D01*
X134189085Y-116347679D02*
X134055752Y-116347679D01*
X134489085Y-116690536D02*
X134489085Y-115890536D01*
X134489085Y-115890536D02*
X134889085Y-116690536D01*
X134889085Y-116690536D02*
X134889085Y-115890536D01*
X135222418Y-116690536D02*
X135222418Y-115890536D01*
X135222418Y-115890536D02*
X135389085Y-115890536D01*
X135389085Y-115890536D02*
X135489085Y-115928631D01*
X135489085Y-115928631D02*
X135555752Y-116004821D01*
X135555752Y-116004821D02*
X135589085Y-116081012D01*
X135589085Y-116081012D02*
X135622418Y-116233393D01*
X135622418Y-116233393D02*
X135622418Y-116347679D01*
X135622418Y-116347679D02*
X135589085Y-116500060D01*
X135589085Y-116500060D02*
X135555752Y-116576250D01*
X135555752Y-116576250D02*
X135489085Y-116652441D01*
X135489085Y-116652441D02*
X135389085Y-116690536D01*
X135389085Y-116690536D02*
X135222418Y-116690536D01*
X159862769Y-112060391D02*
X159824674Y-112136581D01*
X159824674Y-112136581D02*
X159824674Y-112250867D01*
X159824674Y-112250867D02*
X159862769Y-112365153D01*
X159862769Y-112365153D02*
X159938959Y-112441343D01*
X159938959Y-112441343D02*
X160015150Y-112479438D01*
X160015150Y-112479438D02*
X160167531Y-112517534D01*
X160167531Y-112517534D02*
X160281817Y-112517534D01*
X160281817Y-112517534D02*
X160434198Y-112479438D01*
X160434198Y-112479438D02*
X160510388Y-112441343D01*
X160510388Y-112441343D02*
X160586579Y-112365153D01*
X160586579Y-112365153D02*
X160624674Y-112250867D01*
X160624674Y-112250867D02*
X160624674Y-112174676D01*
X160624674Y-112174676D02*
X160586579Y-112060391D01*
X160586579Y-112060391D02*
X160548483Y-112022295D01*
X160548483Y-112022295D02*
X160281817Y-112022295D01*
X160281817Y-112022295D02*
X160281817Y-112174676D01*
X160624674Y-111679438D02*
X159824674Y-111679438D01*
X159824674Y-111679438D02*
X160624674Y-111222295D01*
X160624674Y-111222295D02*
X159824674Y-111222295D01*
X160624674Y-110841343D02*
X159824674Y-110841343D01*
X159824674Y-110841343D02*
X159824674Y-110650867D01*
X159824674Y-110650867D02*
X159862769Y-110536581D01*
X159862769Y-110536581D02*
X159938959Y-110460391D01*
X159938959Y-110460391D02*
X160015150Y-110422296D01*
X160015150Y-110422296D02*
X160167531Y-110384200D01*
X160167531Y-110384200D02*
X160281817Y-110384200D01*
X160281817Y-110384200D02*
X160434198Y-110422296D01*
X160434198Y-110422296D02*
X160510388Y-110460391D01*
X160510388Y-110460391D02*
X160586579Y-110536581D01*
X160586579Y-110536581D02*
X160624674Y-110650867D01*
X160624674Y-110650867D02*
X160624674Y-110841343D01*
X135026664Y-92846286D02*
X134931426Y-92798667D01*
X134931426Y-92798667D02*
X134883807Y-92751048D01*
X134883807Y-92751048D02*
X134836188Y-92655810D01*
X134836188Y-92655810D02*
X134836188Y-92608191D01*
X134836188Y-92608191D02*
X134883807Y-92512953D01*
X134883807Y-92512953D02*
X134931426Y-92465334D01*
X134931426Y-92465334D02*
X135026664Y-92417715D01*
X135026664Y-92417715D02*
X135217140Y-92417715D01*
X135217140Y-92417715D02*
X135312378Y-92465334D01*
X135312378Y-92465334D02*
X135359997Y-92512953D01*
X135359997Y-92512953D02*
X135407616Y-92608191D01*
X135407616Y-92608191D02*
X135407616Y-92655810D01*
X135407616Y-92655810D02*
X135359997Y-92751048D01*
X135359997Y-92751048D02*
X135312378Y-92798667D01*
X135312378Y-92798667D02*
X135217140Y-92846286D01*
X135217140Y-92846286D02*
X135026664Y-92846286D01*
X135026664Y-92846286D02*
X134931426Y-92893905D01*
X134931426Y-92893905D02*
X134883807Y-92941524D01*
X134883807Y-92941524D02*
X134836188Y-93036762D01*
X134836188Y-93036762D02*
X134836188Y-93227238D01*
X134836188Y-93227238D02*
X134883807Y-93322476D01*
X134883807Y-93322476D02*
X134931426Y-93370096D01*
X134931426Y-93370096D02*
X135026664Y-93417715D01*
X135026664Y-93417715D02*
X135217140Y-93417715D01*
X135217140Y-93417715D02*
X135312378Y-93370096D01*
X135312378Y-93370096D02*
X135359997Y-93322476D01*
X135359997Y-93322476D02*
X135407616Y-93227238D01*
X135407616Y-93227238D02*
X135407616Y-93036762D01*
X135407616Y-93036762D02*
X135359997Y-92941524D01*
X135359997Y-92941524D02*
X135312378Y-92893905D01*
X135312378Y-92893905D02*
X135217140Y-92846286D01*
D12*
X142562735Y-90542190D02*
X143210354Y-90542190D01*
X143210354Y-90542190D02*
X143286544Y-90504095D01*
X143286544Y-90504095D02*
X143324640Y-90466000D01*
X143324640Y-90466000D02*
X143362735Y-90389809D01*
X143362735Y-90389809D02*
X143362735Y-90237428D01*
X143362735Y-90237428D02*
X143324640Y-90161238D01*
X143324640Y-90161238D02*
X143286544Y-90123143D01*
X143286544Y-90123143D02*
X143210354Y-90085047D01*
X143210354Y-90085047D02*
X142562735Y-90085047D01*
X143362735Y-89323143D02*
X143362735Y-89704095D01*
X143362735Y-89704095D02*
X142562735Y-89704095D01*
X143362735Y-89056476D02*
X142562735Y-89056476D01*
X142562735Y-89056476D02*
X142562735Y-88751714D01*
X142562735Y-88751714D02*
X142600830Y-88675524D01*
X142600830Y-88675524D02*
X142638925Y-88637429D01*
X142638925Y-88637429D02*
X142715116Y-88599333D01*
X142715116Y-88599333D02*
X142829401Y-88599333D01*
X142829401Y-88599333D02*
X142905592Y-88637429D01*
X142905592Y-88637429D02*
X142943687Y-88675524D01*
X142943687Y-88675524D02*
X142981782Y-88751714D01*
X142981782Y-88751714D02*
X142981782Y-89056476D01*
X143362735Y-87266000D02*
X143362735Y-87646952D01*
X143362735Y-87646952D02*
X142562735Y-87646952D01*
X143362735Y-86885048D02*
X143324640Y-86961238D01*
X143324640Y-86961238D02*
X143286544Y-86999333D01*
X143286544Y-86999333D02*
X143210354Y-87037429D01*
X143210354Y-87037429D02*
X142981782Y-87037429D01*
X142981782Y-87037429D02*
X142905592Y-86999333D01*
X142905592Y-86999333D02*
X142867497Y-86961238D01*
X142867497Y-86961238D02*
X142829401Y-86885048D01*
X142829401Y-86885048D02*
X142829401Y-86770762D01*
X142829401Y-86770762D02*
X142867497Y-86694571D01*
X142867497Y-86694571D02*
X142905592Y-86656476D01*
X142905592Y-86656476D02*
X142981782Y-86618381D01*
X142981782Y-86618381D02*
X143210354Y-86618381D01*
X143210354Y-86618381D02*
X143286544Y-86656476D01*
X143286544Y-86656476D02*
X143324640Y-86694571D01*
X143324640Y-86694571D02*
X143362735Y-86770762D01*
X143362735Y-86770762D02*
X143362735Y-86885048D01*
X143362735Y-85818380D02*
X142981782Y-86085047D01*
X143362735Y-86275523D02*
X142562735Y-86275523D01*
X142562735Y-86275523D02*
X142562735Y-85970761D01*
X142562735Y-85970761D02*
X142600830Y-85894571D01*
X142600830Y-85894571D02*
X142638925Y-85856476D01*
X142638925Y-85856476D02*
X142715116Y-85818380D01*
X142715116Y-85818380D02*
X142829401Y-85818380D01*
X142829401Y-85818380D02*
X142905592Y-85856476D01*
X142905592Y-85856476D02*
X142943687Y-85894571D01*
X142943687Y-85894571D02*
X142981782Y-85970761D01*
X142981782Y-85970761D02*
X142981782Y-86275523D01*
X143362735Y-85132666D02*
X142943687Y-85132666D01*
X142943687Y-85132666D02*
X142867497Y-85170761D01*
X142867497Y-85170761D02*
X142829401Y-85246952D01*
X142829401Y-85246952D02*
X142829401Y-85399333D01*
X142829401Y-85399333D02*
X142867497Y-85475523D01*
X143324640Y-85132666D02*
X143362735Y-85208857D01*
X143362735Y-85208857D02*
X143362735Y-85399333D01*
X143362735Y-85399333D02*
X143324640Y-85475523D01*
X143324640Y-85475523D02*
X143248449Y-85513619D01*
X143248449Y-85513619D02*
X143172259Y-85513619D01*
X143172259Y-85513619D02*
X143096068Y-85475523D01*
X143096068Y-85475523D02*
X143057973Y-85399333D01*
X143057973Y-85399333D02*
X143057973Y-85208857D01*
X143057973Y-85208857D02*
X143019878Y-85132666D01*
X143362735Y-84142189D02*
X142562735Y-84142189D01*
X142943687Y-84142189D02*
X142943687Y-83685046D01*
X143362735Y-83685046D02*
X142562735Y-83685046D01*
X143134163Y-83342190D02*
X143134163Y-82961237D01*
X143362735Y-83418380D02*
X142562735Y-83151713D01*
X142562735Y-83151713D02*
X143362735Y-82885047D01*
X142562735Y-82732666D02*
X142562735Y-82275523D01*
X143362735Y-82504095D02*
X142562735Y-82504095D01*
D10*
X156107275Y-69637055D02*
X156012037Y-69589436D01*
X156012037Y-69589436D02*
X155869180Y-69589436D01*
X155869180Y-69589436D02*
X155726323Y-69637055D01*
X155726323Y-69637055D02*
X155631085Y-69732293D01*
X155631085Y-69732293D02*
X155583466Y-69827531D01*
X155583466Y-69827531D02*
X155535847Y-70018007D01*
X155535847Y-70018007D02*
X155535847Y-70160864D01*
X155535847Y-70160864D02*
X155583466Y-70351340D01*
X155583466Y-70351340D02*
X155631085Y-70446578D01*
X155631085Y-70446578D02*
X155726323Y-70541817D01*
X155726323Y-70541817D02*
X155869180Y-70589436D01*
X155869180Y-70589436D02*
X155964418Y-70589436D01*
X155964418Y-70589436D02*
X156107275Y-70541817D01*
X156107275Y-70541817D02*
X156154894Y-70494197D01*
X156154894Y-70494197D02*
X156154894Y-70160864D01*
X156154894Y-70160864D02*
X155964418Y-70160864D01*
X156583466Y-70589436D02*
X156583466Y-69589436D01*
X156583466Y-69589436D02*
X157154894Y-70589436D01*
X157154894Y-70589436D02*
X157154894Y-69589436D01*
X157631085Y-70589436D02*
X157631085Y-69589436D01*
X157631085Y-69589436D02*
X157869180Y-69589436D01*
X157869180Y-69589436D02*
X158012037Y-69637055D01*
X158012037Y-69637055D02*
X158107275Y-69732293D01*
X158107275Y-69732293D02*
X158154894Y-69827531D01*
X158154894Y-69827531D02*
X158202513Y-70018007D01*
X158202513Y-70018007D02*
X158202513Y-70160864D01*
X158202513Y-70160864D02*
X158154894Y-70351340D01*
X158154894Y-70351340D02*
X158107275Y-70446578D01*
X158107275Y-70446578D02*
X158012037Y-70541817D01*
X158012037Y-70541817D02*
X157869180Y-70589436D01*
X157869180Y-70589436D02*
X157631085Y-70589436D01*
X144508790Y-111297639D02*
X144508790Y-111869067D01*
X144508790Y-111869067D02*
X144475457Y-111983353D01*
X144475457Y-111983353D02*
X144408790Y-112059544D01*
X144408790Y-112059544D02*
X144308790Y-112097639D01*
X144308790Y-112097639D02*
X144242124Y-112097639D01*
X145175457Y-111297639D02*
X144842123Y-111297639D01*
X144842123Y-111297639D02*
X144808790Y-111678591D01*
X144808790Y-111678591D02*
X144842123Y-111640496D01*
X144842123Y-111640496D02*
X144908790Y-111602401D01*
X144908790Y-111602401D02*
X145075457Y-111602401D01*
X145075457Y-111602401D02*
X145142123Y-111640496D01*
X145142123Y-111640496D02*
X145175457Y-111678591D01*
X145175457Y-111678591D02*
X145208790Y-111754782D01*
X145208790Y-111754782D02*
X145208790Y-111945258D01*
X145208790Y-111945258D02*
X145175457Y-112021448D01*
X145175457Y-112021448D02*
X145142123Y-112059544D01*
X145142123Y-112059544D02*
X145075457Y-112097639D01*
X145075457Y-112097639D02*
X144908790Y-112097639D01*
X144908790Y-112097639D02*
X144842123Y-112059544D01*
X144842123Y-112059544D02*
X144808790Y-112021448D01*
X149523735Y-97697046D02*
X149490402Y-97735142D01*
X149490402Y-97735142D02*
X149390402Y-97773237D01*
X149390402Y-97773237D02*
X149323735Y-97773237D01*
X149323735Y-97773237D02*
X149223735Y-97735142D01*
X149223735Y-97735142D02*
X149157069Y-97658951D01*
X149157069Y-97658951D02*
X149123735Y-97582761D01*
X149123735Y-97582761D02*
X149090402Y-97430380D01*
X149090402Y-97430380D02*
X149090402Y-97316094D01*
X149090402Y-97316094D02*
X149123735Y-97163713D01*
X149123735Y-97163713D02*
X149157069Y-97087522D01*
X149157069Y-97087522D02*
X149223735Y-97011332D01*
X149223735Y-97011332D02*
X149323735Y-96973237D01*
X149323735Y-96973237D02*
X149390402Y-96973237D01*
X149390402Y-96973237D02*
X149490402Y-97011332D01*
X149490402Y-97011332D02*
X149523735Y-97049427D01*
X149957069Y-96973237D02*
X150090402Y-96973237D01*
X150090402Y-96973237D02*
X150157069Y-97011332D01*
X150157069Y-97011332D02*
X150223735Y-97087522D01*
X150223735Y-97087522D02*
X150257069Y-97239903D01*
X150257069Y-97239903D02*
X150257069Y-97506570D01*
X150257069Y-97506570D02*
X150223735Y-97658951D01*
X150223735Y-97658951D02*
X150157069Y-97735142D01*
X150157069Y-97735142D02*
X150090402Y-97773237D01*
X150090402Y-97773237D02*
X149957069Y-97773237D01*
X149957069Y-97773237D02*
X149890402Y-97735142D01*
X149890402Y-97735142D02*
X149823735Y-97658951D01*
X149823735Y-97658951D02*
X149790402Y-97506570D01*
X149790402Y-97506570D02*
X149790402Y-97239903D01*
X149790402Y-97239903D02*
X149823735Y-97087522D01*
X149823735Y-97087522D02*
X149890402Y-97011332D01*
X149890402Y-97011332D02*
X149957069Y-96973237D01*
X150557068Y-97773237D02*
X150557068Y-96973237D01*
X150557068Y-96973237D02*
X150957068Y-97773237D01*
X150957068Y-97773237D02*
X150957068Y-96973237D01*
X151657068Y-97773237D02*
X151257068Y-97773237D01*
X151457068Y-97773237D02*
X151457068Y-96973237D01*
X151457068Y-96973237D02*
X151390401Y-97087522D01*
X151390401Y-97087522D02*
X151323735Y-97163713D01*
X151323735Y-97163713D02*
X151257068Y-97201808D01*
X151492295Y-79233332D02*
X151111342Y-79499999D01*
X151492295Y-79690475D02*
X150692295Y-79690475D01*
X150692295Y-79690475D02*
X150692295Y-79385713D01*
X150692295Y-79385713D02*
X150730390Y-79309523D01*
X150730390Y-79309523D02*
X150768485Y-79271428D01*
X150768485Y-79271428D02*
X150844676Y-79233332D01*
X150844676Y-79233332D02*
X150958961Y-79233332D01*
X150958961Y-79233332D02*
X151035152Y-79271428D01*
X151035152Y-79271428D02*
X151073247Y-79309523D01*
X151073247Y-79309523D02*
X151111342Y-79385713D01*
X151111342Y-79385713D02*
X151111342Y-79690475D01*
X150692295Y-78966666D02*
X150692295Y-78471428D01*
X150692295Y-78471428D02*
X150997057Y-78738094D01*
X150997057Y-78738094D02*
X150997057Y-78623809D01*
X150997057Y-78623809D02*
X151035152Y-78547618D01*
X151035152Y-78547618D02*
X151073247Y-78509523D01*
X151073247Y-78509523D02*
X151149438Y-78471428D01*
X151149438Y-78471428D02*
X151339914Y-78471428D01*
X151339914Y-78471428D02*
X151416104Y-78509523D01*
X151416104Y-78509523D02*
X151454200Y-78547618D01*
X151454200Y-78547618D02*
X151492295Y-78623809D01*
X151492295Y-78623809D02*
X151492295Y-78852380D01*
X151492295Y-78852380D02*
X151454200Y-78928571D01*
X151454200Y-78928571D02*
X151416104Y-78966666D01*
D11*
X132296898Y-110016972D02*
X132296898Y-110588400D01*
X132296898Y-110588400D02*
X132263565Y-110702686D01*
X132263565Y-110702686D02*
X132196898Y-110778877D01*
X132196898Y-110778877D02*
X132096898Y-110816972D01*
X132096898Y-110816972D02*
X132030232Y-110816972D01*
X132930231Y-110016972D02*
X132796898Y-110016972D01*
X132796898Y-110016972D02*
X132730231Y-110055067D01*
X132730231Y-110055067D02*
X132696898Y-110093162D01*
X132696898Y-110093162D02*
X132630231Y-110207448D01*
X132630231Y-110207448D02*
X132596898Y-110359829D01*
X132596898Y-110359829D02*
X132596898Y-110664591D01*
X132596898Y-110664591D02*
X132630231Y-110740781D01*
X132630231Y-110740781D02*
X132663565Y-110778877D01*
X132663565Y-110778877D02*
X132730231Y-110816972D01*
X132730231Y-110816972D02*
X132863565Y-110816972D01*
X132863565Y-110816972D02*
X132930231Y-110778877D01*
X132930231Y-110778877D02*
X132963565Y-110740781D01*
X132963565Y-110740781D02*
X132996898Y-110664591D01*
X132996898Y-110664591D02*
X132996898Y-110474115D01*
X132996898Y-110474115D02*
X132963565Y-110397924D01*
X132963565Y-110397924D02*
X132930231Y-110359829D01*
X132930231Y-110359829D02*
X132863565Y-110321734D01*
X132863565Y-110321734D02*
X132730231Y-110321734D01*
X132730231Y-110321734D02*
X132663565Y-110359829D01*
X132663565Y-110359829D02*
X132630231Y-110397924D01*
X132630231Y-110397924D02*
X132596898Y-110474115D01*
D10*
X162591166Y-97729269D02*
X162557833Y-97767365D01*
X162557833Y-97767365D02*
X162457833Y-97805460D01*
X162457833Y-97805460D02*
X162391166Y-97805460D01*
X162391166Y-97805460D02*
X162291166Y-97767365D01*
X162291166Y-97767365D02*
X162224500Y-97691174D01*
X162224500Y-97691174D02*
X162191166Y-97614984D01*
X162191166Y-97614984D02*
X162157833Y-97462603D01*
X162157833Y-97462603D02*
X162157833Y-97348317D01*
X162157833Y-97348317D02*
X162191166Y-97195936D01*
X162191166Y-97195936D02*
X162224500Y-97119745D01*
X162224500Y-97119745D02*
X162291166Y-97043555D01*
X162291166Y-97043555D02*
X162391166Y-97005460D01*
X162391166Y-97005460D02*
X162457833Y-97005460D01*
X162457833Y-97005460D02*
X162557833Y-97043555D01*
X162557833Y-97043555D02*
X162591166Y-97081650D01*
X163024500Y-97005460D02*
X163157833Y-97005460D01*
X163157833Y-97005460D02*
X163224500Y-97043555D01*
X163224500Y-97043555D02*
X163291166Y-97119745D01*
X163291166Y-97119745D02*
X163324500Y-97272126D01*
X163324500Y-97272126D02*
X163324500Y-97538793D01*
X163324500Y-97538793D02*
X163291166Y-97691174D01*
X163291166Y-97691174D02*
X163224500Y-97767365D01*
X163224500Y-97767365D02*
X163157833Y-97805460D01*
X163157833Y-97805460D02*
X163024500Y-97805460D01*
X163024500Y-97805460D02*
X162957833Y-97767365D01*
X162957833Y-97767365D02*
X162891166Y-97691174D01*
X162891166Y-97691174D02*
X162857833Y-97538793D01*
X162857833Y-97538793D02*
X162857833Y-97272126D01*
X162857833Y-97272126D02*
X162891166Y-97119745D01*
X162891166Y-97119745D02*
X162957833Y-97043555D01*
X162957833Y-97043555D02*
X163024500Y-97005460D01*
X163624499Y-97805460D02*
X163624499Y-97005460D01*
X163624499Y-97005460D02*
X164024499Y-97805460D01*
X164024499Y-97805460D02*
X164024499Y-97005460D01*
X164324499Y-97081650D02*
X164357832Y-97043555D01*
X164357832Y-97043555D02*
X164424499Y-97005460D01*
X164424499Y-97005460D02*
X164591166Y-97005460D01*
X164591166Y-97005460D02*
X164657832Y-97043555D01*
X164657832Y-97043555D02*
X164691166Y-97081650D01*
X164691166Y-97081650D02*
X164724499Y-97157841D01*
X164724499Y-97157841D02*
X164724499Y-97234031D01*
X164724499Y-97234031D02*
X164691166Y-97348317D01*
X164691166Y-97348317D02*
X164291166Y-97805460D01*
X164291166Y-97805460D02*
X164724499Y-97805460D01*
X141869333Y-77684295D02*
X141535999Y-77684295D01*
X141535999Y-77684295D02*
X141535999Y-76884295D01*
X142469333Y-77684295D02*
X142069333Y-77684295D01*
X142269333Y-77684295D02*
X142269333Y-76884295D01*
X142269333Y-76884295D02*
X142202666Y-76998580D01*
X142202666Y-76998580D02*
X142136000Y-77074771D01*
X142136000Y-77074771D02*
X142069333Y-77112866D01*
X141276768Y-104144118D02*
X141238672Y-104182214D01*
X141238672Y-104182214D02*
X141124387Y-104220309D01*
X141124387Y-104220309D02*
X141048196Y-104220309D01*
X141048196Y-104220309D02*
X140933910Y-104182214D01*
X140933910Y-104182214D02*
X140857720Y-104106023D01*
X140857720Y-104106023D02*
X140819625Y-104029833D01*
X140819625Y-104029833D02*
X140781529Y-103877452D01*
X140781529Y-103877452D02*
X140781529Y-103763166D01*
X140781529Y-103763166D02*
X140819625Y-103610785D01*
X140819625Y-103610785D02*
X140857720Y-103534594D01*
X140857720Y-103534594D02*
X140933910Y-103458404D01*
X140933910Y-103458404D02*
X141048196Y-103420309D01*
X141048196Y-103420309D02*
X141124387Y-103420309D01*
X141124387Y-103420309D02*
X141238672Y-103458404D01*
X141238672Y-103458404D02*
X141276768Y-103496499D01*
X142038672Y-104220309D02*
X141581529Y-104220309D01*
X141810101Y-104220309D02*
X141810101Y-103420309D01*
X141810101Y-103420309D02*
X141733910Y-103534594D01*
X141733910Y-103534594D02*
X141657720Y-103610785D01*
X141657720Y-103610785D02*
X141581529Y-103648880D01*
X142533911Y-103420309D02*
X142610101Y-103420309D01*
X142610101Y-103420309D02*
X142686292Y-103458404D01*
X142686292Y-103458404D02*
X142724387Y-103496499D01*
X142724387Y-103496499D02*
X142762482Y-103572690D01*
X142762482Y-103572690D02*
X142800577Y-103725071D01*
X142800577Y-103725071D02*
X142800577Y-103915547D01*
X142800577Y-103915547D02*
X142762482Y-104067928D01*
X142762482Y-104067928D02*
X142724387Y-104144118D01*
X142724387Y-104144118D02*
X142686292Y-104182214D01*
X142686292Y-104182214D02*
X142610101Y-104220309D01*
X142610101Y-104220309D02*
X142533911Y-104220309D01*
X142533911Y-104220309D02*
X142457720Y-104182214D01*
X142457720Y-104182214D02*
X142419625Y-104144118D01*
X142419625Y-104144118D02*
X142381530Y-104067928D01*
X142381530Y-104067928D02*
X142343434Y-103915547D01*
X142343434Y-103915547D02*
X142343434Y-103725071D01*
X142343434Y-103725071D02*
X142381530Y-103572690D01*
X142381530Y-103572690D02*
X142419625Y-103496499D01*
X142419625Y-103496499D02*
X142457720Y-103458404D01*
X142457720Y-103458404D02*
X142533911Y-103420309D01*
X154519635Y-111303205D02*
X154519635Y-111874633D01*
X154519635Y-111874633D02*
X154481540Y-111988919D01*
X154481540Y-111988919D02*
X154405349Y-112065110D01*
X154405349Y-112065110D02*
X154291064Y-112103205D01*
X154291064Y-112103205D02*
X154214873Y-112103205D01*
X155319635Y-112103205D02*
X154862492Y-112103205D01*
X155091064Y-112103205D02*
X155091064Y-111303205D01*
X155091064Y-111303205D02*
X155014873Y-111417490D01*
X155014873Y-111417490D02*
X154938683Y-111493681D01*
X154938683Y-111493681D02*
X154862492Y-111531776D01*
X156043445Y-111303205D02*
X155662493Y-111303205D01*
X155662493Y-111303205D02*
X155624397Y-111684157D01*
X155624397Y-111684157D02*
X155662493Y-111646062D01*
X155662493Y-111646062D02*
X155738683Y-111607967D01*
X155738683Y-111607967D02*
X155929159Y-111607967D01*
X155929159Y-111607967D02*
X156005350Y-111646062D01*
X156005350Y-111646062D02*
X156043445Y-111684157D01*
X156043445Y-111684157D02*
X156081540Y-111760348D01*
X156081540Y-111760348D02*
X156081540Y-111950824D01*
X156081540Y-111950824D02*
X156043445Y-112027014D01*
X156043445Y-112027014D02*
X156005350Y-112065110D01*
X156005350Y-112065110D02*
X155929159Y-112103205D01*
X155929159Y-112103205D02*
X155738683Y-112103205D01*
X155738683Y-112103205D02*
X155662493Y-112065110D01*
X155662493Y-112065110D02*
X155624397Y-112027014D01*
X133690869Y-58905683D02*
X133690869Y-59477111D01*
X133690869Y-59477111D02*
X133657536Y-59591397D01*
X133657536Y-59591397D02*
X133590869Y-59667588D01*
X133590869Y-59667588D02*
X133490869Y-59705683D01*
X133490869Y-59705683D02*
X133424203Y-59705683D01*
X133957536Y-58905683D02*
X134390869Y-58905683D01*
X134390869Y-58905683D02*
X134157536Y-59210445D01*
X134157536Y-59210445D02*
X134257536Y-59210445D01*
X134257536Y-59210445D02*
X134324202Y-59248540D01*
X134324202Y-59248540D02*
X134357536Y-59286635D01*
X134357536Y-59286635D02*
X134390869Y-59362826D01*
X134390869Y-59362826D02*
X134390869Y-59553302D01*
X134390869Y-59553302D02*
X134357536Y-59629492D01*
X134357536Y-59629492D02*
X134324202Y-59667588D01*
X134324202Y-59667588D02*
X134257536Y-59705683D01*
X134257536Y-59705683D02*
X134057536Y-59705683D01*
X134057536Y-59705683D02*
X133990869Y-59667588D01*
X133990869Y-59667588D02*
X133957536Y-59629492D01*
X132696095Y-64222295D02*
X132429428Y-63841342D01*
X132238952Y-64222295D02*
X132238952Y-63422295D01*
X132238952Y-63422295D02*
X132543714Y-63422295D01*
X132543714Y-63422295D02*
X132619904Y-63460390D01*
X132619904Y-63460390D02*
X132657999Y-63498485D01*
X132657999Y-63498485D02*
X132696095Y-63574676D01*
X132696095Y-63574676D02*
X132696095Y-63688961D01*
X132696095Y-63688961D02*
X132657999Y-63765152D01*
X132657999Y-63765152D02*
X132619904Y-63803247D01*
X132619904Y-63803247D02*
X132543714Y-63841342D01*
X132543714Y-63841342D02*
X132238952Y-63841342D01*
X133038952Y-63803247D02*
X133305618Y-63803247D01*
X133419904Y-64222295D02*
X133038952Y-64222295D01*
X133038952Y-64222295D02*
X133038952Y-63422295D01*
X133038952Y-63422295D02*
X133419904Y-63422295D01*
X133724666Y-64184200D02*
X133838952Y-64222295D01*
X133838952Y-64222295D02*
X134029428Y-64222295D01*
X134029428Y-64222295D02*
X134105619Y-64184200D01*
X134105619Y-64184200D02*
X134143714Y-64146104D01*
X134143714Y-64146104D02*
X134181809Y-64069914D01*
X134181809Y-64069914D02*
X134181809Y-63993723D01*
X134181809Y-63993723D02*
X134143714Y-63917533D01*
X134143714Y-63917533D02*
X134105619Y-63879438D01*
X134105619Y-63879438D02*
X134029428Y-63841342D01*
X134029428Y-63841342D02*
X133877047Y-63803247D01*
X133877047Y-63803247D02*
X133800857Y-63765152D01*
X133800857Y-63765152D02*
X133762762Y-63727057D01*
X133762762Y-63727057D02*
X133724666Y-63650866D01*
X133724666Y-63650866D02*
X133724666Y-63574676D01*
X133724666Y-63574676D02*
X133762762Y-63498485D01*
X133762762Y-63498485D02*
X133800857Y-63460390D01*
X133800857Y-63460390D02*
X133877047Y-63422295D01*
X133877047Y-63422295D02*
X134067524Y-63422295D01*
X134067524Y-63422295D02*
X134181809Y-63460390D01*
X134524667Y-63803247D02*
X134791333Y-63803247D01*
X134905619Y-64222295D02*
X134524667Y-64222295D01*
X134524667Y-64222295D02*
X134524667Y-63422295D01*
X134524667Y-63422295D02*
X134905619Y-63422295D01*
X135134191Y-63422295D02*
X135591334Y-63422295D01*
X135362762Y-64222295D02*
X135362762Y-63422295D01*
X153433963Y-64690082D02*
X153433963Y-65261510D01*
X153433963Y-65261510D02*
X153400630Y-65375796D01*
X153400630Y-65375796D02*
X153333963Y-65451987D01*
X153333963Y-65451987D02*
X153233963Y-65490082D01*
X153233963Y-65490082D02*
X153167297Y-65490082D01*
X153733963Y-64766272D02*
X153767296Y-64728177D01*
X153767296Y-64728177D02*
X153833963Y-64690082D01*
X153833963Y-64690082D02*
X154000630Y-64690082D01*
X154000630Y-64690082D02*
X154067296Y-64728177D01*
X154067296Y-64728177D02*
X154100630Y-64766272D01*
X154100630Y-64766272D02*
X154133963Y-64842463D01*
X154133963Y-64842463D02*
X154133963Y-64918653D01*
X154133963Y-64918653D02*
X154100630Y-65032939D01*
X154100630Y-65032939D02*
X153700630Y-65490082D01*
X153700630Y-65490082D02*
X154133963Y-65490082D01*
X141192557Y-98639313D02*
X141192557Y-99286932D01*
X141192557Y-99286932D02*
X141230652Y-99363122D01*
X141230652Y-99363122D02*
X141268747Y-99401218D01*
X141268747Y-99401218D02*
X141344938Y-99439313D01*
X141344938Y-99439313D02*
X141497319Y-99439313D01*
X141497319Y-99439313D02*
X141573509Y-99401218D01*
X141573509Y-99401218D02*
X141611604Y-99363122D01*
X141611604Y-99363122D02*
X141649700Y-99286932D01*
X141649700Y-99286932D02*
X141649700Y-98639313D01*
X142373509Y-98905979D02*
X142373509Y-99439313D01*
X142183033Y-98601218D02*
X141992556Y-99172646D01*
X141992556Y-99172646D02*
X142487795Y-99172646D01*
X155510647Y-107679072D02*
X155477314Y-107717168D01*
X155477314Y-107717168D02*
X155377314Y-107755263D01*
X155377314Y-107755263D02*
X155310647Y-107755263D01*
X155310647Y-107755263D02*
X155210647Y-107717168D01*
X155210647Y-107717168D02*
X155143981Y-107640977D01*
X155143981Y-107640977D02*
X155110647Y-107564787D01*
X155110647Y-107564787D02*
X155077314Y-107412406D01*
X155077314Y-107412406D02*
X155077314Y-107298120D01*
X155077314Y-107298120D02*
X155110647Y-107145739D01*
X155110647Y-107145739D02*
X155143981Y-107069548D01*
X155143981Y-107069548D02*
X155210647Y-106993358D01*
X155210647Y-106993358D02*
X155310647Y-106955263D01*
X155310647Y-106955263D02*
X155377314Y-106955263D01*
X155377314Y-106955263D02*
X155477314Y-106993358D01*
X155477314Y-106993358D02*
X155510647Y-107031453D01*
X155843981Y-107755263D02*
X155977314Y-107755263D01*
X155977314Y-107755263D02*
X156043981Y-107717168D01*
X156043981Y-107717168D02*
X156077314Y-107679072D01*
X156077314Y-107679072D02*
X156143981Y-107564787D01*
X156143981Y-107564787D02*
X156177314Y-107412406D01*
X156177314Y-107412406D02*
X156177314Y-107107644D01*
X156177314Y-107107644D02*
X156143981Y-107031453D01*
X156143981Y-107031453D02*
X156110647Y-106993358D01*
X156110647Y-106993358D02*
X156043981Y-106955263D01*
X156043981Y-106955263D02*
X155910647Y-106955263D01*
X155910647Y-106955263D02*
X155843981Y-106993358D01*
X155843981Y-106993358D02*
X155810647Y-107031453D01*
X155810647Y-107031453D02*
X155777314Y-107107644D01*
X155777314Y-107107644D02*
X155777314Y-107298120D01*
X155777314Y-107298120D02*
X155810647Y-107374310D01*
X155810647Y-107374310D02*
X155843981Y-107412406D01*
X155843981Y-107412406D02*
X155910647Y-107450501D01*
X155910647Y-107450501D02*
X156043981Y-107450501D01*
X156043981Y-107450501D02*
X156110647Y-107412406D01*
X156110647Y-107412406D02*
X156143981Y-107374310D01*
X156143981Y-107374310D02*
X156177314Y-107298120D01*
X151491024Y-75002199D02*
X151110071Y-75268866D01*
X151491024Y-75459342D02*
X150691024Y-75459342D01*
X150691024Y-75459342D02*
X150691024Y-75154580D01*
X150691024Y-75154580D02*
X150729119Y-75078390D01*
X150729119Y-75078390D02*
X150767214Y-75040295D01*
X150767214Y-75040295D02*
X150843405Y-75002199D01*
X150843405Y-75002199D02*
X150957690Y-75002199D01*
X150957690Y-75002199D02*
X151033881Y-75040295D01*
X151033881Y-75040295D02*
X151071976Y-75078390D01*
X151071976Y-75078390D02*
X151110071Y-75154580D01*
X151110071Y-75154580D02*
X151110071Y-75459342D01*
X150767214Y-74697438D02*
X150729119Y-74659342D01*
X150729119Y-74659342D02*
X150691024Y-74583152D01*
X150691024Y-74583152D02*
X150691024Y-74392676D01*
X150691024Y-74392676D02*
X150729119Y-74316485D01*
X150729119Y-74316485D02*
X150767214Y-74278390D01*
X150767214Y-74278390D02*
X150843405Y-74240295D01*
X150843405Y-74240295D02*
X150919595Y-74240295D01*
X150919595Y-74240295D02*
X151033881Y-74278390D01*
X151033881Y-74278390D02*
X151491024Y-74735533D01*
X151491024Y-74735533D02*
X151491024Y-74240295D01*
X143893749Y-70702321D02*
X143931845Y-70740417D01*
X143931845Y-70740417D02*
X143969940Y-70854702D01*
X143969940Y-70854702D02*
X143969940Y-70930893D01*
X143969940Y-70930893D02*
X143931845Y-71045179D01*
X143931845Y-71045179D02*
X143855654Y-71121369D01*
X143855654Y-71121369D02*
X143779464Y-71159464D01*
X143779464Y-71159464D02*
X143627083Y-71197560D01*
X143627083Y-71197560D02*
X143512797Y-71197560D01*
X143512797Y-71197560D02*
X143360416Y-71159464D01*
X143360416Y-71159464D02*
X143284225Y-71121369D01*
X143284225Y-71121369D02*
X143208035Y-71045179D01*
X143208035Y-71045179D02*
X143169940Y-70930893D01*
X143169940Y-70930893D02*
X143169940Y-70854702D01*
X143169940Y-70854702D02*
X143208035Y-70740417D01*
X143208035Y-70740417D02*
X143246130Y-70702321D01*
X143169940Y-70435655D02*
X143169940Y-69940417D01*
X143169940Y-69940417D02*
X143474702Y-70207083D01*
X143474702Y-70207083D02*
X143474702Y-70092798D01*
X143474702Y-70092798D02*
X143512797Y-70016607D01*
X143512797Y-70016607D02*
X143550892Y-69978512D01*
X143550892Y-69978512D02*
X143627083Y-69940417D01*
X143627083Y-69940417D02*
X143817559Y-69940417D01*
X143817559Y-69940417D02*
X143893749Y-69978512D01*
X143893749Y-69978512D02*
X143931845Y-70016607D01*
X143931845Y-70016607D02*
X143969940Y-70092798D01*
X143969940Y-70092798D02*
X143969940Y-70321369D01*
X143969940Y-70321369D02*
X143931845Y-70397560D01*
X143931845Y-70397560D02*
X143893749Y-70435655D01*
X144106911Y-104132053D02*
X144068815Y-104170149D01*
X144068815Y-104170149D02*
X143954530Y-104208244D01*
X143954530Y-104208244D02*
X143878339Y-104208244D01*
X143878339Y-104208244D02*
X143764053Y-104170149D01*
X143764053Y-104170149D02*
X143687863Y-104093958D01*
X143687863Y-104093958D02*
X143649768Y-104017768D01*
X143649768Y-104017768D02*
X143611672Y-103865387D01*
X143611672Y-103865387D02*
X143611672Y-103751101D01*
X143611672Y-103751101D02*
X143649768Y-103598720D01*
X143649768Y-103598720D02*
X143687863Y-103522529D01*
X143687863Y-103522529D02*
X143764053Y-103446339D01*
X143764053Y-103446339D02*
X143878339Y-103408244D01*
X143878339Y-103408244D02*
X143954530Y-103408244D01*
X143954530Y-103408244D02*
X144068815Y-103446339D01*
X144068815Y-103446339D02*
X144106911Y-103484434D01*
X144373577Y-103408244D02*
X144906911Y-103408244D01*
X144906911Y-103408244D02*
X144564053Y-104208244D01*
X145662667Y-81164104D02*
X145624571Y-81202200D01*
X145624571Y-81202200D02*
X145510286Y-81240295D01*
X145510286Y-81240295D02*
X145434095Y-81240295D01*
X145434095Y-81240295D02*
X145319809Y-81202200D01*
X145319809Y-81202200D02*
X145243619Y-81126009D01*
X145243619Y-81126009D02*
X145205524Y-81049819D01*
X145205524Y-81049819D02*
X145167428Y-80897438D01*
X145167428Y-80897438D02*
X145167428Y-80783152D01*
X145167428Y-80783152D02*
X145205524Y-80630771D01*
X145205524Y-80630771D02*
X145243619Y-80554580D01*
X145243619Y-80554580D02*
X145319809Y-80478390D01*
X145319809Y-80478390D02*
X145434095Y-80440295D01*
X145434095Y-80440295D02*
X145510286Y-80440295D01*
X145510286Y-80440295D02*
X145624571Y-80478390D01*
X145624571Y-80478390D02*
X145662667Y-80516485D01*
X146424571Y-81240295D02*
X145967428Y-81240295D01*
X146196000Y-81240295D02*
X146196000Y-80440295D01*
X146196000Y-80440295D02*
X146119809Y-80554580D01*
X146119809Y-80554580D02*
X146043619Y-80630771D01*
X146043619Y-80630771D02*
X145967428Y-80668866D01*
X149293333Y-58850295D02*
X149293333Y-59421723D01*
X149293333Y-59421723D02*
X149260000Y-59536009D01*
X149260000Y-59536009D02*
X149193333Y-59612200D01*
X149193333Y-59612200D02*
X149093333Y-59650295D01*
X149093333Y-59650295D02*
X149026667Y-59650295D01*
X149993333Y-59650295D02*
X149593333Y-59650295D01*
X149793333Y-59650295D02*
X149793333Y-58850295D01*
X149793333Y-58850295D02*
X149726666Y-58964580D01*
X149726666Y-58964580D02*
X149660000Y-59040771D01*
X149660000Y-59040771D02*
X149593333Y-59078866D01*
X150660000Y-59650295D02*
X150260000Y-59650295D01*
X150460000Y-59650295D02*
X150460000Y-58850295D01*
X150460000Y-58850295D02*
X150393333Y-58964580D01*
X150393333Y-58964580D02*
X150326667Y-59040771D01*
X150326667Y-59040771D02*
X150260000Y-59078866D01*
X148786952Y-63422295D02*
X149053619Y-64222295D01*
X149053619Y-64222295D02*
X149320285Y-63422295D01*
X149586952Y-64222295D02*
X149586952Y-63688961D01*
X149586952Y-63422295D02*
X149548856Y-63460390D01*
X149548856Y-63460390D02*
X149586952Y-63498485D01*
X149586952Y-63498485D02*
X149625047Y-63460390D01*
X149625047Y-63460390D02*
X149586952Y-63422295D01*
X149586952Y-63422295D02*
X149586952Y-63498485D01*
X149967904Y-63688961D02*
X149967904Y-64222295D01*
X149967904Y-63765152D02*
X150005999Y-63727057D01*
X150005999Y-63727057D02*
X150082189Y-63688961D01*
X150082189Y-63688961D02*
X150196475Y-63688961D01*
X150196475Y-63688961D02*
X150272666Y-63727057D01*
X150272666Y-63727057D02*
X150310761Y-63803247D01*
X150310761Y-63803247D02*
X150310761Y-64222295D01*
X148905911Y-107898676D02*
X148872578Y-107936772D01*
X148872578Y-107936772D02*
X148772578Y-107974867D01*
X148772578Y-107974867D02*
X148705911Y-107974867D01*
X148705911Y-107974867D02*
X148605911Y-107936772D01*
X148605911Y-107936772D02*
X148539245Y-107860581D01*
X148539245Y-107860581D02*
X148505911Y-107784391D01*
X148505911Y-107784391D02*
X148472578Y-107632010D01*
X148472578Y-107632010D02*
X148472578Y-107517724D01*
X148472578Y-107517724D02*
X148505911Y-107365343D01*
X148505911Y-107365343D02*
X148539245Y-107289152D01*
X148539245Y-107289152D02*
X148605911Y-107212962D01*
X148605911Y-107212962D02*
X148705911Y-107174867D01*
X148705911Y-107174867D02*
X148772578Y-107174867D01*
X148772578Y-107174867D02*
X148872578Y-107212962D01*
X148872578Y-107212962D02*
X148905911Y-107251057D01*
X149505911Y-107174867D02*
X149372578Y-107174867D01*
X149372578Y-107174867D02*
X149305911Y-107212962D01*
X149305911Y-107212962D02*
X149272578Y-107251057D01*
X149272578Y-107251057D02*
X149205911Y-107365343D01*
X149205911Y-107365343D02*
X149172578Y-107517724D01*
X149172578Y-107517724D02*
X149172578Y-107822486D01*
X149172578Y-107822486D02*
X149205911Y-107898676D01*
X149205911Y-107898676D02*
X149239245Y-107936772D01*
X149239245Y-107936772D02*
X149305911Y-107974867D01*
X149305911Y-107974867D02*
X149439245Y-107974867D01*
X149439245Y-107974867D02*
X149505911Y-107936772D01*
X149505911Y-107936772D02*
X149539245Y-107898676D01*
X149539245Y-107898676D02*
X149572578Y-107822486D01*
X149572578Y-107822486D02*
X149572578Y-107632010D01*
X149572578Y-107632010D02*
X149539245Y-107555819D01*
X149539245Y-107555819D02*
X149505911Y-107517724D01*
X149505911Y-107517724D02*
X149439245Y-107479629D01*
X149439245Y-107479629D02*
X149305911Y-107479629D01*
X149305911Y-107479629D02*
X149239245Y-107517724D01*
X149239245Y-107517724D02*
X149205911Y-107555819D01*
X149205911Y-107555819D02*
X149172578Y-107632010D01*
X148710667Y-70064295D02*
X148444000Y-69683342D01*
X148253524Y-70064295D02*
X148253524Y-69264295D01*
X148253524Y-69264295D02*
X148558286Y-69264295D01*
X148558286Y-69264295D02*
X148634476Y-69302390D01*
X148634476Y-69302390D02*
X148672571Y-69340485D01*
X148672571Y-69340485D02*
X148710667Y-69416676D01*
X148710667Y-69416676D02*
X148710667Y-69530961D01*
X148710667Y-69530961D02*
X148672571Y-69607152D01*
X148672571Y-69607152D02*
X148634476Y-69645247D01*
X148634476Y-69645247D02*
X148558286Y-69683342D01*
X148558286Y-69683342D02*
X148253524Y-69683342D01*
X149396381Y-69530961D02*
X149396381Y-70064295D01*
X149205905Y-69226200D02*
X149015428Y-69797628D01*
X149015428Y-69797628D02*
X149510667Y-69797628D01*
X145915580Y-69940508D02*
X145648913Y-69559555D01*
X145458437Y-69940508D02*
X145458437Y-69140508D01*
X145458437Y-69140508D02*
X145763199Y-69140508D01*
X145763199Y-69140508D02*
X145839389Y-69178603D01*
X145839389Y-69178603D02*
X145877484Y-69216698D01*
X145877484Y-69216698D02*
X145915580Y-69292889D01*
X145915580Y-69292889D02*
X145915580Y-69407174D01*
X145915580Y-69407174D02*
X145877484Y-69483365D01*
X145877484Y-69483365D02*
X145839389Y-69521460D01*
X145839389Y-69521460D02*
X145763199Y-69559555D01*
X145763199Y-69559555D02*
X145458437Y-69559555D01*
X146677484Y-69940508D02*
X146220341Y-69940508D01*
X146448913Y-69940508D02*
X146448913Y-69140508D01*
X146448913Y-69140508D02*
X146372722Y-69254793D01*
X146372722Y-69254793D02*
X146296532Y-69330984D01*
X146296532Y-69330984D02*
X146220341Y-69369079D01*
X145962356Y-107958441D02*
X145929023Y-107996537D01*
X145929023Y-107996537D02*
X145829023Y-108034632D01*
X145829023Y-108034632D02*
X145762356Y-108034632D01*
X145762356Y-108034632D02*
X145662356Y-107996537D01*
X145662356Y-107996537D02*
X145595690Y-107920346D01*
X145595690Y-107920346D02*
X145562356Y-107844156D01*
X145562356Y-107844156D02*
X145529023Y-107691775D01*
X145529023Y-107691775D02*
X145529023Y-107577489D01*
X145529023Y-107577489D02*
X145562356Y-107425108D01*
X145562356Y-107425108D02*
X145595690Y-107348917D01*
X145595690Y-107348917D02*
X145662356Y-107272727D01*
X145662356Y-107272727D02*
X145762356Y-107234632D01*
X145762356Y-107234632D02*
X145829023Y-107234632D01*
X145829023Y-107234632D02*
X145929023Y-107272727D01*
X145929023Y-107272727D02*
X145962356Y-107310822D01*
X146629023Y-108034632D02*
X146229023Y-108034632D01*
X146429023Y-108034632D02*
X146429023Y-107234632D01*
X146429023Y-107234632D02*
X146362356Y-107348917D01*
X146362356Y-107348917D02*
X146295690Y-107425108D01*
X146295690Y-107425108D02*
X146229023Y-107463203D01*
X147295690Y-108034632D02*
X146895690Y-108034632D01*
X147095690Y-108034632D02*
X147095690Y-107234632D01*
X147095690Y-107234632D02*
X147029023Y-107348917D01*
X147029023Y-107348917D02*
X146962357Y-107425108D01*
X146962357Y-107425108D02*
X146895690Y-107463203D01*
X132217570Y-64779069D02*
X132217570Y-65350497D01*
X132217570Y-65350497D02*
X132184237Y-65464783D01*
X132184237Y-65464783D02*
X132117570Y-65540974D01*
X132117570Y-65540974D02*
X132017570Y-65579069D01*
X132017570Y-65579069D02*
X131950904Y-65579069D01*
X132650903Y-65121926D02*
X132584237Y-65083831D01*
X132584237Y-65083831D02*
X132550903Y-65045735D01*
X132550903Y-65045735D02*
X132517570Y-64969545D01*
X132517570Y-64969545D02*
X132517570Y-64931450D01*
X132517570Y-64931450D02*
X132550903Y-64855259D01*
X132550903Y-64855259D02*
X132584237Y-64817164D01*
X132584237Y-64817164D02*
X132650903Y-64779069D01*
X132650903Y-64779069D02*
X132784237Y-64779069D01*
X132784237Y-64779069D02*
X132850903Y-64817164D01*
X132850903Y-64817164D02*
X132884237Y-64855259D01*
X132884237Y-64855259D02*
X132917570Y-64931450D01*
X132917570Y-64931450D02*
X132917570Y-64969545D01*
X132917570Y-64969545D02*
X132884237Y-65045735D01*
X132884237Y-65045735D02*
X132850903Y-65083831D01*
X132850903Y-65083831D02*
X132784237Y-65121926D01*
X132784237Y-65121926D02*
X132650903Y-65121926D01*
X132650903Y-65121926D02*
X132584237Y-65160021D01*
X132584237Y-65160021D02*
X132550903Y-65198116D01*
X132550903Y-65198116D02*
X132517570Y-65274307D01*
X132517570Y-65274307D02*
X132517570Y-65426688D01*
X132517570Y-65426688D02*
X132550903Y-65502878D01*
X132550903Y-65502878D02*
X132584237Y-65540974D01*
X132584237Y-65540974D02*
X132650903Y-65579069D01*
X132650903Y-65579069D02*
X132784237Y-65579069D01*
X132784237Y-65579069D02*
X132850903Y-65540974D01*
X132850903Y-65540974D02*
X132884237Y-65502878D01*
X132884237Y-65502878D02*
X132917570Y-65426688D01*
X132917570Y-65426688D02*
X132917570Y-65274307D01*
X132917570Y-65274307D02*
X132884237Y-65198116D01*
X132884237Y-65198116D02*
X132850903Y-65160021D01*
X132850903Y-65160021D02*
X132784237Y-65121926D01*
X159897710Y-64762062D02*
X159897710Y-65333490D01*
X159897710Y-65333490D02*
X159864377Y-65447776D01*
X159864377Y-65447776D02*
X159797710Y-65523967D01*
X159797710Y-65523967D02*
X159697710Y-65562062D01*
X159697710Y-65562062D02*
X159631044Y-65562062D01*
X160164377Y-64762062D02*
X160631043Y-64762062D01*
X160631043Y-64762062D02*
X160331043Y-65562062D01*
X138433411Y-110023139D02*
X138433411Y-110594567D01*
X138433411Y-110594567D02*
X138400078Y-110708853D01*
X138400078Y-110708853D02*
X138333411Y-110785044D01*
X138333411Y-110785044D02*
X138233411Y-110823139D01*
X138233411Y-110823139D02*
X138166745Y-110823139D01*
X139066744Y-110289805D02*
X139066744Y-110823139D01*
X138900078Y-109985044D02*
X138733411Y-110556472D01*
X138733411Y-110556472D02*
X139166744Y-110556472D01*
X142560360Y-107669378D02*
X142560360Y-108316997D01*
X142560360Y-108316997D02*
X142593694Y-108393187D01*
X142593694Y-108393187D02*
X142627027Y-108431283D01*
X142627027Y-108431283D02*
X142693694Y-108469378D01*
X142693694Y-108469378D02*
X142827027Y-108469378D01*
X142827027Y-108469378D02*
X142893694Y-108431283D01*
X142893694Y-108431283D02*
X142927027Y-108393187D01*
X142927027Y-108393187D02*
X142960360Y-108316997D01*
X142960360Y-108316997D02*
X142960360Y-107669378D01*
X143227027Y-107669378D02*
X143660360Y-107669378D01*
X143660360Y-107669378D02*
X143427027Y-107974140D01*
X143427027Y-107974140D02*
X143527027Y-107974140D01*
X143527027Y-107974140D02*
X143593693Y-108012235D01*
X143593693Y-108012235D02*
X143627027Y-108050330D01*
X143627027Y-108050330D02*
X143660360Y-108126521D01*
X143660360Y-108126521D02*
X143660360Y-108316997D01*
X143660360Y-108316997D02*
X143627027Y-108393187D01*
X143627027Y-108393187D02*
X143593693Y-108431283D01*
X143593693Y-108431283D02*
X143527027Y-108469378D01*
X143527027Y-108469378D02*
X143327027Y-108469378D01*
X143327027Y-108469378D02*
X143260360Y-108431283D01*
X143260360Y-108431283D02*
X143227027Y-108393187D01*
X147561325Y-99151355D02*
X147523229Y-99189451D01*
X147523229Y-99189451D02*
X147408944Y-99227546D01*
X147408944Y-99227546D02*
X147332753Y-99227546D01*
X147332753Y-99227546D02*
X147218467Y-99189451D01*
X147218467Y-99189451D02*
X147142277Y-99113260D01*
X147142277Y-99113260D02*
X147104182Y-99037070D01*
X147104182Y-99037070D02*
X147066086Y-98884689D01*
X147066086Y-98884689D02*
X147066086Y-98770403D01*
X147066086Y-98770403D02*
X147104182Y-98618022D01*
X147104182Y-98618022D02*
X147142277Y-98541831D01*
X147142277Y-98541831D02*
X147218467Y-98465641D01*
X147218467Y-98465641D02*
X147332753Y-98427546D01*
X147332753Y-98427546D02*
X147408944Y-98427546D01*
X147408944Y-98427546D02*
X147523229Y-98465641D01*
X147523229Y-98465641D02*
X147561325Y-98503736D01*
X148018467Y-98770403D02*
X147942277Y-98732308D01*
X147942277Y-98732308D02*
X147904182Y-98694212D01*
X147904182Y-98694212D02*
X147866086Y-98618022D01*
X147866086Y-98618022D02*
X147866086Y-98579927D01*
X147866086Y-98579927D02*
X147904182Y-98503736D01*
X147904182Y-98503736D02*
X147942277Y-98465641D01*
X147942277Y-98465641D02*
X148018467Y-98427546D01*
X148018467Y-98427546D02*
X148170848Y-98427546D01*
X148170848Y-98427546D02*
X148247039Y-98465641D01*
X148247039Y-98465641D02*
X148285134Y-98503736D01*
X148285134Y-98503736D02*
X148323229Y-98579927D01*
X148323229Y-98579927D02*
X148323229Y-98618022D01*
X148323229Y-98618022D02*
X148285134Y-98694212D01*
X148285134Y-98694212D02*
X148247039Y-98732308D01*
X148247039Y-98732308D02*
X148170848Y-98770403D01*
X148170848Y-98770403D02*
X148018467Y-98770403D01*
X148018467Y-98770403D02*
X147942277Y-98808498D01*
X147942277Y-98808498D02*
X147904182Y-98846593D01*
X147904182Y-98846593D02*
X147866086Y-98922784D01*
X147866086Y-98922784D02*
X147866086Y-99075165D01*
X147866086Y-99075165D02*
X147904182Y-99151355D01*
X147904182Y-99151355D02*
X147942277Y-99189451D01*
X147942277Y-99189451D02*
X148018467Y-99227546D01*
X148018467Y-99227546D02*
X148170848Y-99227546D01*
X148170848Y-99227546D02*
X148247039Y-99189451D01*
X148247039Y-99189451D02*
X148285134Y-99151355D01*
X148285134Y-99151355D02*
X148323229Y-99075165D01*
X148323229Y-99075165D02*
X148323229Y-98922784D01*
X148323229Y-98922784D02*
X148285134Y-98846593D01*
X148285134Y-98846593D02*
X148247039Y-98808498D01*
X148247039Y-98808498D02*
X148170848Y-98770403D01*
D13*
X157595488Y-107552681D02*
X157557392Y-107590777D01*
X157557392Y-107590777D02*
X157443107Y-107628872D01*
X157443107Y-107628872D02*
X157366916Y-107628872D01*
X157366916Y-107628872D02*
X157252630Y-107590777D01*
X157252630Y-107590777D02*
X157176440Y-107514586D01*
X157176440Y-107514586D02*
X157138345Y-107438396D01*
X157138345Y-107438396D02*
X157100249Y-107286015D01*
X157100249Y-107286015D02*
X157100249Y-107171729D01*
X157100249Y-107171729D02*
X157138345Y-107019348D01*
X157138345Y-107019348D02*
X157176440Y-106943157D01*
X157176440Y-106943157D02*
X157252630Y-106866967D01*
X157252630Y-106866967D02*
X157366916Y-106828872D01*
X157366916Y-106828872D02*
X157443107Y-106828872D01*
X157443107Y-106828872D02*
X157557392Y-106866967D01*
X157557392Y-106866967D02*
X157595488Y-106905062D01*
X158319297Y-106828872D02*
X157938345Y-106828872D01*
X157938345Y-106828872D02*
X157900249Y-107209824D01*
X157900249Y-107209824D02*
X157938345Y-107171729D01*
X157938345Y-107171729D02*
X158014535Y-107133634D01*
X158014535Y-107133634D02*
X158205011Y-107133634D01*
X158205011Y-107133634D02*
X158281202Y-107171729D01*
X158281202Y-107171729D02*
X158319297Y-107209824D01*
X158319297Y-107209824D02*
X158357392Y-107286015D01*
X158357392Y-107286015D02*
X158357392Y-107476491D01*
X158357392Y-107476491D02*
X158319297Y-107552681D01*
X158319297Y-107552681D02*
X158281202Y-107590777D01*
X158281202Y-107590777D02*
X158205011Y-107628872D01*
X158205011Y-107628872D02*
X158014535Y-107628872D01*
X158014535Y-107628872D02*
X157938345Y-107590777D01*
X157938345Y-107590777D02*
X157900249Y-107552681D01*
D10*
X145528596Y-103181600D02*
X145528596Y-103829219D01*
X145528596Y-103829219D02*
X145566691Y-103905409D01*
X145566691Y-103905409D02*
X145604786Y-103943505D01*
X145604786Y-103943505D02*
X145680977Y-103981600D01*
X145680977Y-103981600D02*
X145833358Y-103981600D01*
X145833358Y-103981600D02*
X145909548Y-103943505D01*
X145909548Y-103943505D02*
X145947643Y-103905409D01*
X145947643Y-103905409D02*
X145985739Y-103829219D01*
X145985739Y-103829219D02*
X145985739Y-103181600D01*
X146747643Y-103181600D02*
X146366691Y-103181600D01*
X146366691Y-103181600D02*
X146328595Y-103562552D01*
X146328595Y-103562552D02*
X146366691Y-103524457D01*
X146366691Y-103524457D02*
X146442881Y-103486362D01*
X146442881Y-103486362D02*
X146633357Y-103486362D01*
X146633357Y-103486362D02*
X146709548Y-103524457D01*
X146709548Y-103524457D02*
X146747643Y-103562552D01*
X146747643Y-103562552D02*
X146785738Y-103638743D01*
X146785738Y-103638743D02*
X146785738Y-103829219D01*
X146785738Y-103829219D02*
X146747643Y-103905409D01*
X146747643Y-103905409D02*
X146709548Y-103943505D01*
X146709548Y-103943505D02*
X146633357Y-103981600D01*
X146633357Y-103981600D02*
X146442881Y-103981600D01*
X146442881Y-103981600D02*
X146366691Y-103943505D01*
X146366691Y-103943505D02*
X146328595Y-103905409D01*
X157709687Y-58765100D02*
X157709687Y-59336528D01*
X157709687Y-59336528D02*
X157676354Y-59450814D01*
X157676354Y-59450814D02*
X157609687Y-59527005D01*
X157609687Y-59527005D02*
X157509687Y-59565100D01*
X157509687Y-59565100D02*
X157443021Y-59565100D01*
X158076354Y-59565100D02*
X158209687Y-59565100D01*
X158209687Y-59565100D02*
X158276354Y-59527005D01*
X158276354Y-59527005D02*
X158309687Y-59488909D01*
X158309687Y-59488909D02*
X158376354Y-59374624D01*
X158376354Y-59374624D02*
X158409687Y-59222243D01*
X158409687Y-59222243D02*
X158409687Y-58917481D01*
X158409687Y-58917481D02*
X158376354Y-58841290D01*
X158376354Y-58841290D02*
X158343020Y-58803195D01*
X158343020Y-58803195D02*
X158276354Y-58765100D01*
X158276354Y-58765100D02*
X158143020Y-58765100D01*
X158143020Y-58765100D02*
X158076354Y-58803195D01*
X158076354Y-58803195D02*
X158043020Y-58841290D01*
X158043020Y-58841290D02*
X158009687Y-58917481D01*
X158009687Y-58917481D02*
X158009687Y-59107957D01*
X158009687Y-59107957D02*
X158043020Y-59184147D01*
X158043020Y-59184147D02*
X158076354Y-59222243D01*
X158076354Y-59222243D02*
X158143020Y-59260338D01*
X158143020Y-59260338D02*
X158276354Y-59260338D01*
X158276354Y-59260338D02*
X158343020Y-59222243D01*
X158343020Y-59222243D02*
X158376354Y-59184147D01*
X158376354Y-59184147D02*
X158409687Y-59107957D01*
X155122933Y-63889709D02*
X155389599Y-63889709D01*
X155503885Y-64308757D02*
X155122933Y-64308757D01*
X155122933Y-64308757D02*
X155122933Y-63508757D01*
X155122933Y-63508757D02*
X155503885Y-63508757D01*
X155846743Y-64308757D02*
X155846743Y-63508757D01*
X155846743Y-63508757D02*
X156303886Y-64308757D01*
X156303886Y-64308757D02*
X156303886Y-63508757D01*
X157256266Y-63470662D02*
X156570552Y-64499233D01*
X157522933Y-64308757D02*
X157522933Y-63508757D01*
X157522933Y-63508757D02*
X157713409Y-63508757D01*
X157713409Y-63508757D02*
X157827695Y-63546852D01*
X157827695Y-63546852D02*
X157903885Y-63623042D01*
X157903885Y-63623042D02*
X157941980Y-63699233D01*
X157941980Y-63699233D02*
X157980076Y-63851614D01*
X157980076Y-63851614D02*
X157980076Y-63965900D01*
X157980076Y-63965900D02*
X157941980Y-64118281D01*
X157941980Y-64118281D02*
X157903885Y-64194471D01*
X157903885Y-64194471D02*
X157827695Y-64270662D01*
X157827695Y-64270662D02*
X157713409Y-64308757D01*
X157713409Y-64308757D02*
X157522933Y-64308757D01*
X158322933Y-64308757D02*
X158322933Y-63775423D01*
X158322933Y-63508757D02*
X158284837Y-63546852D01*
X158284837Y-63546852D02*
X158322933Y-63584947D01*
X158322933Y-63584947D02*
X158361028Y-63546852D01*
X158361028Y-63546852D02*
X158322933Y-63508757D01*
X158322933Y-63508757D02*
X158322933Y-63584947D01*
X158665789Y-64270662D02*
X158741980Y-64308757D01*
X158741980Y-64308757D02*
X158894361Y-64308757D01*
X158894361Y-64308757D02*
X158970551Y-64270662D01*
X158970551Y-64270662D02*
X159008647Y-64194471D01*
X159008647Y-64194471D02*
X159008647Y-64156376D01*
X159008647Y-64156376D02*
X158970551Y-64080185D01*
X158970551Y-64080185D02*
X158894361Y-64042090D01*
X158894361Y-64042090D02*
X158780075Y-64042090D01*
X158780075Y-64042090D02*
X158703885Y-64003995D01*
X158703885Y-64003995D02*
X158665789Y-63927804D01*
X158665789Y-63927804D02*
X158665789Y-63889709D01*
X158665789Y-63889709D02*
X158703885Y-63813519D01*
X158703885Y-63813519D02*
X158780075Y-63775423D01*
X158780075Y-63775423D02*
X158894361Y-63775423D01*
X158894361Y-63775423D02*
X158970551Y-63813519D01*
X159694361Y-64308757D02*
X159694361Y-63889709D01*
X159694361Y-63889709D02*
X159656266Y-63813519D01*
X159656266Y-63813519D02*
X159580075Y-63775423D01*
X159580075Y-63775423D02*
X159427694Y-63775423D01*
X159427694Y-63775423D02*
X159351504Y-63813519D01*
X159694361Y-64270662D02*
X159618170Y-64308757D01*
X159618170Y-64308757D02*
X159427694Y-64308757D01*
X159427694Y-64308757D02*
X159351504Y-64270662D01*
X159351504Y-64270662D02*
X159313408Y-64194471D01*
X159313408Y-64194471D02*
X159313408Y-64118281D01*
X159313408Y-64118281D02*
X159351504Y-64042090D01*
X159351504Y-64042090D02*
X159427694Y-64003995D01*
X159427694Y-64003995D02*
X159618170Y-64003995D01*
X159618170Y-64003995D02*
X159694361Y-63965900D01*
X160075314Y-64308757D02*
X160075314Y-63508757D01*
X160075314Y-63813519D02*
X160151504Y-63775423D01*
X160151504Y-63775423D02*
X160303885Y-63775423D01*
X160303885Y-63775423D02*
X160380076Y-63813519D01*
X160380076Y-63813519D02*
X160418171Y-63851614D01*
X160418171Y-63851614D02*
X160456266Y-63927804D01*
X160456266Y-63927804D02*
X160456266Y-64156376D01*
X160456266Y-64156376D02*
X160418171Y-64232566D01*
X160418171Y-64232566D02*
X160380076Y-64270662D01*
X160380076Y-64270662D02*
X160303885Y-64308757D01*
X160303885Y-64308757D02*
X160151504Y-64308757D01*
X160151504Y-64308757D02*
X160075314Y-64270662D01*
X160913409Y-64308757D02*
X160837219Y-64270662D01*
X160837219Y-64270662D02*
X160799124Y-64194471D01*
X160799124Y-64194471D02*
X160799124Y-63508757D01*
X161522934Y-64270662D02*
X161446743Y-64308757D01*
X161446743Y-64308757D02*
X161294362Y-64308757D01*
X161294362Y-64308757D02*
X161218172Y-64270662D01*
X161218172Y-64270662D02*
X161180076Y-64194471D01*
X161180076Y-64194471D02*
X161180076Y-63889709D01*
X161180076Y-63889709D02*
X161218172Y-63813519D01*
X161218172Y-63813519D02*
X161294362Y-63775423D01*
X161294362Y-63775423D02*
X161446743Y-63775423D01*
X161446743Y-63775423D02*
X161522934Y-63813519D01*
X161522934Y-63813519D02*
X161561029Y-63889709D01*
X161561029Y-63889709D02*
X161561029Y-63965900D01*
X161561029Y-63965900D02*
X161180076Y-64042090D01*
X145404106Y-99165833D02*
X145366010Y-99203929D01*
X145366010Y-99203929D02*
X145251725Y-99242024D01*
X145251725Y-99242024D02*
X145175534Y-99242024D01*
X145175534Y-99242024D02*
X145061248Y-99203929D01*
X145061248Y-99203929D02*
X144985058Y-99127738D01*
X144985058Y-99127738D02*
X144946963Y-99051548D01*
X144946963Y-99051548D02*
X144908867Y-98899167D01*
X144908867Y-98899167D02*
X144908867Y-98784881D01*
X144908867Y-98784881D02*
X144946963Y-98632500D01*
X144946963Y-98632500D02*
X144985058Y-98556309D01*
X144985058Y-98556309D02*
X145061248Y-98480119D01*
X145061248Y-98480119D02*
X145175534Y-98442024D01*
X145175534Y-98442024D02*
X145251725Y-98442024D01*
X145251725Y-98442024D02*
X145366010Y-98480119D01*
X145366010Y-98480119D02*
X145404106Y-98518214D01*
X146089820Y-98708690D02*
X146089820Y-99242024D01*
X145899344Y-98403929D02*
X145708867Y-98975357D01*
X145708867Y-98975357D02*
X146204106Y-98975357D01*
D11*
X134034230Y-111155784D02*
X134034230Y-111727212D01*
X134034230Y-111727212D02*
X134000897Y-111841498D01*
X134000897Y-111841498D02*
X133934230Y-111917689D01*
X133934230Y-111917689D02*
X133834230Y-111955784D01*
X133834230Y-111955784D02*
X133767564Y-111955784D01*
X134734230Y-111955784D02*
X134334230Y-111955784D01*
X134534230Y-111955784D02*
X134534230Y-111155784D01*
X134534230Y-111155784D02*
X134467563Y-111270069D01*
X134467563Y-111270069D02*
X134400897Y-111346260D01*
X134400897Y-111346260D02*
X134334230Y-111384355D01*
X135334230Y-111422450D02*
X135334230Y-111955784D01*
X135167564Y-111117689D02*
X135000897Y-111689117D01*
X135000897Y-111689117D02*
X135434230Y-111689117D01*
D10*
X141739978Y-58832698D02*
X141739978Y-59404126D01*
X141739978Y-59404126D02*
X141706645Y-59518412D01*
X141706645Y-59518412D02*
X141639978Y-59594603D01*
X141639978Y-59594603D02*
X141539978Y-59632698D01*
X141539978Y-59632698D02*
X141473312Y-59632698D01*
X142439978Y-59632698D02*
X142039978Y-59632698D01*
X142239978Y-59632698D02*
X142239978Y-58832698D01*
X142239978Y-58832698D02*
X142173311Y-58946983D01*
X142173311Y-58946983D02*
X142106645Y-59023174D01*
X142106645Y-59023174D02*
X142039978Y-59061269D01*
X142706645Y-58908888D02*
X142739978Y-58870793D01*
X142739978Y-58870793D02*
X142806645Y-58832698D01*
X142806645Y-58832698D02*
X142973312Y-58832698D01*
X142973312Y-58832698D02*
X143039978Y-58870793D01*
X143039978Y-58870793D02*
X143073312Y-58908888D01*
X143073312Y-58908888D02*
X143106645Y-58985079D01*
X143106645Y-58985079D02*
X143106645Y-59061269D01*
X143106645Y-59061269D02*
X143073312Y-59175555D01*
X143073312Y-59175555D02*
X142673312Y-59632698D01*
X142673312Y-59632698D02*
X143106645Y-59632698D01*
X141020952Y-63422295D02*
X141287619Y-64222295D01*
X141287619Y-64222295D02*
X141554285Y-63422295D01*
X141935237Y-64222295D02*
X141859047Y-64184200D01*
X141859047Y-64184200D02*
X141820952Y-64146104D01*
X141820952Y-64146104D02*
X141782856Y-64069914D01*
X141782856Y-64069914D02*
X141782856Y-63841342D01*
X141782856Y-63841342D02*
X141820952Y-63765152D01*
X141820952Y-63765152D02*
X141859047Y-63727057D01*
X141859047Y-63727057D02*
X141935237Y-63688961D01*
X141935237Y-63688961D02*
X142049523Y-63688961D01*
X142049523Y-63688961D02*
X142125714Y-63727057D01*
X142125714Y-63727057D02*
X142163809Y-63765152D01*
X142163809Y-63765152D02*
X142201904Y-63841342D01*
X142201904Y-63841342D02*
X142201904Y-64069914D01*
X142201904Y-64069914D02*
X142163809Y-64146104D01*
X142163809Y-64146104D02*
X142125714Y-64184200D01*
X142125714Y-64184200D02*
X142049523Y-64222295D01*
X142049523Y-64222295D02*
X141935237Y-64222295D01*
X142887619Y-63688961D02*
X142887619Y-64222295D01*
X142544762Y-63688961D02*
X142544762Y-64108009D01*
X142544762Y-64108009D02*
X142582857Y-64184200D01*
X142582857Y-64184200D02*
X142659047Y-64222295D01*
X142659047Y-64222295D02*
X142773333Y-64222295D01*
X142773333Y-64222295D02*
X142849524Y-64184200D01*
X142849524Y-64184200D02*
X142887619Y-64146104D01*
X143154286Y-63688961D02*
X143459048Y-63688961D01*
X143268572Y-63422295D02*
X143268572Y-64108009D01*
X143268572Y-64108009D02*
X143306667Y-64184200D01*
X143306667Y-64184200D02*
X143382857Y-64222295D01*
X143382857Y-64222295D02*
X143459048Y-64222295D01*
X138285614Y-64854265D02*
X138285614Y-65425693D01*
X138285614Y-65425693D02*
X138252281Y-65539979D01*
X138252281Y-65539979D02*
X138185614Y-65616170D01*
X138185614Y-65616170D02*
X138085614Y-65654265D01*
X138085614Y-65654265D02*
X138018948Y-65654265D01*
X138985614Y-65654265D02*
X138585614Y-65654265D01*
X138785614Y-65654265D02*
X138785614Y-64854265D01*
X138785614Y-64854265D02*
X138718947Y-64968550D01*
X138718947Y-64968550D02*
X138652281Y-65044741D01*
X138652281Y-65044741D02*
X138585614Y-65082836D01*
X145123082Y-73124331D02*
X145123082Y-73771950D01*
X145123082Y-73771950D02*
X145156416Y-73848140D01*
X145156416Y-73848140D02*
X145189749Y-73886236D01*
X145189749Y-73886236D02*
X145256416Y-73924331D01*
X145256416Y-73924331D02*
X145389749Y-73924331D01*
X145389749Y-73924331D02*
X145456416Y-73886236D01*
X145456416Y-73886236D02*
X145489749Y-73848140D01*
X145489749Y-73848140D02*
X145523082Y-73771950D01*
X145523082Y-73771950D02*
X145523082Y-73124331D01*
X146223082Y-73924331D02*
X145823082Y-73924331D01*
X146023082Y-73924331D02*
X146023082Y-73124331D01*
X146023082Y-73124331D02*
X145956415Y-73238616D01*
X145956415Y-73238616D02*
X145889749Y-73314807D01*
X145889749Y-73314807D02*
X145823082Y-73352902D01*
X143796104Y-73374666D02*
X143834200Y-73407999D01*
X143834200Y-73407999D02*
X143872295Y-73507999D01*
X143872295Y-73507999D02*
X143872295Y-73574666D01*
X143872295Y-73574666D02*
X143834200Y-73674666D01*
X143834200Y-73674666D02*
X143758009Y-73741333D01*
X143758009Y-73741333D02*
X143681819Y-73774666D01*
X143681819Y-73774666D02*
X143529438Y-73807999D01*
X143529438Y-73807999D02*
X143415152Y-73807999D01*
X143415152Y-73807999D02*
X143262771Y-73774666D01*
X143262771Y-73774666D02*
X143186580Y-73741333D01*
X143186580Y-73741333D02*
X143110390Y-73674666D01*
X143110390Y-73674666D02*
X143072295Y-73574666D01*
X143072295Y-73574666D02*
X143072295Y-73507999D01*
X143072295Y-73507999D02*
X143110390Y-73407999D01*
X143110390Y-73407999D02*
X143148485Y-73374666D01*
X143148485Y-73107999D02*
X143110390Y-73074666D01*
X143110390Y-73074666D02*
X143072295Y-73007999D01*
X143072295Y-73007999D02*
X143072295Y-72841333D01*
X143072295Y-72841333D02*
X143110390Y-72774666D01*
X143110390Y-72774666D02*
X143148485Y-72741333D01*
X143148485Y-72741333D02*
X143224676Y-72707999D01*
X143224676Y-72707999D02*
X143300866Y-72707999D01*
X143300866Y-72707999D02*
X143415152Y-72741333D01*
X143415152Y-72741333D02*
X143872295Y-73141333D01*
X143872295Y-73141333D02*
X143872295Y-72707999D01*
X151723463Y-106723564D02*
X151723463Y-107371183D01*
X151723463Y-107371183D02*
X151756797Y-107447373D01*
X151756797Y-107447373D02*
X151790130Y-107485469D01*
X151790130Y-107485469D02*
X151856797Y-107523564D01*
X151856797Y-107523564D02*
X151990130Y-107523564D01*
X151990130Y-107523564D02*
X152056797Y-107485469D01*
X152056797Y-107485469D02*
X152090130Y-107447373D01*
X152090130Y-107447373D02*
X152123463Y-107371183D01*
X152123463Y-107371183D02*
X152123463Y-106723564D01*
X152423463Y-106799754D02*
X152456796Y-106761659D01*
X152456796Y-106761659D02*
X152523463Y-106723564D01*
X152523463Y-106723564D02*
X152690130Y-106723564D01*
X152690130Y-106723564D02*
X152756796Y-106761659D01*
X152756796Y-106761659D02*
X152790130Y-106799754D01*
X152790130Y-106799754D02*
X152823463Y-106875945D01*
X152823463Y-106875945D02*
X152823463Y-106952135D01*
X152823463Y-106952135D02*
X152790130Y-107066421D01*
X152790130Y-107066421D02*
X152390130Y-107523564D01*
X152390130Y-107523564D02*
X152823463Y-107523564D01*
X161912380Y-116000295D02*
X161912380Y-116571723D01*
X161912380Y-116571723D02*
X161874285Y-116686009D01*
X161874285Y-116686009D02*
X161798094Y-116762200D01*
X161798094Y-116762200D02*
X161683809Y-116800295D01*
X161683809Y-116800295D02*
X161607618Y-116800295D01*
X162712380Y-116800295D02*
X162255237Y-116800295D01*
X162483809Y-116800295D02*
X162483809Y-116000295D01*
X162483809Y-116000295D02*
X162407618Y-116114580D01*
X162407618Y-116114580D02*
X162331428Y-116190771D01*
X162331428Y-116190771D02*
X162255237Y-116228866D01*
X162979047Y-116000295D02*
X163474285Y-116000295D01*
X163474285Y-116000295D02*
X163207619Y-116305057D01*
X163207619Y-116305057D02*
X163321904Y-116305057D01*
X163321904Y-116305057D02*
X163398095Y-116343152D01*
X163398095Y-116343152D02*
X163436190Y-116381247D01*
X163436190Y-116381247D02*
X163474285Y-116457438D01*
X163474285Y-116457438D02*
X163474285Y-116647914D01*
X163474285Y-116647914D02*
X163436190Y-116724104D01*
X163436190Y-116724104D02*
X163398095Y-116762200D01*
X163398095Y-116762200D02*
X163321904Y-116800295D01*
X163321904Y-116800295D02*
X163093333Y-116800295D01*
X163093333Y-116800295D02*
X163017142Y-116762200D01*
X163017142Y-116762200D02*
X162979047Y-116724104D01*
%TO.C,lg1*%
D14*
X150111927Y-83832721D02*
X150130357Y-83858933D01*
X150141516Y-83887036D01*
X150143572Y-83899905D01*
X150128649Y-83906171D01*
X150096175Y-83918544D01*
X150081502Y-83923972D01*
X150030744Y-83954410D01*
X150005427Y-83998480D01*
X150006206Y-84054990D01*
X150007203Y-84059175D01*
X150021507Y-84089345D01*
X150049393Y-84111524D01*
X150094287Y-84126673D01*
X150159615Y-84135750D01*
X150248804Y-84139714D01*
X150296261Y-84140086D01*
X150371071Y-84140270D01*
X150422069Y-84141478D01*
X150454471Y-84144691D01*
X150473495Y-84150891D01*
X150484356Y-84161060D01*
X150492272Y-84176181D01*
X150492670Y-84177054D01*
X150504981Y-84206172D01*
X150509514Y-84220597D01*
X150495809Y-84222814D01*
X150457925Y-84224711D01*
X150400715Y-84226153D01*
X150329027Y-84227002D01*
X150276565Y-84227171D01*
X150175047Y-84226308D01*
X150098032Y-84222930D01*
X150041023Y-84215858D01*
X149999526Y-84203912D01*
X149969043Y-84185910D01*
X149945080Y-84160673D01*
X149928355Y-84135753D01*
X149906097Y-84075829D01*
X149901076Y-84006089D01*
X149913752Y-83940400D01*
X149921334Y-83923052D01*
X149954128Y-83881644D01*
X150001547Y-83846235D01*
X150052151Y-83824336D01*
X150077098Y-83820771D01*
X150111927Y-83832721D01*
G36*
X150111927Y-83832721D02*
G01*
X150130357Y-83858933D01*
X150141516Y-83887036D01*
X150143572Y-83899905D01*
X150128649Y-83906171D01*
X150096175Y-83918544D01*
X150081502Y-83923972D01*
X150030744Y-83954410D01*
X150005427Y-83998480D01*
X150006206Y-84054990D01*
X150007203Y-84059175D01*
X150021507Y-84089345D01*
X150049393Y-84111524D01*
X150094287Y-84126673D01*
X150159615Y-84135750D01*
X150248804Y-84139714D01*
X150296261Y-84140086D01*
X150371071Y-84140270D01*
X150422069Y-84141478D01*
X150454471Y-84144691D01*
X150473495Y-84150891D01*
X150484356Y-84161060D01*
X150492272Y-84176181D01*
X150492670Y-84177054D01*
X150504981Y-84206172D01*
X150509514Y-84220597D01*
X150495809Y-84222814D01*
X150457925Y-84224711D01*
X150400715Y-84226153D01*
X150329027Y-84227002D01*
X150276565Y-84227171D01*
X150175047Y-84226308D01*
X150098032Y-84222930D01*
X150041023Y-84215858D01*
X149999526Y-84203912D01*
X149969043Y-84185910D01*
X149945080Y-84160673D01*
X149928355Y-84135753D01*
X149906097Y-84075829D01*
X149901076Y-84006089D01*
X149913752Y-83940400D01*
X149921334Y-83923052D01*
X149954128Y-83881644D01*
X150001547Y-83846235D01*
X150052151Y-83824336D01*
X150077098Y-83820771D01*
X150111927Y-83832721D01*
G37*
X150495044Y-87801314D02*
X150522697Y-87863000D01*
X150282670Y-87870257D01*
X150193028Y-87873256D01*
X150127962Y-87876402D01*
X150083026Y-87880299D01*
X150053770Y-87885553D01*
X150035748Y-87892769D01*
X150024511Y-87902550D01*
X150022079Y-87905688D01*
X150003083Y-87953239D01*
X150010600Y-88001303D01*
X150030543Y-88029914D01*
X150044675Y-88041553D01*
X150063220Y-88049609D01*
X150091334Y-88054729D01*
X150134173Y-88057559D01*
X150196895Y-88058744D01*
X150262261Y-88058943D01*
X150344268Y-88058982D01*
X150402316Y-88060386D01*
X150441465Y-88065086D01*
X150466780Y-88075013D01*
X150483323Y-88092097D01*
X150496156Y-88118268D01*
X150509491Y-88153225D01*
X150524007Y-88191404D01*
X150266389Y-88186859D01*
X150173519Y-88185029D01*
X150104889Y-88182888D01*
X150055711Y-88179819D01*
X150021198Y-88175206D01*
X149996562Y-88168432D01*
X149977016Y-88158881D01*
X149959770Y-88147366D01*
X149904680Y-88091810D01*
X149872822Y-88024020D01*
X149865191Y-87950287D01*
X149882780Y-87876907D01*
X149909723Y-87830328D01*
X149936466Y-87797943D01*
X149964484Y-87774258D01*
X149998748Y-87757941D01*
X150044227Y-87747661D01*
X150105892Y-87742086D01*
X150188711Y-87739884D01*
X150248246Y-87739629D01*
X150467391Y-87739629D01*
X150495044Y-87801314D01*
G36*
X150495044Y-87801314D02*
G01*
X150522697Y-87863000D01*
X150282670Y-87870257D01*
X150193028Y-87873256D01*
X150127962Y-87876402D01*
X150083026Y-87880299D01*
X150053770Y-87885553D01*
X150035748Y-87892769D01*
X150024511Y-87902550D01*
X150022079Y-87905688D01*
X150003083Y-87953239D01*
X150010600Y-88001303D01*
X150030543Y-88029914D01*
X150044675Y-88041553D01*
X150063220Y-88049609D01*
X150091334Y-88054729D01*
X150134173Y-88057559D01*
X150196895Y-88058744D01*
X150262261Y-88058943D01*
X150344268Y-88058982D01*
X150402316Y-88060386D01*
X150441465Y-88065086D01*
X150466780Y-88075013D01*
X150483323Y-88092097D01*
X150496156Y-88118268D01*
X150509491Y-88153225D01*
X150524007Y-88191404D01*
X150266389Y-88186859D01*
X150173519Y-88185029D01*
X150104889Y-88182888D01*
X150055711Y-88179819D01*
X150021198Y-88175206D01*
X149996562Y-88168432D01*
X149977016Y-88158881D01*
X149959770Y-88147366D01*
X149904680Y-88091810D01*
X149872822Y-88024020D01*
X149865191Y-87950287D01*
X149882780Y-87876907D01*
X149909723Y-87830328D01*
X149936466Y-87797943D01*
X149964484Y-87774258D01*
X149998748Y-87757941D01*
X150044227Y-87747661D01*
X150105892Y-87742086D01*
X150188711Y-87739884D01*
X150248246Y-87739629D01*
X150467391Y-87739629D01*
X150495044Y-87801314D01*
G37*
X150098186Y-85900534D02*
X150125217Y-85924438D01*
X150129813Y-85933283D01*
X150144144Y-85971470D01*
X150140472Y-85990972D01*
X150116407Y-85997578D01*
X150103114Y-85997914D01*
X150054210Y-86010008D01*
X150019999Y-86041529D01*
X150003476Y-86085341D01*
X150007634Y-86134305D01*
X150029227Y-86174106D01*
X150041544Y-86187550D01*
X150056487Y-86197079D01*
X150079075Y-86203515D01*
X150114328Y-86207683D01*
X150167266Y-86210403D01*
X150242907Y-86212498D01*
X150266857Y-86213040D01*
X150348790Y-86215019D01*
X150406455Y-86217269D01*
X150444608Y-86220643D01*
X150468004Y-86225994D01*
X150481398Y-86234176D01*
X150489545Y-86246041D01*
X150493144Y-86253638D01*
X150505452Y-86285898D01*
X150509514Y-86304889D01*
X150495948Y-86311164D01*
X150454934Y-86314994D01*
X150385999Y-86316400D01*
X150288669Y-86315402D01*
X150273657Y-86315092D01*
X150184859Y-86312899D01*
X150120019Y-86310307D01*
X150074067Y-86306618D01*
X150041935Y-86301136D01*
X150018553Y-86293165D01*
X149998852Y-86282007D01*
X149990410Y-86276170D01*
X149953057Y-86242704D01*
X149924003Y-86205273D01*
X149921467Y-86200691D01*
X149901443Y-86133574D01*
X149904755Y-86063074D01*
X149929084Y-85997142D01*
X149972117Y-85943727D01*
X150002409Y-85922836D01*
X150057994Y-85900061D01*
X150098186Y-85900534D01*
G36*
X150098186Y-85900534D02*
G01*
X150125217Y-85924438D01*
X150129813Y-85933283D01*
X150144144Y-85971470D01*
X150140472Y-85990972D01*
X150116407Y-85997578D01*
X150103114Y-85997914D01*
X150054210Y-86010008D01*
X150019999Y-86041529D01*
X150003476Y-86085341D01*
X150007634Y-86134305D01*
X150029227Y-86174106D01*
X150041544Y-86187550D01*
X150056487Y-86197079D01*
X150079075Y-86203515D01*
X150114328Y-86207683D01*
X150167266Y-86210403D01*
X150242907Y-86212498D01*
X150266857Y-86213040D01*
X150348790Y-86215019D01*
X150406455Y-86217269D01*
X150444608Y-86220643D01*
X150468004Y-86225994D01*
X150481398Y-86234176D01*
X150489545Y-86246041D01*
X150493144Y-86253638D01*
X150505452Y-86285898D01*
X150509514Y-86304889D01*
X150495948Y-86311164D01*
X150454934Y-86314994D01*
X150385999Y-86316400D01*
X150288669Y-86315402D01*
X150273657Y-86315092D01*
X150184859Y-86312899D01*
X150120019Y-86310307D01*
X150074067Y-86306618D01*
X150041935Y-86301136D01*
X150018553Y-86293165D01*
X149998852Y-86282007D01*
X149990410Y-86276170D01*
X149953057Y-86242704D01*
X149924003Y-86205273D01*
X149921467Y-86200691D01*
X149901443Y-86133574D01*
X149904755Y-86063074D01*
X149929084Y-85997142D01*
X149972117Y-85943727D01*
X150002409Y-85922836D01*
X150057994Y-85900061D01*
X150098186Y-85900534D01*
G37*
X150493580Y-86943509D02*
X150504420Y-86975973D01*
X150509468Y-86993785D01*
X150509514Y-86994309D01*
X150495828Y-86996063D01*
X150458076Y-86997556D01*
X150401224Y-86998674D01*
X150330234Y-86999303D01*
X150287073Y-86999400D01*
X150201973Y-86999602D01*
X150140981Y-87000642D01*
X150099177Y-87003169D01*
X150071642Y-87007836D01*
X150053456Y-87015293D01*
X150039698Y-87026189D01*
X150033073Y-87032993D01*
X150006375Y-87079728D01*
X150004375Y-87130728D01*
X150026955Y-87176999D01*
X150035107Y-87185556D01*
X150050436Y-87198107D01*
X150068618Y-87206812D01*
X150094909Y-87212369D01*
X150134562Y-87215474D01*
X150192832Y-87216824D01*
X150273173Y-87217114D01*
X150477646Y-87217114D01*
X150493580Y-87262823D01*
X150504420Y-87295287D01*
X150509468Y-87313099D01*
X150509514Y-87313623D01*
X150495623Y-87314963D01*
X150456439Y-87316172D01*
X150395700Y-87317199D01*
X150317141Y-87317998D01*
X150224498Y-87318519D01*
X150121509Y-87318714D01*
X149724342Y-87318714D01*
X149704444Y-87271543D01*
X149684547Y-87224371D01*
X149806289Y-87217114D01*
X149865613Y-87212861D01*
X149900572Y-87207975D01*
X149915820Y-87201205D01*
X149916015Y-87191298D01*
X149914195Y-87188086D01*
X149901015Y-87145356D01*
X149901785Y-87089773D01*
X149915333Y-87033263D01*
X149932861Y-86997918D01*
X149960861Y-86961679D01*
X149992549Y-86935187D01*
X150032813Y-86917001D01*
X150086543Y-86905678D01*
X150158626Y-86899778D01*
X150253951Y-86897857D01*
X150272237Y-86897823D01*
X150477646Y-86897800D01*
X150493580Y-86943509D01*
G36*
X150493580Y-86943509D02*
G01*
X150504420Y-86975973D01*
X150509468Y-86993785D01*
X150509514Y-86994309D01*
X150495828Y-86996063D01*
X150458076Y-86997556D01*
X150401224Y-86998674D01*
X150330234Y-86999303D01*
X150287073Y-86999400D01*
X150201973Y-86999602D01*
X150140981Y-87000642D01*
X150099177Y-87003169D01*
X150071642Y-87007836D01*
X150053456Y-87015293D01*
X150039698Y-87026189D01*
X150033073Y-87032993D01*
X150006375Y-87079728D01*
X150004375Y-87130728D01*
X150026955Y-87176999D01*
X150035107Y-87185556D01*
X150050436Y-87198107D01*
X150068618Y-87206812D01*
X150094909Y-87212369D01*
X150134562Y-87215474D01*
X150192832Y-87216824D01*
X150273173Y-87217114D01*
X150477646Y-87217114D01*
X150493580Y-87262823D01*
X150504420Y-87295287D01*
X150509468Y-87313099D01*
X150509514Y-87313623D01*
X150495623Y-87314963D01*
X150456439Y-87316172D01*
X150395700Y-87317199D01*
X150317141Y-87317998D01*
X150224498Y-87318519D01*
X150121509Y-87318714D01*
X149724342Y-87318714D01*
X149704444Y-87271543D01*
X149684547Y-87224371D01*
X149806289Y-87217114D01*
X149865613Y-87212861D01*
X149900572Y-87207975D01*
X149915820Y-87201205D01*
X149916015Y-87191298D01*
X149914195Y-87188086D01*
X149901015Y-87145356D01*
X149901785Y-87089773D01*
X149915333Y-87033263D01*
X149932861Y-86997918D01*
X149960861Y-86961679D01*
X149992549Y-86935187D01*
X150032813Y-86917001D01*
X150086543Y-86905678D01*
X150158626Y-86899778D01*
X150253951Y-86897857D01*
X150272237Y-86897823D01*
X150477646Y-86897800D01*
X150493580Y-86943509D01*
G37*
X150466127Y-84853674D02*
X150494429Y-84885325D01*
X150505893Y-84913110D01*
X150505168Y-84951085D01*
X150503321Y-84966160D01*
X150497948Y-85013274D01*
X150494869Y-85052244D01*
X150494585Y-85061743D01*
X150496445Y-85093767D01*
X150501114Y-85139568D01*
X150503321Y-85157326D01*
X150506735Y-85200943D01*
X150499320Y-85230255D01*
X150476427Y-85259320D01*
X150466127Y-85269812D01*
X150420196Y-85315743D01*
X149933602Y-85315743D01*
X149916758Y-85278774D01*
X149904282Y-85246941D01*
X149899914Y-85228317D01*
X149913718Y-85223542D01*
X149952286Y-85219079D01*
X150011356Y-85215225D01*
X150086663Y-85212278D01*
X150150286Y-85210857D01*
X150400657Y-85206886D01*
X150405556Y-85172241D01*
X150402131Y-85140732D01*
X150391041Y-85125292D01*
X150370308Y-85120977D01*
X150326145Y-85117292D01*
X150264146Y-85114531D01*
X150189909Y-85112988D01*
X150151706Y-85112765D01*
X149931783Y-85112543D01*
X149915849Y-85066834D01*
X149905015Y-85034482D01*
X149899962Y-85016885D01*
X149899914Y-85016377D01*
X149913648Y-85014612D01*
X149951730Y-85012671D01*
X150009482Y-85010718D01*
X150082227Y-85008916D01*
X150150286Y-85007657D01*
X150400657Y-85003686D01*
X150400657Y-84916600D01*
X150172240Y-84912604D01*
X149943822Y-84908608D01*
X149921868Y-84866153D01*
X149906793Y-84834808D01*
X149899951Y-84816256D01*
X149899914Y-84815721D01*
X149913663Y-84813167D01*
X149951850Y-84810952D01*
X150009886Y-84809216D01*
X150083180Y-84808101D01*
X150160055Y-84807743D01*
X150420196Y-84807743D01*
X150466127Y-84853674D01*
G36*
X150466127Y-84853674D02*
G01*
X150494429Y-84885325D01*
X150505893Y-84913110D01*
X150505168Y-84951085D01*
X150503321Y-84966160D01*
X150497948Y-85013274D01*
X150494869Y-85052244D01*
X150494585Y-85061743D01*
X150496445Y-85093767D01*
X150501114Y-85139568D01*
X150503321Y-85157326D01*
X150506735Y-85200943D01*
X150499320Y-85230255D01*
X150476427Y-85259320D01*
X150466127Y-85269812D01*
X150420196Y-85315743D01*
X149933602Y-85315743D01*
X149916758Y-85278774D01*
X149904282Y-85246941D01*
X149899914Y-85228317D01*
X149913718Y-85223542D01*
X149952286Y-85219079D01*
X150011356Y-85215225D01*
X150086663Y-85212278D01*
X150150286Y-85210857D01*
X150400657Y-85206886D01*
X150405556Y-85172241D01*
X150402131Y-85140732D01*
X150391041Y-85125292D01*
X150370308Y-85120977D01*
X150326145Y-85117292D01*
X150264146Y-85114531D01*
X150189909Y-85112988D01*
X150151706Y-85112765D01*
X149931783Y-85112543D01*
X149915849Y-85066834D01*
X149905015Y-85034482D01*
X149899962Y-85016885D01*
X149899914Y-85016377D01*
X149913648Y-85014612D01*
X149951730Y-85012671D01*
X150009482Y-85010718D01*
X150082227Y-85008916D01*
X150150286Y-85007657D01*
X150400657Y-85003686D01*
X150400657Y-84916600D01*
X150172240Y-84912604D01*
X149943822Y-84908608D01*
X149921868Y-84866153D01*
X149906793Y-84834808D01*
X149899951Y-84816256D01*
X149899914Y-84815721D01*
X149913663Y-84813167D01*
X149951850Y-84810952D01*
X150009886Y-84809216D01*
X150083180Y-84808101D01*
X150160055Y-84807743D01*
X150420196Y-84807743D01*
X150466127Y-84853674D01*
G37*
X150284552Y-89399573D02*
X150349342Y-89410730D01*
X150395873Y-89427286D01*
X150403887Y-89432374D01*
X150463707Y-89492645D01*
X150499535Y-89564231D01*
X150510020Y-89641908D01*
X150493810Y-89720452D01*
X150484092Y-89742311D01*
X150454143Y-89784878D01*
X150414433Y-89822237D01*
X150409397Y-89825768D01*
X150385124Y-89840119D01*
X150359178Y-89849606D01*
X150325022Y-89855210D01*
X150276119Y-89857914D01*
X150205935Y-89858701D01*
X150190200Y-89858714D01*
X150185192Y-89858678D01*
X150115413Y-89858174D01*
X150063159Y-89855904D01*
X150026949Y-89850932D01*
X150000299Y-89842287D01*
X149976722Y-89828995D01*
X149972338Y-89826057D01*
X149913249Y-89776687D01*
X149878947Y-89722891D01*
X149865331Y-89657398D01*
X149864665Y-89635158D01*
X149865426Y-89630008D01*
X150001514Y-89630008D01*
X150007152Y-89665636D01*
X150026686Y-89690006D01*
X150064042Y-89704907D01*
X150123150Y-89712125D01*
X150185192Y-89713571D01*
X150251430Y-89712727D01*
X150295386Y-89709404D01*
X150323779Y-89702417D01*
X150343325Y-89690584D01*
X150349857Y-89684543D01*
X150374680Y-89649814D01*
X150373548Y-89616097D01*
X150352016Y-89582005D01*
X150329029Y-89561671D01*
X150295478Y-89549629D01*
X150242569Y-89542866D01*
X150236399Y-89542402D01*
X150140513Y-89541248D01*
X150069299Y-89553312D01*
X150023194Y-89578430D01*
X150002635Y-89616440D01*
X150001514Y-89630008D01*
X149865426Y-89630008D01*
X149876962Y-89551885D01*
X149912733Y-89483855D01*
X149970301Y-89433649D01*
X150007312Y-89415815D01*
X150062882Y-89401937D01*
X150133096Y-89394833D01*
X150209727Y-89394160D01*
X150284552Y-89399573D01*
G36*
X150284552Y-89399573D02*
G01*
X150349342Y-89410730D01*
X150395873Y-89427286D01*
X150403887Y-89432374D01*
X150463707Y-89492645D01*
X150499535Y-89564231D01*
X150510020Y-89641908D01*
X150493810Y-89720452D01*
X150484092Y-89742311D01*
X150454143Y-89784878D01*
X150414433Y-89822237D01*
X150409397Y-89825768D01*
X150385124Y-89840119D01*
X150359178Y-89849606D01*
X150325022Y-89855210D01*
X150276119Y-89857914D01*
X150205935Y-89858701D01*
X150190200Y-89858714D01*
X150185192Y-89858678D01*
X150115413Y-89858174D01*
X150063159Y-89855904D01*
X150026949Y-89850932D01*
X150000299Y-89842287D01*
X149976722Y-89828995D01*
X149972338Y-89826057D01*
X149913249Y-89776687D01*
X149878947Y-89722891D01*
X149865331Y-89657398D01*
X149864665Y-89635158D01*
X149865426Y-89630008D01*
X150001514Y-89630008D01*
X150007152Y-89665636D01*
X150026686Y-89690006D01*
X150064042Y-89704907D01*
X150123150Y-89712125D01*
X150185192Y-89713571D01*
X150251430Y-89712727D01*
X150295386Y-89709404D01*
X150323779Y-89702417D01*
X150343325Y-89690584D01*
X150349857Y-89684543D01*
X150374680Y-89649814D01*
X150373548Y-89616097D01*
X150352016Y-89582005D01*
X150329029Y-89561671D01*
X150295478Y-89549629D01*
X150242569Y-89542866D01*
X150236399Y-89542402D01*
X150140513Y-89541248D01*
X150069299Y-89553312D01*
X150023194Y-89578430D01*
X150002635Y-89616440D01*
X150001514Y-89630008D01*
X149865426Y-89630008D01*
X149876962Y-89551885D01*
X149912733Y-89483855D01*
X149970301Y-89433649D01*
X150007312Y-89415815D01*
X150062882Y-89401937D01*
X150133096Y-89394833D01*
X150209727Y-89394160D01*
X150284552Y-89399573D01*
G37*
X150355283Y-83331128D02*
X150390969Y-83346177D01*
X150431943Y-83377720D01*
X150437267Y-83382408D01*
X150473720Y-83417494D01*
X150493283Y-83447653D01*
X150502283Y-83485385D01*
X150505230Y-83516665D01*
X150505965Y-83572615D01*
X150496660Y-83612445D01*
X150482846Y-83637292D01*
X150452467Y-83676344D01*
X150419613Y-83703375D01*
X150378294Y-83720483D01*
X150322521Y-83729762D01*
X150246305Y-83733307D01*
X150207622Y-83733590D01*
X150161247Y-83732628D01*
X150117249Y-83731715D01*
X150050384Y-83724804D01*
X150001695Y-83711116D01*
X149965849Y-83688904D01*
X149937513Y-83656426D01*
X149928355Y-83642267D01*
X149904507Y-83577947D01*
X149903135Y-83513590D01*
X150001364Y-83513590D01*
X150005122Y-83562678D01*
X150032884Y-83603773D01*
X150082152Y-83632242D01*
X150121257Y-83641369D01*
X150161247Y-83644993D01*
X150186126Y-83643977D01*
X150190200Y-83641444D01*
X150184665Y-83624726D01*
X150170017Y-83588751D01*
X150149190Y-83540669D01*
X150144714Y-83530614D01*
X150113814Y-83469848D01*
X150086657Y-83436368D01*
X150061220Y-83429010D01*
X150035481Y-83446609D01*
X150024109Y-83461144D01*
X150001364Y-83513590D01*
X149903135Y-83513590D01*
X149903006Y-83507527D01*
X149921966Y-83439405D01*
X149959497Y-83381979D01*
X149993096Y-83354281D01*
X150054064Y-83332338D01*
X150102308Y-83330595D01*
X150166816Y-83334543D01*
X150231934Y-83483314D01*
X150265202Y-83555651D01*
X150291964Y-83602916D01*
X150315144Y-83627493D01*
X150337667Y-83631763D01*
X150362455Y-83618111D01*
X150378886Y-83603057D01*
X150405235Y-83559254D01*
X150407081Y-83511611D01*
X150386546Y-83467855D01*
X150345752Y-83435711D01*
X150331347Y-83429962D01*
X150286356Y-83402424D01*
X150267182Y-83370742D01*
X150250779Y-83327286D01*
X150312966Y-83327286D01*
X150355283Y-83331128D01*
G36*
X150355283Y-83331128D02*
G01*
X150390969Y-83346177D01*
X150431943Y-83377720D01*
X150437267Y-83382408D01*
X150473720Y-83417494D01*
X150493283Y-83447653D01*
X150502283Y-83485385D01*
X150505230Y-83516665D01*
X150505965Y-83572615D01*
X150496660Y-83612445D01*
X150482846Y-83637292D01*
X150452467Y-83676344D01*
X150419613Y-83703375D01*
X150378294Y-83720483D01*
X150322521Y-83729762D01*
X150246305Y-83733307D01*
X150207622Y-83733590D01*
X150161247Y-83732628D01*
X150117249Y-83731715D01*
X150050384Y-83724804D01*
X150001695Y-83711116D01*
X149965849Y-83688904D01*
X149937513Y-83656426D01*
X149928355Y-83642267D01*
X149904507Y-83577947D01*
X149903135Y-83513590D01*
X150001364Y-83513590D01*
X150005122Y-83562678D01*
X150032884Y-83603773D01*
X150082152Y-83632242D01*
X150121257Y-83641369D01*
X150161247Y-83644993D01*
X150186126Y-83643977D01*
X150190200Y-83641444D01*
X150184665Y-83624726D01*
X150170017Y-83588751D01*
X150149190Y-83540669D01*
X150144714Y-83530614D01*
X150113814Y-83469848D01*
X150086657Y-83436368D01*
X150061220Y-83429010D01*
X150035481Y-83446609D01*
X150024109Y-83461144D01*
X150001364Y-83513590D01*
X149903135Y-83513590D01*
X149903006Y-83507527D01*
X149921966Y-83439405D01*
X149959497Y-83381979D01*
X149993096Y-83354281D01*
X150054064Y-83332338D01*
X150102308Y-83330595D01*
X150166816Y-83334543D01*
X150231934Y-83483314D01*
X150265202Y-83555651D01*
X150291964Y-83602916D01*
X150315144Y-83627493D01*
X150337667Y-83631763D01*
X150362455Y-83618111D01*
X150378886Y-83603057D01*
X150405235Y-83559254D01*
X150407081Y-83511611D01*
X150386546Y-83467855D01*
X150345752Y-83435711D01*
X150331347Y-83429962D01*
X150286356Y-83402424D01*
X150267182Y-83370742D01*
X150250779Y-83327286D01*
X150312966Y-83327286D01*
X150355283Y-83331128D01*
G37*
X150020358Y-85402883D02*
X150128837Y-85403067D01*
X150212287Y-85403781D01*
X150274704Y-85405325D01*
X150320085Y-85407999D01*
X150352429Y-85412106D01*
X150375733Y-85417945D01*
X150393995Y-85425818D01*
X150404418Y-85431779D01*
X150460945Y-85481145D01*
X150496377Y-85543736D01*
X150509090Y-85612987D01*
X150497463Y-85682332D01*
X150476568Y-85723625D01*
X150440422Y-85766975D01*
X150396276Y-85796519D01*
X150338462Y-85814345D01*
X150261313Y-85822537D01*
X150204714Y-85823698D01*
X150200647Y-85823542D01*
X150113568Y-85820190D01*
X150045086Y-85808274D01*
X149993600Y-85785865D01*
X149953443Y-85750876D01*
X149932861Y-85723625D01*
X149910625Y-85674093D01*
X149902837Y-85630776D01*
X150003843Y-85630776D01*
X150025159Y-85679204D01*
X150033073Y-85688550D01*
X150050647Y-85704460D01*
X150071587Y-85714390D01*
X150102782Y-85719722D01*
X150151122Y-85721837D01*
X150200647Y-85722143D01*
X150265550Y-85721524D01*
X150308514Y-85718686D01*
X150336622Y-85712160D01*
X150356953Y-85700477D01*
X150372288Y-85686517D01*
X150401890Y-85639635D01*
X150404419Y-85589299D01*
X150379705Y-85541724D01*
X150376356Y-85538021D01*
X150358935Y-85522217D01*
X150338209Y-85512307D01*
X150307362Y-85506942D01*
X150259577Y-85504772D01*
X150206748Y-85504429D01*
X150140381Y-85505173D01*
X150096106Y-85508252D01*
X150067009Y-85514939D01*
X150046173Y-85526504D01*
X150035107Y-85535987D01*
X150007198Y-85580040D01*
X150003843Y-85630776D01*
X149902837Y-85630776D01*
X149900304Y-85616684D01*
X149903067Y-85563318D01*
X149914212Y-85533457D01*
X149917383Y-85521739D01*
X149905557Y-85513963D01*
X149873866Y-85508535D01*
X149825593Y-85504429D01*
X149771829Y-85499933D01*
X149739482Y-85493687D01*
X149720985Y-85482324D01*
X149708770Y-85462472D01*
X149703362Y-85450000D01*
X149683601Y-85402829D01*
X150020358Y-85402883D01*
G36*
X150020358Y-85402883D02*
G01*
X150128837Y-85403067D01*
X150212287Y-85403781D01*
X150274704Y-85405325D01*
X150320085Y-85407999D01*
X150352429Y-85412106D01*
X150375733Y-85417945D01*
X150393995Y-85425818D01*
X150404418Y-85431779D01*
X150460945Y-85481145D01*
X150496377Y-85543736D01*
X150509090Y-85612987D01*
X150497463Y-85682332D01*
X150476568Y-85723625D01*
X150440422Y-85766975D01*
X150396276Y-85796519D01*
X150338462Y-85814345D01*
X150261313Y-85822537D01*
X150204714Y-85823698D01*
X150200647Y-85823542D01*
X150113568Y-85820190D01*
X150045086Y-85808274D01*
X149993600Y-85785865D01*
X149953443Y-85750876D01*
X149932861Y-85723625D01*
X149910625Y-85674093D01*
X149902837Y-85630776D01*
X150003843Y-85630776D01*
X150025159Y-85679204D01*
X150033073Y-85688550D01*
X150050647Y-85704460D01*
X150071587Y-85714390D01*
X150102782Y-85719722D01*
X150151122Y-85721837D01*
X150200647Y-85722143D01*
X150265550Y-85721524D01*
X150308514Y-85718686D01*
X150336622Y-85712160D01*
X150356953Y-85700477D01*
X150372288Y-85686517D01*
X150401890Y-85639635D01*
X150404419Y-85589299D01*
X150379705Y-85541724D01*
X150376356Y-85538021D01*
X150358935Y-85522217D01*
X150338209Y-85512307D01*
X150307362Y-85506942D01*
X150259577Y-85504772D01*
X150206748Y-85504429D01*
X150140381Y-85505173D01*
X150096106Y-85508252D01*
X150067009Y-85514939D01*
X150046173Y-85526504D01*
X150035107Y-85535987D01*
X150007198Y-85580040D01*
X150003843Y-85630776D01*
X149902837Y-85630776D01*
X149900304Y-85616684D01*
X149903067Y-85563318D01*
X149914212Y-85533457D01*
X149917383Y-85521739D01*
X149905557Y-85513963D01*
X149873866Y-85508535D01*
X149825593Y-85504429D01*
X149771829Y-85499933D01*
X149739482Y-85493687D01*
X149720985Y-85482324D01*
X149708770Y-85462472D01*
X149703362Y-85450000D01*
X149683601Y-85402829D01*
X150020358Y-85402883D01*
G37*
X150291866Y-88296357D02*
X150337558Y-88307643D01*
X150377761Y-88323050D01*
X150379322Y-88323829D01*
X150444062Y-88370196D01*
X150488097Y-88430289D01*
X150509711Y-88498535D01*
X150507185Y-88569362D01*
X150478804Y-88637196D01*
X150476808Y-88640212D01*
X150428448Y-88693573D01*
X150365352Y-88728660D01*
X150282387Y-88748078D01*
X150259078Y-88750684D01*
X150149055Y-88755299D01*
X150097748Y-88749767D01*
X150061027Y-88745806D01*
X149991212Y-88721450D01*
X149942302Y-88687544D01*
X149892878Y-88626347D01*
X149868359Y-88558937D01*
X149867910Y-88539154D01*
X150002950Y-88539154D01*
X150021717Y-88576897D01*
X150057915Y-88602966D01*
X150097748Y-88610486D01*
X150129753Y-88608676D01*
X150139093Y-88598778D01*
X150132105Y-88574102D01*
X150115587Y-88535205D01*
X150094881Y-88491725D01*
X150094333Y-88490644D01*
X150074949Y-88453791D01*
X150062013Y-88439000D01*
X150048451Y-88442647D01*
X150030632Y-88458005D01*
X150004845Y-88497077D01*
X150002950Y-88539154D01*
X149867910Y-88539154D01*
X149866797Y-88490120D01*
X149886239Y-88424697D01*
X149924735Y-88367473D01*
X149980335Y-88323251D01*
X150051086Y-88296833D01*
X150103162Y-88291490D01*
X150124893Y-88292097D01*
X150141531Y-88297178D01*
X150156437Y-88311145D01*
X150172973Y-88338411D01*
X150194498Y-88383388D01*
X150224374Y-88450489D01*
X150224524Y-88450829D01*
X150252813Y-88512593D01*
X150277933Y-88563241D01*
X150297179Y-88597596D01*
X150307848Y-88610482D01*
X150307934Y-88610486D01*
X150331166Y-88599128D01*
X150356774Y-88572569D01*
X150375221Y-88542077D01*
X150378886Y-88526630D01*
X150366212Y-88484485D01*
X150334471Y-88448192D01*
X150299572Y-88430483D01*
X150273845Y-88413448D01*
X150244546Y-88380078D01*
X150219235Y-88340851D01*
X150205471Y-88306244D01*
X150204714Y-88299007D01*
X150217160Y-88290861D01*
X150248972Y-88290370D01*
X150291866Y-88296357D01*
G36*
X150291866Y-88296357D02*
G01*
X150337558Y-88307643D01*
X150377761Y-88323050D01*
X150379322Y-88323829D01*
X150444062Y-88370196D01*
X150488097Y-88430289D01*
X150509711Y-88498535D01*
X150507185Y-88569362D01*
X150478804Y-88637196D01*
X150476808Y-88640212D01*
X150428448Y-88693573D01*
X150365352Y-88728660D01*
X150282387Y-88748078D01*
X150259078Y-88750684D01*
X150149055Y-88755299D01*
X150097748Y-88749767D01*
X150061027Y-88745806D01*
X149991212Y-88721450D01*
X149942302Y-88687544D01*
X149892878Y-88626347D01*
X149868359Y-88558937D01*
X149867910Y-88539154D01*
X150002950Y-88539154D01*
X150021717Y-88576897D01*
X150057915Y-88602966D01*
X150097748Y-88610486D01*
X150129753Y-88608676D01*
X150139093Y-88598778D01*
X150132105Y-88574102D01*
X150115587Y-88535205D01*
X150094881Y-88491725D01*
X150094333Y-88490644D01*
X150074949Y-88453791D01*
X150062013Y-88439000D01*
X150048451Y-88442647D01*
X150030632Y-88458005D01*
X150004845Y-88497077D01*
X150002950Y-88539154D01*
X149867910Y-88539154D01*
X149866797Y-88490120D01*
X149886239Y-88424697D01*
X149924735Y-88367473D01*
X149980335Y-88323251D01*
X150051086Y-88296833D01*
X150103162Y-88291490D01*
X150124893Y-88292097D01*
X150141531Y-88297178D01*
X150156437Y-88311145D01*
X150172973Y-88338411D01*
X150194498Y-88383388D01*
X150224374Y-88450489D01*
X150224524Y-88450829D01*
X150252813Y-88512593D01*
X150277933Y-88563241D01*
X150297179Y-88597596D01*
X150307848Y-88610482D01*
X150307934Y-88610486D01*
X150331166Y-88599128D01*
X150356774Y-88572569D01*
X150375221Y-88542077D01*
X150378886Y-88526630D01*
X150366212Y-88484485D01*
X150334471Y-88448192D01*
X150299572Y-88430483D01*
X150273845Y-88413448D01*
X150244546Y-88380078D01*
X150219235Y-88340851D01*
X150205471Y-88306244D01*
X150204714Y-88299007D01*
X150217160Y-88290861D01*
X150248972Y-88290370D01*
X150291866Y-88296357D01*
G37*
X150486678Y-86431284D02*
X150502110Y-86463237D01*
X150509423Y-86482530D01*
X150509514Y-86483422D01*
X150496022Y-86486761D01*
X150459626Y-86489413D01*
X150406452Y-86491044D01*
X150363393Y-86491400D01*
X150293641Y-86491408D01*
X150249837Y-86494597D01*
X150228944Y-86505712D01*
X150227925Y-86529499D01*
X150243741Y-86570704D01*
X150272815Y-86632914D01*
X150296963Y-86678659D01*
X150317913Y-86702187D01*
X150340747Y-86709104D01*
X150341877Y-86709114D01*
X150381212Y-86697701D01*
X150402462Y-86663908D01*
X150405539Y-86612191D01*
X150405006Y-86574939D01*
X150415735Y-86555297D01*
X150441505Y-86543048D01*
X150474337Y-86535998D01*
X150492966Y-86546158D01*
X150495632Y-86549983D01*
X150506340Y-86585999D01*
X150507856Y-86636434D01*
X150500759Y-86688374D01*
X150487788Y-86725178D01*
X150444585Y-86776062D01*
X150384446Y-86804986D01*
X150337462Y-86810714D01*
X150295082Y-86806343D01*
X150260488Y-86790525D01*
X150229763Y-86759203D01*
X150198990Y-86708322D01*
X150164252Y-86633824D01*
X150162288Y-86629286D01*
X150131287Y-86562179D01*
X150105862Y-86520768D01*
X150083014Y-86503019D01*
X150059745Y-86506893D01*
X150033056Y-86530357D01*
X150026914Y-86537373D01*
X150003100Y-86584370D01*
X150004103Y-86633067D01*
X150027451Y-86675478D01*
X150070675Y-86703616D01*
X150079160Y-86706231D01*
X150120308Y-86731692D01*
X150140128Y-86763999D01*
X150159770Y-86810714D01*
X150108950Y-86810714D01*
X150035082Y-86796504D01*
X149967327Y-86754325D01*
X149944661Y-86732376D01*
X149915569Y-86682483D01*
X149902400Y-86619033D01*
X149905968Y-86553256D01*
X149927087Y-86496384D01*
X149927493Y-86495733D01*
X149953380Y-86460560D01*
X149983633Y-86434593D01*
X150023058Y-86416330D01*
X150076462Y-86404268D01*
X150148651Y-86396904D01*
X150244432Y-86392736D01*
X150258078Y-86392371D01*
X150463842Y-86387124D01*
X150486678Y-86431284D01*
G36*
X150486678Y-86431284D02*
G01*
X150502110Y-86463237D01*
X150509423Y-86482530D01*
X150509514Y-86483422D01*
X150496022Y-86486761D01*
X150459626Y-86489413D01*
X150406452Y-86491044D01*
X150363393Y-86491400D01*
X150293641Y-86491408D01*
X150249837Y-86494597D01*
X150228944Y-86505712D01*
X150227925Y-86529499D01*
X150243741Y-86570704D01*
X150272815Y-86632914D01*
X150296963Y-86678659D01*
X150317913Y-86702187D01*
X150340747Y-86709104D01*
X150341877Y-86709114D01*
X150381212Y-86697701D01*
X150402462Y-86663908D01*
X150405539Y-86612191D01*
X150405006Y-86574939D01*
X150415735Y-86555297D01*
X150441505Y-86543048D01*
X150474337Y-86535998D01*
X150492966Y-86546158D01*
X150495632Y-86549983D01*
X150506340Y-86585999D01*
X150507856Y-86636434D01*
X150500759Y-86688374D01*
X150487788Y-86725178D01*
X150444585Y-86776062D01*
X150384446Y-86804986D01*
X150337462Y-86810714D01*
X150295082Y-86806343D01*
X150260488Y-86790525D01*
X150229763Y-86759203D01*
X150198990Y-86708322D01*
X150164252Y-86633824D01*
X150162288Y-86629286D01*
X150131287Y-86562179D01*
X150105862Y-86520768D01*
X150083014Y-86503019D01*
X150059745Y-86506893D01*
X150033056Y-86530357D01*
X150026914Y-86537373D01*
X150003100Y-86584370D01*
X150004103Y-86633067D01*
X150027451Y-86675478D01*
X150070675Y-86703616D01*
X150079160Y-86706231D01*
X150120308Y-86731692D01*
X150140128Y-86763999D01*
X150159770Y-86810714D01*
X150108950Y-86810714D01*
X150035082Y-86796504D01*
X149967327Y-86754325D01*
X149944661Y-86732376D01*
X149915569Y-86682483D01*
X149902400Y-86619033D01*
X149905968Y-86553256D01*
X149927087Y-86496384D01*
X149927493Y-86495733D01*
X149953380Y-86460560D01*
X149983633Y-86434593D01*
X150023058Y-86416330D01*
X150076462Y-86404268D01*
X150148651Y-86396904D01*
X150244432Y-86392736D01*
X150258078Y-86392371D01*
X150463842Y-86387124D01*
X150486678Y-86431284D01*
G37*
X150272588Y-88845148D02*
X150342657Y-88853606D01*
X150394931Y-88869826D01*
X150434869Y-88895546D01*
X150467929Y-88932503D01*
X150469886Y-88935218D01*
X150489908Y-88971640D01*
X150499815Y-89015498D01*
X150502257Y-89071276D01*
X150502257Y-89161952D01*
X150590283Y-89161990D01*
X150639308Y-89162834D01*
X150668065Y-89167976D01*
X150685311Y-89181413D01*
X150699808Y-89207142D01*
X150702769Y-89213321D01*
X150716648Y-89242236D01*
X150725414Y-89264624D01*
X150726171Y-89281271D01*
X150716023Y-89292964D01*
X150692073Y-89300490D01*
X150651426Y-89304634D01*
X150591186Y-89306185D01*
X150508455Y-89305929D01*
X150400339Y-89304651D01*
X150368000Y-89304252D01*
X150256524Y-89302815D01*
X150183603Y-89301528D01*
X150170245Y-89301292D01*
X150105333Y-89299323D01*
X150057958Y-89296550D01*
X150024290Y-89292612D01*
X150000498Y-89287151D01*
X149982753Y-89279808D01*
X149967224Y-89270223D01*
X149961381Y-89266113D01*
X149906185Y-89211595D01*
X149874890Y-89142664D01*
X149866776Y-89068509D01*
X150001514Y-89068509D01*
X150008926Y-89109234D01*
X150033330Y-89137168D01*
X150077980Y-89153983D01*
X150146130Y-89161350D01*
X150183603Y-89162029D01*
X150245499Y-89161245D01*
X150285997Y-89157760D01*
X150312708Y-89149876D01*
X150333244Y-89135895D01*
X150343260Y-89126403D01*
X150372567Y-89087596D01*
X150374952Y-89053237D01*
X150350750Y-89017784D01*
X150349857Y-89016886D01*
X150331153Y-89002461D01*
X150305732Y-88993687D01*
X150266584Y-88989261D01*
X150206697Y-88987882D01*
X150193430Y-88987857D01*
X150110901Y-88991188D01*
X150053691Y-89002031D01*
X150018766Y-89021660D01*
X150003094Y-89051350D01*
X150001514Y-89068509D01*
X149866776Y-89068509D01*
X149866165Y-89062928D01*
X149874918Y-88993256D01*
X149902568Y-88937799D01*
X149953480Y-88888852D01*
X149972338Y-88875371D01*
X149997015Y-88860686D01*
X150023816Y-88851158D01*
X150059587Y-88845707D01*
X150111169Y-88843253D01*
X150179267Y-88842714D01*
X150272588Y-88845148D01*
G36*
X150272588Y-88845148D02*
G01*
X150342657Y-88853606D01*
X150394931Y-88869826D01*
X150434869Y-88895546D01*
X150467929Y-88932503D01*
X150469886Y-88935218D01*
X150489908Y-88971640D01*
X150499815Y-89015498D01*
X150502257Y-89071276D01*
X150502257Y-89161952D01*
X150590283Y-89161990D01*
X150639308Y-89162834D01*
X150668065Y-89167976D01*
X150685311Y-89181413D01*
X150699808Y-89207142D01*
X150702769Y-89213321D01*
X150716648Y-89242236D01*
X150725414Y-89264624D01*
X150726171Y-89281271D01*
X150716023Y-89292964D01*
X150692073Y-89300490D01*
X150651426Y-89304634D01*
X150591186Y-89306185D01*
X150508455Y-89305929D01*
X150400339Y-89304651D01*
X150368000Y-89304252D01*
X150256524Y-89302815D01*
X150183603Y-89301528D01*
X150170245Y-89301292D01*
X150105333Y-89299323D01*
X150057958Y-89296550D01*
X150024290Y-89292612D01*
X150000498Y-89287151D01*
X149982753Y-89279808D01*
X149967224Y-89270223D01*
X149961381Y-89266113D01*
X149906185Y-89211595D01*
X149874890Y-89142664D01*
X149866776Y-89068509D01*
X150001514Y-89068509D01*
X150008926Y-89109234D01*
X150033330Y-89137168D01*
X150077980Y-89153983D01*
X150146130Y-89161350D01*
X150183603Y-89162029D01*
X150245499Y-89161245D01*
X150285997Y-89157760D01*
X150312708Y-89149876D01*
X150333244Y-89135895D01*
X150343260Y-89126403D01*
X150372567Y-89087596D01*
X150374952Y-89053237D01*
X150350750Y-89017784D01*
X150349857Y-89016886D01*
X150331153Y-89002461D01*
X150305732Y-88993687D01*
X150266584Y-88989261D01*
X150206697Y-88987882D01*
X150193430Y-88987857D01*
X150110901Y-88991188D01*
X150053691Y-89002031D01*
X150018766Y-89021660D01*
X150003094Y-89051350D01*
X150001514Y-89068509D01*
X149866776Y-89068509D01*
X149866165Y-89062928D01*
X149874918Y-88993256D01*
X149902568Y-88937799D01*
X149953480Y-88888852D01*
X149972338Y-88875371D01*
X149997015Y-88860686D01*
X150023816Y-88851158D01*
X150059587Y-88845707D01*
X150111169Y-88843253D01*
X150179267Y-88842714D01*
X150272588Y-88845148D01*
G37*
X150492670Y-84351226D02*
X150504981Y-84380344D01*
X150509514Y-84394769D01*
X150496025Y-84397528D01*
X150459653Y-84399718D01*
X150406542Y-84401058D01*
X150364372Y-84401343D01*
X150303447Y-84402566D01*
X150255115Y-84405864D01*
X150225518Y-84410679D01*
X150219229Y-84414504D01*
X150225652Y-84440217D01*
X150242125Y-84480582D01*
X150264458Y-84527321D01*
X150288457Y-84572155D01*
X150309930Y-84606807D01*
X150324685Y-84622998D01*
X150324845Y-84623062D01*
X150352152Y-84621670D01*
X150378219Y-84609182D01*
X150399392Y-84587257D01*
X150406474Y-84555257D01*
X150405649Y-84527908D01*
X150405042Y-84489174D01*
X150414116Y-84468842D01*
X150438092Y-84456631D01*
X150442613Y-84455091D01*
X150476806Y-84449797D01*
X150497568Y-84463953D01*
X150507462Y-84500852D01*
X150509292Y-84540711D01*
X150495727Y-84612438D01*
X150476355Y-84649568D01*
X150430845Y-84695424D01*
X150374983Y-84719744D01*
X150315957Y-84721927D01*
X150260953Y-84701371D01*
X150226486Y-84670451D01*
X150207189Y-84639580D01*
X150182759Y-84591058D01*
X150157985Y-84534515D01*
X150154199Y-84525090D01*
X150126791Y-84462981D01*
X150102634Y-84427178D01*
X150078619Y-84415663D01*
X150051635Y-84426420D01*
X150030543Y-84444886D01*
X150004572Y-84488531D01*
X150002624Y-84536554D01*
X150022637Y-84580594D01*
X150062551Y-84612291D01*
X150072848Y-84616451D01*
X150110724Y-84640673D01*
X150138842Y-84676035D01*
X150161917Y-84720657D01*
X150096485Y-84720657D01*
X150056506Y-84718031D01*
X150024997Y-84706770D01*
X149991378Y-84681801D01*
X149965484Y-84657831D01*
X149928817Y-84620559D01*
X149909121Y-84591599D01*
X149901220Y-84560495D01*
X149899914Y-84525287D01*
X149911335Y-84448124D01*
X149930344Y-84406333D01*
X149953378Y-84373531D01*
X149979133Y-84349497D01*
X150012358Y-84332903D01*
X150057800Y-84322423D01*
X150120207Y-84316729D01*
X150204327Y-84314493D01*
X150259721Y-84314257D01*
X150475826Y-84314257D01*
X150492670Y-84351226D01*
G36*
X150492670Y-84351226D02*
G01*
X150504981Y-84380344D01*
X150509514Y-84394769D01*
X150496025Y-84397528D01*
X150459653Y-84399718D01*
X150406542Y-84401058D01*
X150364372Y-84401343D01*
X150303447Y-84402566D01*
X150255115Y-84405864D01*
X150225518Y-84410679D01*
X150219229Y-84414504D01*
X150225652Y-84440217D01*
X150242125Y-84480582D01*
X150264458Y-84527321D01*
X150288457Y-84572155D01*
X150309930Y-84606807D01*
X150324685Y-84622998D01*
X150324845Y-84623062D01*
X150352152Y-84621670D01*
X150378219Y-84609182D01*
X150399392Y-84587257D01*
X150406474Y-84555257D01*
X150405649Y-84527908D01*
X150405042Y-84489174D01*
X150414116Y-84468842D01*
X150438092Y-84456631D01*
X150442613Y-84455091D01*
X150476806Y-84449797D01*
X150497568Y-84463953D01*
X150507462Y-84500852D01*
X150509292Y-84540711D01*
X150495727Y-84612438D01*
X150476355Y-84649568D01*
X150430845Y-84695424D01*
X150374983Y-84719744D01*
X150315957Y-84721927D01*
X150260953Y-84701371D01*
X150226486Y-84670451D01*
X150207189Y-84639580D01*
X150182759Y-84591058D01*
X150157985Y-84534515D01*
X150154199Y-84525090D01*
X150126791Y-84462981D01*
X150102634Y-84427178D01*
X150078619Y-84415663D01*
X150051635Y-84426420D01*
X150030543Y-84444886D01*
X150004572Y-84488531D01*
X150002624Y-84536554D01*
X150022637Y-84580594D01*
X150062551Y-84612291D01*
X150072848Y-84616451D01*
X150110724Y-84640673D01*
X150138842Y-84676035D01*
X150161917Y-84720657D01*
X150096485Y-84720657D01*
X150056506Y-84718031D01*
X150024997Y-84706770D01*
X149991378Y-84681801D01*
X149965484Y-84657831D01*
X149928817Y-84620559D01*
X149909121Y-84591599D01*
X149901220Y-84560495D01*
X149899914Y-84525287D01*
X149911335Y-84448124D01*
X149930344Y-84406333D01*
X149953378Y-84373531D01*
X149979133Y-84349497D01*
X150012358Y-84332903D01*
X150057800Y-84322423D01*
X150120207Y-84316729D01*
X150204327Y-84314493D01*
X150259721Y-84314257D01*
X150475826Y-84314257D01*
X150492670Y-84351226D01*
G37*
X147822839Y-84375943D02*
X147830995Y-84418337D01*
X147842899Y-84481600D01*
X147857116Y-84558038D01*
X147872210Y-84639957D01*
X147876355Y-84662600D01*
X147891053Y-84738194D01*
X147905505Y-84804047D01*
X147918375Y-84854634D01*
X147928322Y-84884426D01*
X147931287Y-84889388D01*
X147952283Y-84901574D01*
X147992967Y-84919047D01*
X148045322Y-84938423D01*
X148056600Y-84942266D01*
X148126523Y-84967661D01*
X148205418Y-84999183D01*
X148276266Y-85030031D01*
X148276595Y-85030183D01*
X148387733Y-85081553D01*
X148636253Y-84912601D01*
X148884772Y-84743648D01*
X149102058Y-84960571D01*
X149166726Y-85026181D01*
X149223733Y-85086021D01*
X149270033Y-85136733D01*
X149302584Y-85174954D01*
X149318343Y-85197325D01*
X149319343Y-85200534D01*
X149311469Y-85219374D01*
X149289578Y-85257820D01*
X149256267Y-85311670D01*
X149214131Y-85376724D01*
X149166943Y-85447060D01*
X149118810Y-85518445D01*
X149076928Y-85582092D01*
X149043871Y-85633959D01*
X149022218Y-85670005D01*
X149014543Y-85686133D01*
X149021037Y-85705811D01*
X149038150Y-85743125D01*
X149062326Y-85790379D01*
X149065013Y-85795388D01*
X149096927Y-85859023D01*
X149112579Y-85902659D01*
X149112745Y-85929798D01*
X149098204Y-85943943D01*
X149098000Y-85944025D01*
X149080779Y-85951095D01*
X149039899Y-85967958D01*
X148978525Y-85993305D01*
X148899819Y-86025829D01*
X148806947Y-86064222D01*
X148703072Y-86107178D01*
X148602502Y-86148778D01*
X148491516Y-86194496D01*
X148388703Y-86236474D01*
X148297215Y-86273452D01*
X148220201Y-86304173D01*
X148160815Y-86327378D01*
X148122209Y-86341810D01*
X148107800Y-86346257D01*
X148091272Y-86335104D01*
X148064930Y-86305931D01*
X148035887Y-86267029D01*
X147944039Y-86156243D01*
X147838759Y-86069649D01*
X147722266Y-86008284D01*
X147596776Y-85973185D01*
X147464507Y-85965392D01*
X147403457Y-85971057D01*
X147276795Y-86001922D01*
X147164941Y-86055080D01*
X147069001Y-86127233D01*
X146990076Y-86215083D01*
X146929270Y-86315335D01*
X146887687Y-86424690D01*
X146866428Y-86539853D01*
X146866599Y-86657525D01*
X146889301Y-86774410D01*
X146935638Y-86887211D01*
X147006713Y-86992631D01*
X147046911Y-87036632D01*
X147150129Y-87121021D01*
X147262925Y-87179778D01*
X147382010Y-87213296D01*
X147504095Y-87221965D01*
X147625893Y-87206177D01*
X147744116Y-87166322D01*
X147855475Y-87102793D01*
X147956684Y-87015979D01*
X148035887Y-86918971D01*
X148066162Y-86878563D01*
X148092219Y-86850018D01*
X148107825Y-86839743D01*
X148124843Y-86845123D01*
X148165500Y-86860425D01*
X148226642Y-86884388D01*
X148305119Y-86915756D01*
X148397780Y-86953268D01*
X148501472Y-86995667D01*
X148602526Y-87037337D01*
X148713607Y-87083310D01*
X148816541Y-87125893D01*
X148908165Y-87163779D01*
X148985316Y-87195660D01*
X149044831Y-87220229D01*
X149083544Y-87236180D01*
X149098000Y-87242090D01*
X149112685Y-87256052D01*
X149112642Y-87283060D01*
X149097099Y-87326587D01*
X149065284Y-87390110D01*
X149065013Y-87390612D01*
X149040323Y-87438440D01*
X149022338Y-87477103D01*
X149014614Y-87498905D01*
X149014543Y-87499867D01*
X149022378Y-87516279D01*
X149044165Y-87552513D01*
X149077328Y-87604526D01*
X149119291Y-87668275D01*
X149166943Y-87738940D01*
X149215191Y-87810884D01*
X149257151Y-87875726D01*
X149290227Y-87929265D01*
X149311821Y-87967303D01*
X149319343Y-87985467D01*
X149309457Y-88002192D01*
X149281826Y-88035820D01*
X149239495Y-88082990D01*
X149185505Y-88140342D01*
X149122899Y-88204516D01*
X149101983Y-88225503D01*
X148884623Y-88442501D01*
X148642220Y-88277332D01*
X148567781Y-88227136D01*
X148500972Y-88183081D01*
X148445665Y-88147638D01*
X148405729Y-88123281D01*
X148385036Y-88112478D01*
X148383563Y-88112162D01*
X148364058Y-88117857D01*
X148324822Y-88133174D01*
X148272430Y-88155463D01*
X148237355Y-88171107D01*
X148170201Y-88200359D01*
X148102358Y-88227906D01*
X148045034Y-88249263D01*
X148027572Y-88255065D01*
X147980938Y-88271548D01*
X147944905Y-88287660D01*
X147931287Y-88296510D01*
X147922952Y-88316040D01*
X147911137Y-88358666D01*
X147897181Y-88418855D01*
X147882422Y-88491078D01*
X147876355Y-88523400D01*
X147861273Y-88605478D01*
X147846669Y-88684205D01*
X147833980Y-88751891D01*
X147824642Y-88800840D01*
X147822839Y-88810057D01*
X147807799Y-88886257D01*
X147490492Y-88886257D01*
X147386154Y-88886086D01*
X147307213Y-88885384D01*
X147250038Y-88883866D01*
X147210999Y-88881251D01*
X147186465Y-88877254D01*
X147172805Y-88871591D01*
X147166389Y-88863980D01*
X147165199Y-88860857D01*
X147160980Y-88842022D01*
X147152562Y-88800412D01*
X147140961Y-88741370D01*
X147127195Y-88670243D01*
X147112280Y-88592375D01*
X147097232Y-88513113D01*
X147083069Y-88437802D01*
X147070806Y-88371787D01*
X147061461Y-88320413D01*
X147056050Y-88289025D01*
X147055114Y-88282041D01*
X147042596Y-88275715D01*
X147009246Y-88261710D01*
X146961377Y-88242645D01*
X146942629Y-88235366D01*
X146870195Y-88206004D01*
X146790170Y-88171429D01*
X146722728Y-88140463D01*
X146671159Y-88117677D01*
X146628785Y-88102518D01*
X146602834Y-88097458D01*
X146599356Y-88098264D01*
X146582936Y-88108959D01*
X146546417Y-88133380D01*
X146493687Y-88168905D01*
X146428635Y-88212913D01*
X146355151Y-88262783D01*
X146340645Y-88272644D01*
X146254704Y-88330508D01*
X146189261Y-88373044D01*
X146141304Y-88401946D01*
X146107820Y-88418910D01*
X146085795Y-88425633D01*
X146072217Y-88423810D01*
X146072131Y-88423764D01*
X146054297Y-88409414D01*
X146019817Y-88377677D01*
X145972268Y-88331990D01*
X145915222Y-88275796D01*
X145852255Y-88212532D01*
X145845227Y-88205398D01*
X145768020Y-88125670D01*
X145711330Y-88064143D01*
X145674110Y-88019579D01*
X145655315Y-87990743D01*
X145652889Y-87978042D01*
X145663471Y-87959506D01*
X145687916Y-87921039D01*
X145723612Y-87866614D01*
X145767947Y-87800202D01*
X145818311Y-87725775D01*
X145830160Y-87708399D01*
X145998626Y-87461703D01*
X145948062Y-87350294D01*
X145918595Y-87282543D01*
X145888959Y-87209817D01*
X145865330Y-87147297D01*
X145864358Y-87144543D01*
X145846457Y-87095640D01*
X145831320Y-87057943D01*
X145822210Y-87039575D01*
X145822184Y-87039544D01*
X145805717Y-87033715D01*
X145765219Y-87023808D01*
X145705242Y-87010805D01*
X145630340Y-86995691D01*
X145545064Y-86979448D01*
X145537875Y-86978119D01*
X145450014Y-86961825D01*
X145370260Y-86946867D01*
X145303681Y-86934209D01*
X145255347Y-86924814D01*
X145230325Y-86919646D01*
X145229943Y-86919556D01*
X145219299Y-86916411D01*
X145211262Y-86910296D01*
X145205467Y-86897547D01*
X145201547Y-86874500D01*
X145199135Y-86837491D01*
X145197865Y-86782856D01*
X145197371Y-86706933D01*
X145197286Y-86606056D01*
X145197286Y-86593000D01*
X145197348Y-86489090D01*
X145197778Y-86410546D01*
X145198942Y-86353702D01*
X145201207Y-86314895D01*
X145204940Y-86290462D01*
X145210506Y-86276738D01*
X145218273Y-86270060D01*
X145228605Y-86266764D01*
X145229943Y-86266444D01*
X145254079Y-86261438D01*
X145301701Y-86252171D01*
X145367741Y-86239608D01*
X145447128Y-86224713D01*
X145534796Y-86208449D01*
X145537875Y-86207881D01*
X145623789Y-86191590D01*
X145699696Y-86176348D01*
X145761045Y-86163139D01*
X145803282Y-86152946D01*
X145821855Y-86146752D01*
X145822184Y-86146457D01*
X145831253Y-86128212D01*
X145846367Y-86090595D01*
X145864262Y-86041729D01*
X145864358Y-86041457D01*
X145887493Y-85979907D01*
X145916965Y-85907343D01*
X145946597Y-85838943D01*
X145948062Y-85835706D01*
X145998626Y-85724298D01*
X145830160Y-85477601D01*
X145778803Y-85401923D01*
X145732889Y-85333369D01*
X145695030Y-85275912D01*
X145667837Y-85233524D01*
X145653921Y-85210175D01*
X145652889Y-85207958D01*
X145657484Y-85190990D01*
X145679655Y-85159299D01*
X145720447Y-85111648D01*
X145780905Y-85046802D01*
X145845227Y-84980603D01*
X145908612Y-84916786D01*
X145966451Y-84859671D01*
X146015175Y-84812695D01*
X146051210Y-84779297D01*
X146070984Y-84762915D01*
X146072002Y-84762306D01*
X146085572Y-84760495D01*
X146107733Y-84767317D01*
X146141478Y-84784460D01*
X146189800Y-84813607D01*
X146255692Y-84856445D01*
X146340517Y-84913552D01*
X146415177Y-84964234D01*
X146482140Y-85009539D01*
X146537516Y-85046850D01*
X146577420Y-85073548D01*
X146597962Y-85087015D01*
X146599356Y-85087863D01*
X146619038Y-85086219D01*
X146657293Y-85073755D01*
X146706889Y-85052952D01*
X146722728Y-85045538D01*
X146793290Y-85013186D01*
X146873353Y-84978672D01*
X146942629Y-84950635D01*
X146994045Y-84930432D01*
X147033119Y-84914385D01*
X147053541Y-84905112D01*
X147055114Y-84903959D01*
X147057721Y-84886904D01*
X147064863Y-84846702D01*
X147075523Y-84788698D01*
X147088685Y-84718237D01*
X147103333Y-84640665D01*
X147118449Y-84561328D01*
X147133018Y-84485569D01*
X147146022Y-84418736D01*
X147156445Y-84366172D01*
X147163270Y-84333224D01*
X147165199Y-84325143D01*
X147169962Y-84316795D01*
X147180718Y-84310494D01*
X147201098Y-84305955D01*
X147234734Y-84302896D01*
X147285255Y-84301033D01*
X147356292Y-84300082D01*
X147451476Y-84299760D01*
X147490492Y-84299743D01*
X147807799Y-84299743D01*
X147822839Y-84375943D01*
G36*
X147822839Y-84375943D02*
G01*
X147830995Y-84418337D01*
X147842899Y-84481600D01*
X147857116Y-84558038D01*
X147872210Y-84639957D01*
X147876355Y-84662600D01*
X147891053Y-84738194D01*
X147905505Y-84804047D01*
X147918375Y-84854634D01*
X147928322Y-84884426D01*
X147931287Y-84889388D01*
X147952283Y-84901574D01*
X147992967Y-84919047D01*
X148045322Y-84938423D01*
X148056600Y-84942266D01*
X148126523Y-84967661D01*
X148205418Y-84999183D01*
X148276266Y-85030031D01*
X148276595Y-85030183D01*
X148387733Y-85081553D01*
X148636253Y-84912601D01*
X148884772Y-84743648D01*
X149102058Y-84960571D01*
X149166726Y-85026181D01*
X149223733Y-85086021D01*
X149270033Y-85136733D01*
X149302584Y-85174954D01*
X149318343Y-85197325D01*
X149319343Y-85200534D01*
X149311469Y-85219374D01*
X149289578Y-85257820D01*
X149256267Y-85311670D01*
X149214131Y-85376724D01*
X149166943Y-85447060D01*
X149118810Y-85518445D01*
X149076928Y-85582092D01*
X149043871Y-85633959D01*
X149022218Y-85670005D01*
X149014543Y-85686133D01*
X149021037Y-85705811D01*
X149038150Y-85743125D01*
X149062326Y-85790379D01*
X149065013Y-85795388D01*
X149096927Y-85859023D01*
X149112579Y-85902659D01*
X149112745Y-85929798D01*
X149098204Y-85943943D01*
X149098000Y-85944025D01*
X149080779Y-85951095D01*
X149039899Y-85967958D01*
X148978525Y-85993305D01*
X148899819Y-86025829D01*
X148806947Y-86064222D01*
X148703072Y-86107178D01*
X148602502Y-86148778D01*
X148491516Y-86194496D01*
X148388703Y-86236474D01*
X148297215Y-86273452D01*
X148220201Y-86304173D01*
X148160815Y-86327378D01*
X148122209Y-86341810D01*
X148107800Y-86346257D01*
X148091272Y-86335104D01*
X148064930Y-86305931D01*
X148035887Y-86267029D01*
X147944039Y-86156243D01*
X147838759Y-86069649D01*
X147722266Y-86008284D01*
X147596776Y-85973185D01*
X147464507Y-85965392D01*
X147403457Y-85971057D01*
X147276795Y-86001922D01*
X147164941Y-86055080D01*
X147069001Y-86127233D01*
X146990076Y-86215083D01*
X146929270Y-86315335D01*
X146887687Y-86424690D01*
X146866428Y-86539853D01*
X146866599Y-86657525D01*
X146889301Y-86774410D01*
X146935638Y-86887211D01*
X147006713Y-86992631D01*
X147046911Y-87036632D01*
X147150129Y-87121021D01*
X147262925Y-87179778D01*
X147382010Y-87213296D01*
X147504095Y-87221965D01*
X147625893Y-87206177D01*
X147744116Y-87166322D01*
X147855475Y-87102793D01*
X147956684Y-87015979D01*
X148035887Y-86918971D01*
X148066162Y-86878563D01*
X148092219Y-86850018D01*
X148107825Y-86839743D01*
X148124843Y-86845123D01*
X148165500Y-86860425D01*
X148226642Y-86884388D01*
X148305119Y-86915756D01*
X148397780Y-86953268D01*
X148501472Y-86995667D01*
X148602526Y-87037337D01*
X148713607Y-87083310D01*
X148816541Y-87125893D01*
X148908165Y-87163779D01*
X148985316Y-87195660D01*
X149044831Y-87220229D01*
X149083544Y-87236180D01*
X149098000Y-87242090D01*
X149112685Y-87256052D01*
X149112642Y-87283060D01*
X149097099Y-87326587D01*
X149065284Y-87390110D01*
X149065013Y-87390612D01*
X149040323Y-87438440D01*
X149022338Y-87477103D01*
X149014614Y-87498905D01*
X149014543Y-87499867D01*
X149022378Y-87516279D01*
X149044165Y-87552513D01*
X149077328Y-87604526D01*
X149119291Y-87668275D01*
X149166943Y-87738940D01*
X149215191Y-87810884D01*
X149257151Y-87875726D01*
X149290227Y-87929265D01*
X149311821Y-87967303D01*
X149319343Y-87985467D01*
X149309457Y-88002192D01*
X149281826Y-88035820D01*
X149239495Y-88082990D01*
X149185505Y-88140342D01*
X149122899Y-88204516D01*
X149101983Y-88225503D01*
X148884623Y-88442501D01*
X148642220Y-88277332D01*
X148567781Y-88227136D01*
X148500972Y-88183081D01*
X148445665Y-88147638D01*
X148405729Y-88123281D01*
X148385036Y-88112478D01*
X148383563Y-88112162D01*
X148364058Y-88117857D01*
X148324822Y-88133174D01*
X148272430Y-88155463D01*
X148237355Y-88171107D01*
X148170201Y-88200359D01*
X148102358Y-88227906D01*
X148045034Y-88249263D01*
X148027572Y-88255065D01*
X147980938Y-88271548D01*
X147944905Y-88287660D01*
X147931287Y-88296510D01*
X147922952Y-88316040D01*
X147911137Y-88358666D01*
X147897181Y-88418855D01*
X147882422Y-88491078D01*
X147876355Y-88523400D01*
X147861273Y-88605478D01*
X147846669Y-88684205D01*
X147833980Y-88751891D01*
X147824642Y-88800840D01*
X147822839Y-88810057D01*
X147807799Y-88886257D01*
X147490492Y-88886257D01*
X147386154Y-88886086D01*
X147307213Y-88885384D01*
X147250038Y-88883866D01*
X147210999Y-88881251D01*
X147186465Y-88877254D01*
X147172805Y-88871591D01*
X147166389Y-88863980D01*
X147165199Y-88860857D01*
X147160980Y-88842022D01*
X147152562Y-88800412D01*
X147140961Y-88741370D01*
X147127195Y-88670243D01*
X147112280Y-88592375D01*
X147097232Y-88513113D01*
X147083069Y-88437802D01*
X147070806Y-88371787D01*
X147061461Y-88320413D01*
X147056050Y-88289025D01*
X147055114Y-88282041D01*
X147042596Y-88275715D01*
X147009246Y-88261710D01*
X146961377Y-88242645D01*
X146942629Y-88235366D01*
X146870195Y-88206004D01*
X146790170Y-88171429D01*
X146722728Y-88140463D01*
X146671159Y-88117677D01*
X146628785Y-88102518D01*
X146602834Y-88097458D01*
X146599356Y-88098264D01*
X146582936Y-88108959D01*
X146546417Y-88133380D01*
X146493687Y-88168905D01*
X146428635Y-88212913D01*
X146355151Y-88262783D01*
X146340645Y-88272644D01*
X146254704Y-88330508D01*
X146189261Y-88373044D01*
X146141304Y-88401946D01*
X146107820Y-88418910D01*
X146085795Y-88425633D01*
X146072217Y-88423810D01*
X146072131Y-88423764D01*
X146054297Y-88409414D01*
X146019817Y-88377677D01*
X145972268Y-88331990D01*
X145915222Y-88275796D01*
X145852255Y-88212532D01*
X145845227Y-88205398D01*
X145768020Y-88125670D01*
X145711330Y-88064143D01*
X145674110Y-88019579D01*
X145655315Y-87990743D01*
X145652889Y-87978042D01*
X145663471Y-87959506D01*
X145687916Y-87921039D01*
X145723612Y-87866614D01*
X145767947Y-87800202D01*
X145818311Y-87725775D01*
X145830160Y-87708399D01*
X145998626Y-87461703D01*
X145948062Y-87350294D01*
X145918595Y-87282543D01*
X145888959Y-87209817D01*
X145865330Y-87147297D01*
X145864358Y-87144543D01*
X145846457Y-87095640D01*
X145831320Y-87057943D01*
X145822210Y-87039575D01*
X145822184Y-87039544D01*
X145805717Y-87033715D01*
X145765219Y-87023808D01*
X145705242Y-87010805D01*
X145630340Y-86995691D01*
X145545064Y-86979448D01*
X145537875Y-86978119D01*
X145450014Y-86961825D01*
X145370260Y-86946867D01*
X145303681Y-86934209D01*
X145255347Y-86924814D01*
X145230325Y-86919646D01*
X145229943Y-86919556D01*
X145219299Y-86916411D01*
X145211262Y-86910296D01*
X145205467Y-86897547D01*
X145201547Y-86874500D01*
X145199135Y-86837491D01*
X145197865Y-86782856D01*
X145197371Y-86706933D01*
X145197286Y-86606056D01*
X145197286Y-86593000D01*
X145197348Y-86489090D01*
X145197778Y-86410546D01*
X145198942Y-86353702D01*
X145201207Y-86314895D01*
X145204940Y-86290462D01*
X145210506Y-86276738D01*
X145218273Y-86270060D01*
X145228605Y-86266764D01*
X145229943Y-86266444D01*
X145254079Y-86261438D01*
X145301701Y-86252171D01*
X145367741Y-86239608D01*
X145447128Y-86224713D01*
X145534796Y-86208449D01*
X145537875Y-86207881D01*
X145623789Y-86191590D01*
X145699696Y-86176348D01*
X145761045Y-86163139D01*
X145803282Y-86152946D01*
X145821855Y-86146752D01*
X145822184Y-86146457D01*
X145831253Y-86128212D01*
X145846367Y-86090595D01*
X145864262Y-86041729D01*
X145864358Y-86041457D01*
X145887493Y-85979907D01*
X145916965Y-85907343D01*
X145946597Y-85838943D01*
X145948062Y-85835706D01*
X145998626Y-85724298D01*
X145830160Y-85477601D01*
X145778803Y-85401923D01*
X145732889Y-85333369D01*
X145695030Y-85275912D01*
X145667837Y-85233524D01*
X145653921Y-85210175D01*
X145652889Y-85207958D01*
X145657484Y-85190990D01*
X145679655Y-85159299D01*
X145720447Y-85111648D01*
X145780905Y-85046802D01*
X145845227Y-84980603D01*
X145908612Y-84916786D01*
X145966451Y-84859671D01*
X146015175Y-84812695D01*
X146051210Y-84779297D01*
X146070984Y-84762915D01*
X146072002Y-84762306D01*
X146085572Y-84760495D01*
X146107733Y-84767317D01*
X146141478Y-84784460D01*
X146189800Y-84813607D01*
X146255692Y-84856445D01*
X146340517Y-84913552D01*
X146415177Y-84964234D01*
X146482140Y-85009539D01*
X146537516Y-85046850D01*
X146577420Y-85073548D01*
X146597962Y-85087015D01*
X146599356Y-85087863D01*
X146619038Y-85086219D01*
X146657293Y-85073755D01*
X146706889Y-85052952D01*
X146722728Y-85045538D01*
X146793290Y-85013186D01*
X146873353Y-84978672D01*
X146942629Y-84950635D01*
X146994045Y-84930432D01*
X147033119Y-84914385D01*
X147053541Y-84905112D01*
X147055114Y-84903959D01*
X147057721Y-84886904D01*
X147064863Y-84846702D01*
X147075523Y-84788698D01*
X147088685Y-84718237D01*
X147103333Y-84640665D01*
X147118449Y-84561328D01*
X147133018Y-84485569D01*
X147146022Y-84418736D01*
X147156445Y-84366172D01*
X147163270Y-84333224D01*
X147165199Y-84325143D01*
X147169962Y-84316795D01*
X147180718Y-84310494D01*
X147201098Y-84305955D01*
X147234734Y-84302896D01*
X147285255Y-84301033D01*
X147356292Y-84300082D01*
X147451476Y-84299760D01*
X147490492Y-84299743D01*
X147807799Y-84299743D01*
X147822839Y-84375943D01*
G37*
D15*
%TO.C,J5*%
X148600534Y-112679339D02*
X148600534Y-114009339D01*
X147270534Y-112679339D02*
X148600534Y-112679339D01*
X146000534Y-112679339D02*
X140860534Y-112679339D01*
X146000534Y-112679339D02*
X146000534Y-115339339D01*
X140860534Y-112679339D02*
X140860534Y-115339339D01*
X146000534Y-115339339D02*
X140860534Y-115339339D01*
%TO.C,CON1*%
X150432929Y-98341787D02*
X151762929Y-98341787D01*
X150432929Y-99671787D02*
X150432929Y-98341787D01*
X150432929Y-100941787D02*
X150432929Y-106081787D01*
X150432929Y-100941787D02*
X153032929Y-100941787D01*
X150432929Y-106081787D02*
X155632929Y-106081787D01*
X153032929Y-98341787D02*
X155632929Y-98341787D01*
X153032929Y-100941787D02*
X153032929Y-98341787D01*
X155632929Y-98341787D02*
X155632929Y-106081787D01*
%TO.C,R3*%
X148869913Y-79329277D02*
X148869913Y-78875149D01*
X150339913Y-79329277D02*
X150339913Y-78875149D01*
%TO.C,J6*%
X133860232Y-109453377D02*
X132530232Y-109453377D01*
X133860232Y-108123377D02*
X133860232Y-109453377D01*
X133860232Y-106853377D02*
X133860232Y-99173377D01*
X133860232Y-106853377D02*
X131200232Y-106853377D01*
X133860232Y-99173377D02*
X131200232Y-99173377D01*
X131200232Y-106853377D02*
X131200232Y-99173377D01*
%TO.C,CON2*%
X158681064Y-98349755D02*
X160011064Y-98349755D01*
X158681064Y-99679755D02*
X158681064Y-98349755D01*
X158681064Y-100949755D02*
X158681064Y-106089755D01*
X158681064Y-100949755D02*
X161281064Y-100949755D01*
X158681064Y-106089755D02*
X163881064Y-106089755D01*
X161281064Y-98349755D02*
X163881064Y-98349755D01*
X161281064Y-100949755D02*
X161281064Y-98349755D01*
X163881064Y-98349755D02*
X163881064Y-106089755D01*
%TO.C,L1*%
X141553000Y-80134622D02*
X141553000Y-79335378D01*
X142673000Y-80134622D02*
X142673000Y-79335378D01*
%TO.C,C10*%
X141082050Y-106239566D02*
X141082050Y-105717062D01*
X142552050Y-106239566D02*
X142552050Y-105717062D01*
%TO.C,J15*%
X151070000Y-115228000D02*
X151070000Y-113898000D01*
X152400000Y-115228000D02*
X151070000Y-115228000D01*
X153670000Y-115228000D02*
X158810000Y-115228000D01*
X153670000Y-115228000D02*
X153670000Y-112568000D01*
X158810000Y-115228000D02*
X158810000Y-112568000D01*
X153670000Y-112568000D02*
X158810000Y-112568000D01*
%TO.C,J3*%
X131253000Y-62904000D02*
X131253000Y-61574000D01*
X132583000Y-62904000D02*
X131253000Y-62904000D01*
X133853000Y-62904000D02*
X136453000Y-62904000D01*
X133853000Y-62904000D02*
X133853000Y-60244000D01*
X136453000Y-62904000D02*
X136453000Y-60244000D01*
X133853000Y-60244000D02*
X136453000Y-60244000D01*
%TO.C,J2*%
X152337297Y-66275788D02*
X153667297Y-66275788D01*
X152337297Y-67605788D02*
X152337297Y-66275788D01*
X152337297Y-68875788D02*
X152337297Y-96875788D01*
X152337297Y-68875788D02*
X154997297Y-68875788D01*
X152337297Y-96875788D02*
X154997297Y-96875788D01*
X154997297Y-68875788D02*
X154997297Y-96875788D01*
%TO.C,U4*%
X141974106Y-102126507D02*
X143374106Y-102126507D01*
X143374106Y-99806507D02*
X141474106Y-99806507D01*
%TO.C,C9*%
X156262242Y-109258922D02*
X156262242Y-109781426D01*
X154792242Y-109258922D02*
X154792242Y-109781426D01*
%TO.C,R2*%
X150339913Y-74557149D02*
X150339913Y-75011277D01*
X148869913Y-74557149D02*
X148869913Y-75011277D01*
%TO.C,C3*%
X142824645Y-70616153D02*
X142824645Y-70831825D01*
X142104645Y-70616153D02*
X142104645Y-70831825D01*
%TO.C,C7*%
X143468402Y-106239566D02*
X143468402Y-105717062D01*
X144938402Y-106239566D02*
X144938402Y-105717062D01*
%TO.C,C1*%
X145687077Y-79504213D02*
X145902749Y-79504213D01*
X145687077Y-80224213D02*
X145902749Y-80224213D01*
%TO.C,J11*%
X147467981Y-62863420D02*
X147467981Y-61533420D01*
X148797981Y-62863420D02*
X147467981Y-62863420D01*
X150067981Y-62863420D02*
X152667981Y-62863420D01*
X150067981Y-62863420D02*
X150067981Y-60203420D01*
X152667981Y-62863420D02*
X152667981Y-60203420D01*
X150067981Y-60203420D02*
X152667981Y-60203420D01*
%TO.C,C6*%
X149757578Y-109509101D02*
X149757578Y-110031605D01*
X148287578Y-109509101D02*
X148287578Y-110031605D01*
%TO.C,R4*%
X149631849Y-70493213D02*
X150085977Y-70493213D01*
X149631849Y-71963213D02*
X150085977Y-71963213D01*
%TO.C,R1*%
X145821849Y-70493213D02*
X146275977Y-70493213D01*
X145821849Y-71963213D02*
X146275977Y-71963213D01*
%TO.C,C11*%
X147230766Y-109534119D02*
X147230766Y-110056623D01*
X145760766Y-109534119D02*
X145760766Y-110056623D01*
%TO.C,J8*%
X131120904Y-66216774D02*
X132450904Y-66216774D01*
X131120904Y-67546774D02*
X131120904Y-66216774D01*
X131120904Y-68816774D02*
X131120904Y-96816774D01*
X131120904Y-68816774D02*
X133780904Y-68816774D01*
X131120904Y-96816774D02*
X133780904Y-96816774D01*
X133780904Y-68816774D02*
X133780904Y-96816774D01*
%TO.C,J7*%
X158801044Y-66199767D02*
X160131044Y-66199767D01*
X158801044Y-67529767D02*
X158801044Y-66199767D01*
X158801044Y-68799767D02*
X158801044Y-96799767D01*
X158801044Y-68799767D02*
X161461044Y-68799767D01*
X158801044Y-96799767D02*
X161461044Y-96799767D01*
X161461044Y-68799767D02*
X161461044Y-96799767D01*
%TO.C,J4*%
X139996745Y-109460844D02*
X138666745Y-109460844D01*
X139996745Y-108130844D02*
X139996745Y-109460844D01*
X139996745Y-106860844D02*
X139996745Y-99180844D01*
X139996745Y-106860844D02*
X137336745Y-106860844D01*
X139996745Y-99180844D02*
X137336745Y-99180844D01*
X137336745Y-106860844D02*
X137336745Y-99180844D01*
%TO.C,U3*%
X142594151Y-111055227D02*
X143994151Y-111055227D01*
X143994151Y-108735227D02*
X142094151Y-108735227D01*
%TO.C,C8*%
X148588915Y-100770149D02*
X148588915Y-101292653D01*
X147118915Y-100770149D02*
X147118915Y-101292653D01*
%TO.C,C5*%
X158563893Y-109283939D02*
X158563893Y-109806443D01*
X157093893Y-109283939D02*
X157093893Y-109806443D01*
%TO.C,U5*%
X147820727Y-104364512D02*
X146420727Y-104364512D01*
X146420727Y-106684512D02*
X148320727Y-106684512D01*
%TO.C,J9*%
X155539645Y-62863479D02*
X155539645Y-61533479D01*
X156869645Y-62863479D02*
X155539645Y-62863479D01*
X158139645Y-62863479D02*
X160739645Y-62863479D01*
X158139645Y-62863479D02*
X158139645Y-60203479D01*
X160739645Y-62863479D02*
X160739645Y-60203479D01*
X158139645Y-60203479D02*
X160739645Y-60203479D01*
%TO.C,C4*%
X146347732Y-100789100D02*
X146347732Y-101311604D01*
X144877732Y-100789100D02*
X144877732Y-101311604D01*
%TO.C,J14*%
X130742747Y-115266329D02*
X130742747Y-113936329D01*
X132072747Y-115266329D02*
X130742747Y-115266329D01*
X133342747Y-115266329D02*
X138482747Y-115266329D01*
X133342747Y-115266329D02*
X133342747Y-112606329D01*
X138482747Y-115266329D02*
X138482747Y-112606329D01*
X133342747Y-112606329D02*
X138482747Y-112606329D01*
%TO.C,J12*%
X139726507Y-62883739D02*
X139726507Y-61553739D01*
X141056507Y-62883739D02*
X139726507Y-62883739D01*
X142326507Y-62883739D02*
X144926507Y-62883739D01*
X142326507Y-62883739D02*
X142326507Y-60223739D01*
X144926507Y-62883739D02*
X144926507Y-60223739D01*
X142326507Y-60223739D02*
X144926507Y-60223739D01*
%TO.C,J1*%
X137268418Y-66215362D02*
X138598418Y-66215362D01*
X137268418Y-67545362D02*
X137268418Y-66215362D01*
X137268418Y-68815362D02*
X137268418Y-96815362D01*
X137268418Y-68815362D02*
X139928418Y-68815362D01*
X137268418Y-96815362D02*
X139928418Y-96815362D01*
X139928418Y-68815362D02*
X139928418Y-96815362D01*
%TO.C,U1*%
X144173913Y-74657213D02*
X145148913Y-74657213D01*
X144173913Y-77907213D02*
X144173913Y-77682213D01*
X144173913Y-77907213D02*
X145148913Y-77907213D01*
X146448913Y-74657213D02*
X147423913Y-74657213D01*
X146448913Y-77907213D02*
X147423913Y-77907213D01*
X147423913Y-74882213D02*
X147423913Y-74657213D01*
X147423913Y-77682213D02*
X147423913Y-77907213D01*
%TO.C,C2*%
X141207500Y-74140934D02*
X141207500Y-73618430D01*
X142677500Y-74140934D02*
X142677500Y-73618430D01*
%TO.C,U2*%
X151774372Y-110254653D02*
X153174372Y-110254653D01*
X153174372Y-107934653D02*
X151274372Y-107934653D01*
%TO.C,J13*%
X161230000Y-107742000D02*
X162560000Y-107742000D01*
X161230000Y-109072000D02*
X161230000Y-107742000D01*
X161230000Y-110342000D02*
X161230000Y-115482000D01*
X161230000Y-110342000D02*
X163890000Y-110342000D01*
X161230000Y-115482000D02*
X163890000Y-115482000D01*
X163890000Y-110342000D02*
X163890000Y-115482000D01*
%TD*%
M02*
